<ttFont>
    <TTGlyph name=".notdef" xMin="65" yMin="-99" xMax="1938" yMax="1309">
      <contour>
        <pt x="1165" y="532" on="1"/>
        <pt x="1356" y="385" on="1"/>
        <pt x="1364" y="387" on="0"/>
        <pt x="1388" y="417" on="1"/>
        <pt x="1412" y="448" on="0"/>
        <pt x="1411" y="455" on="1"/>
        <pt x="1397" y="468" on="0"/>
        <pt x="1333" y="521" on="1"/>
        <pt x="1301" y="548" on="0"/>
        <pt x="1249" y="594" on="0"/>
        <pt x="1227" y="614" on="1"/>
        <pt x="1286" y="693" on="1"/>
        <pt x="1320" y="738" on="0"/>
        <pt x="1365" y="796" on="0"/>
        <pt x="1376" y="813" on="1"/>
        <pt x="1329" y="853" on="0"/>
        <pt x="1300" y="866" on="1"/>
        <pt x="1149" y="676" on="1"/>
        <pt x="1083" y="728" on="0"/>
        <pt x="985" y="802" on="0"/>
        <pt x="950" y="825" on="1"/>
        <pt x="909" y="778" on="0"/>
        <pt x="897" y="745" on="1"/>
        <pt x="1083" y="598" on="1"/>
        <pt x="936" y="408" on="1"/>
        <pt x="937" y="398" on="0"/>
        <pt x="967" y="374" on="1"/>
        <pt x="998" y="350" on="0"/>
        <pt x="1006" y="352" on="1"/>
      </contour>
      <contour>
        <pt x="1935" y="1161" on="1"/>
        <pt x="1804" y="1026" on="1"/>
        <pt x="1802" y="1028" on="1"/>
        <pt x="1798" y="545" on="0"/>
        <pt x="1309" y="211" on="1"/>
        <pt x="1309" y="206" on="0"/>
        <pt x="1306" y="189" on="0"/>
        <pt x="1298" y="173" on="0"/>
        <pt x="1284" y="162" on="0"/>
        <pt x="1272" y="162" on="1"/>
        <pt x="1247" y="137" on="1"/>
        <pt x="1364" y="96" on="0"/>
        <pt x="1442" y="59" on="1"/>
        <pt x="1444" y="59" on="0"/>
        <pt x="1458" y="59" on="0"/>
        <pt x="1469" y="60" on="1"/>
        <pt x="1491" y="61" on="0"/>
        <pt x="1503" y="60" on="1"/>
        <pt x="1523" y="59" on="0"/>
        <pt x="1587" y="43" on="0"/>
        <pt x="1612" y="23" on="1"/>
        <pt x="1612" y="15" on="0"/>
        <pt x="1609" y="13" on="0"/>
        <pt x="1604" y="8" on="1"/>
        <pt x="1591" y="14" on="0"/>
        <pt x="1573" y="23" on="0"/>
        <pt x="1566" y="25" on="1"/>
        <pt x="1553" y="31" on="0"/>
        <pt x="1509" y="38" on="0"/>
        <pt x="1485" y="35" on="1"/>
        <pt x="1533" y="8" on="0"/>
        <pt x="1553" y="-16" on="1"/>
        <pt x="1555" y="-18" on="0"/>
        <pt x="1559" y="-24" on="0"/>
        <pt x="1561" y="-27" on="1"/>
        <pt x="1558" y="-36" on="0"/>
        <pt x="1542" y="-39" on="1"/>
        <pt x="1474" y="29" on="0"/>
        <pt x="1411" y="27" on="1"/>
        <pt x="1398" y="27" on="0"/>
        <pt x="1379" y="26" on="0"/>
        <pt x="1367" y="22" on="1"/>
        <pt x="1352" y="17" on="1"/>
        <pt x="1330" y="8" on="1"/>
        <pt x="1322" y="4" on="0"/>
        <pt x="1310" y="-1" on="0"/>
        <pt x="1307" y="-2" on="1"/>
        <pt x="1302" y="3" on="0"/>
        <pt x="1296" y="-1" on="0"/>
        <pt x="1294" y="10" on="1"/>
        <pt x="1304" y="21" on="0"/>
        <pt x="1325" y="35" on="0"/>
        <pt x="1332" y="37" on="1"/>
        <pt x="1339" y="40" on="0"/>
        <pt x="1372" y="50" on="0"/>
        <pt x="1382" y="53" on="1"/>
        <pt x="1363" y="63" on="0"/>
        <pt x="1322" y="82" on="0"/>
        <pt x="1299" y="90" on="1"/>
        <pt x="1253" y="107" on="0"/>
        <pt x="1204" y="124" on="0"/>
        <pt x="1204" y="131" on="1"/>
        <pt x="1204" y="144" on="0"/>
        <pt x="1227" y="162" on="1"/>
        <pt x="1212" y="162" on="0"/>
        <pt x="1191" y="190" on="0"/>
        <pt x="1188" y="201" on="1"/>
        <pt x="1133" y="201" on="1"/>
        <pt x="1102" y="201" on="0"/>
        <pt x="1046" y="205" on="0"/>
        <pt x="1020" y="209" on="1"/>
        <pt x="1000" y="154" on="0"/>
        <pt x="965" y="162" on="1"/>
        <pt x="945" y="152" on="0"/>
        <pt x="934" y="141" on="1"/>
        <pt x="939" y="137" on="0"/>
        <pt x="960" y="125" on="0"/>
        <pt x="974" y="115" on="1"/>
        <pt x="989" y="106" on="0"/>
        <pt x="1012" y="91" on="0"/>
        <pt x="1020" y="86" on="1"/>
        <pt x="1037" y="76" on="0"/>
        <pt x="1086" y="41" on="0"/>
        <pt x="1106" y="25" on="1"/>
        <pt x="1140" y="18" on="1"/>
        <pt x="1153" y="16" on="0"/>
        <pt x="1173" y="12" on="0"/>
        <pt x="1180" y="10" on="1"/>
        <pt x="1194" y="6" on="0"/>
        <pt x="1237" y="-21" on="0"/>
        <pt x="1253" y="-43" on="1"/>
        <pt x="1253" y="-50" on="0"/>
        <pt x="1248" y="-52" on="0"/>
        <pt x="1243" y="-57" on="1"/>
        <pt x="1217" y="-34" on="0"/>
        <pt x="1199" y="-24" on="1"/>
        <pt x="1181" y="-16" on="0"/>
        <pt x="1143" y="-10" on="1"/>
        <pt x="1185" y="-38" on="0"/>
        <pt x="1198" y="-90" on="1"/>
        <pt x="1194" y="-99" on="0"/>
        <pt x="1182" y="-98" on="1"/>
        <pt x="1130" y="-13" on="0"/>
        <pt x="1073" y="-2" on="1"/>
        <pt x="1008" y="7" on="0"/>
        <pt x="930" y="-12" on="1"/>
        <pt x="924" y="-3" on="0"/>
        <pt x="924" y="4" on="1"/>
        <pt x="937" y="12" on="0"/>
        <pt x="963" y="22" on="0"/>
        <pt x="978" y="24" on="1"/>
        <pt x="1002" y="27" on="1"/>
        <pt x="1007" y="28" on="0"/>
        <pt x="1012" y="28" on="0"/>
        <pt x="1014" y="28" on="1"/>
        <pt x="1017" y="28" on="0"/>
        <pt x="1038" y="29" on="0"/>
        <pt x="1040" y="29" on="1"/>
        <pt x="1026" y="40" on="0"/>
        <pt x="992" y="64" on="0"/>
        <pt x="972" y="77" on="1"/>
        <pt x="930" y="104" on="0"/>
        <pt x="887" y="135" on="0"/>
        <pt x="887" y="145" on="1"/>
        <pt x="885" y="154" on="0"/>
        <pt x="904" y="166" on="0"/>
        <pt x="913" y="174" on="1"/>
        <pt x="894" y="193" on="0"/>
        <pt x="899" y="240" on="1"/>
        <pt x="817" y="285" on="0"/>
        <pt x="678" y="403" on="0"/>
        <pt x="624" y="469" on="1"/>
        <pt x="598" y="502" on="0"/>
        <pt x="555" y="559" on="0"/>
        <pt x="538" y="584" on="1"/>
        <pt x="521" y="609" on="0"/>
        <pt x="487" y="663" on="0"/>
        <pt x="469" y="693" on="1"/>
        <pt x="467" y="698" on="0"/>
        <pt x="463" y="705" on="0"/>
        <pt x="461" y="707" on="1"/>
        <pt x="456" y="709" on="0"/>
        <pt x="432" y="716" on="0"/>
        <pt x="413" y="723" on="1"/>
        <pt x="363" y="740" on="1"/>
        <pt x="318" y="755" on="1"/>
        <pt x="270" y="773" on="1"/>
        <pt x="263" y="776" on="0"/>
        <pt x="242" y="785" on="0"/>
        <pt x="228" y="790" on="1"/>
        <pt x="214" y="795" on="0"/>
        <pt x="192" y="805" on="0"/>
        <pt x="184" y="809" on="1"/>
        <pt x="159" y="823" on="0"/>
        <pt x="99" y="855" on="0"/>
        <pt x="80" y="872" on="1"/>
        <pt x="65" y="885" on="0"/>
        <pt x="73" y="918" on="0"/>
        <pt x="92" y="918" on="1"/>
        <pt x="616" y="872" on="1"/>
        <pt x="776" y="904" on="1"/>
        <pt x="913" y="930" on="1"/>
        <pt x="1023" y="952" on="1"/>
        <pt x="1115" y="972" on="1"/>
        <pt x="1149" y="981" on="0"/>
        <pt x="1220" y="1002" on="0"/>
        <pt x="1240" y="1013" on="1"/>
        <pt x="1261" y="1024" on="0"/>
        <pt x="1296" y="1050" on="0"/>
        <pt x="1307" y="1067" on="1"/>
        <pt x="1337" y="1121" on="0"/>
        <pt x="1399" y="1197" on="0"/>
        <pt x="1466" y="1246" on="0"/>
        <pt x="1541" y="1268" on="0"/>
        <pt x="1585" y="1268" on="1"/>
        <pt x="1637" y="1268" on="0"/>
        <pt x="1681" y="1253" on="1"/>
        <pt x="1681" y="1255" on="1"/>
        <pt x="1833" y="1309" on="1"/>
        <pt x="1839" y="1309" on="0"/>
        <pt x="1839" y="1305" on="1"/>
        <pt x="1839" y="1303" on="1"/>
        <pt x="1788" y="1161" on="1"/>
        <pt x="1931" y="1167" on="1"/>
        <pt x="1938" y="1167" on="0"/>
      </contour>
    </TTGlyph>
    <TTGlyph name="A" xMin="8" yMin="0" xMax="1318" yMax="1206">
      <contour>
        <pt x="543" y="572" on="1"/>
        <pt x="775" y="572" on="1"/>
        <pt x="661" y="962" on="1"/>
      </contour>
      <contour>
        <pt x="801" y="1206" on="1"/>
        <pt x="1138" y="229" on="1"/>
        <pt x="1318" y="229" on="1"/>
        <pt x="1318" y="0" on="1"/>
        <pt x="775" y="0" on="1"/>
        <pt x="775" y="229" on="1"/>
        <pt x="875" y="229" on="1"/>
        <pt x="824" y="403" on="1"/>
        <pt x="493" y="403" on="1"/>
        <pt x="440" y="229" on="1"/>
        <pt x="551" y="229" on="1"/>
        <pt x="551" y="0" on="1"/>
        <pt x="8" y="0" on="1"/>
        <pt x="8" y="229" on="1"/>
        <pt x="210" y="229" on="1"/>
        <pt x="469" y="977" on="1"/>
        <pt x="308" y="977" on="1"/>
        <pt x="308" y="1206" on="1"/>
      </contour>
    </TTGlyph>
    <TTGlyph name="AE" xMin="8" yMin="0" xMax="1824" yMax="1206">
      <contour>
        <pt x="656" y="589" on="1"/>
        <pt x="877" y="589" on="1"/>
        <pt x="877" y="977" on="1"/>
      </contour>
      <contour>
        <pt x="450" y="229" on="1"/>
        <pt x="553" y="229" on="1"/>
        <pt x="553" y="0" on="1"/>
        <pt x="8" y="0" on="1"/>
        <pt x="8" y="229" on="1"/>
        <pt x="197" y="229" on="1"/>
        <pt x="650" y="977" on="1"/>
        <pt x="466" y="977" on="1"/>
        <pt x="466" y="1206" on="1"/>
        <pt x="1647" y="1206" on="1"/>
        <pt x="1774" y="827" on="1"/>
        <pt x="1556" y="753" on="1"/>
        <pt x="1482" y="977" on="1"/>
        <pt x="1141" y="977" on="1"/>
        <pt x="1141" y="725" on="1"/>
        <pt x="1474" y="725" on="1"/>
        <pt x="1474" y="498" on="1"/>
        <pt x="1141" y="498" on="1"/>
        <pt x="1141" y="229" on="1"/>
        <pt x="1536" y="229" on="1"/>
        <pt x="1608" y="431" on="1"/>
        <pt x="1824" y="355" on="1"/>
        <pt x="1701" y="0" on="1"/>
        <pt x="708" y="0" on="1"/>
        <pt x="708" y="229" on="1"/>
        <pt x="877" y="229" on="1"/>
        <pt x="877" y="362" on="1"/>
        <pt x="527" y="362" on="1"/>
      </contour>
    </TTGlyph>
    <TTGlyph name="Aacute" xMin="8" yMin="0" xMax="1318" yMax="1753">
      <component glyphName="A" x="0" y="0" flags="0x4"/>
      <component glyphName="acute" x="337" y="276" flags="0x4"/>
    </TTGlyph>
    <TTGlyph name="Acircumflex" xMin="8" yMin="0" xMax="1318" yMax="1760">
      <component glyphName="A" x="0" y="0" flags="0x4"/>
      <component glyphName="circumflex" x="221" y="276" flags="0x4"/>
    </TTGlyph>
    <TTGlyph name="Adieresis" xMin="8" yMin="0" xMax="1318" yMax="1672">
      <component glyphName="A" x="0" y="0" flags="0x4"/>
      <component glyphName="dieresis" x="201" y="276" flags="0x4"/>
    </TTGlyph>
    <TTGlyph name="Agrave" xMin="8" yMin="0" xMax="1318" yMax="1753">
      <component glyphName="A" x="0" y="0" flags="0x4"/>
      <component glyphName="grave" x="188" y="276" flags="0x4"/>
    </TTGlyph>
    <TTGlyph name="Aring" xMin="8" yMin="0" xMax="1318" yMax="1748">
      <component glyphName="A" x="0" y="0" flags="0x4"/>
      <component glyphName="ring" x="333" y="276" flags="0x4"/>
    </TTGlyph>
    <TTGlyph name="Atilde" xMin="8" yMin="0" xMax="1318" yMax="1680">
      <component glyphName="A" x="0" y="0" flags="0x4"/>
      <component glyphName="tilde" x="118" y="276" flags="0x4"/>
    </TTGlyph>
    <TTGlyph name="B" xMin="84" yMin="0" xMax="1166" yMax="1206">
      <contour>
        <pt x="651" y="977" on="1"/>
        <pt x="515" y="977" on="1"/>
        <pt x="515" y="707" on="1"/>
        <pt x="721" y="707" on="1"/>
        <pt x="752" y="707" on="0"/>
        <pt x="826" y="744" on="0"/>
        <pt x="855" y="800" on="0"/>
        <pt x="855" y="839" on="1"/>
        <pt x="855" y="914" on="0"/>
        <pt x="763" y="977" on="0"/>
      </contour>
      <contour>
        <pt x="719" y="499" on="1"/>
        <pt x="515" y="499" on="1"/>
        <pt x="515" y="229" on="1"/>
        <pt x="708" y="229" on="1"/>
        <pt x="806" y="229" on="0"/>
        <pt x="894" y="282" on="0"/>
        <pt x="894" y="366" on="1"/>
        <pt x="894" y="439" on="0"/>
        <pt x="808" y="499" on="0"/>
      </contour>
      <contour>
        <pt x="84" y="1206" on="1"/>
        <pt x="628" y="1206" on="1"/>
        <pt x="892" y="1206" on="0"/>
        <pt x="1129" y="1046" on="0"/>
        <pt x="1129" y="851" on="1"/>
        <pt x="1129" y="719" on="0"/>
        <pt x="1008" y="613" on="1"/>
        <pt x="1082" y="577" on="0"/>
        <pt x="1166" y="421" on="0"/>
        <pt x="1166" y="338" on="1"/>
        <pt x="1166" y="178" on="0"/>
        <pt x="960" y="0" on="0"/>
        <pt x="755" y="0" on="1"/>
        <pt x="84" y="0" on="1"/>
        <pt x="84" y="229" on="1"/>
        <pt x="251" y="229" on="1"/>
        <pt x="251" y="977" on="1"/>
        <pt x="84" y="977" on="1"/>
      </contour>
    </TTGlyph>
    <TTGlyph name="C" xMin="61" yMin="-45" xMax="1157" yMax="1251">
      <contour>
        <pt x="934" y="412" on="1"/>
        <pt x="1156" y="361" on="1"/>
        <pt x="1089" y="52" on="1"/>
        <pt x="1082" y="48" on="0"/>
        <pt x="1058" y="35" on="0"/>
        <pt x="976" y="2" on="0"/>
        <pt x="889" y="-24" on="0"/>
        <pt x="758" y="-45" on="0"/>
        <pt x="693" y="-45" on="1"/>
        <pt x="551" y="-45" on="0"/>
        <pt x="322" y="32" on="0"/>
        <pt x="153" y="188" on="0"/>
        <pt x="61" y="440" on="0"/>
        <pt x="61" y="607" on="1"/>
        <pt x="61" y="909" on="0"/>
        <pt x="403" y="1251" on="0"/>
        <pt x="691" y="1251" on="1"/>
        <pt x="762" y="1251" on="0"/>
        <pt x="897" y="1229" on="0"/>
        <pt x="990" y="1197" on="0"/>
        <pt x="1062" y="1165" on="0"/>
        <pt x="1079" y="1154" on="1"/>
        <pt x="1096" y="1143" on="1"/>
        <pt x="1157" y="835" on="1"/>
        <pt x="933" y="787" on="1"/>
        <pt x="888" y="997" on="1"/>
        <pt x="889" y="998" on="0"/>
        <pt x="831" y="1015" on="0"/>
        <pt x="733" y="1031" on="0"/>
        <pt x="693" y="1031" on="1"/>
        <pt x="520" y="1031" on="0"/>
        <pt x="335" y="812" on="0"/>
        <pt x="335" y="607" on="1"/>
        <pt x="335" y="398" on="0"/>
        <pt x="522" y="176" on="0"/>
        <pt x="693" y="176" on="1"/>
        <pt x="738" y="176" on="0"/>
        <pt x="836" y="202" on="0"/>
        <pt x="862" y="214" on="1"/>
        <pt x="889" y="227" on="1"/>
      </contour>
    </TTGlyph>
    <TTGlyph name="Ccedilla" xMin="61" yMin="-489" xMax="1157" yMax="1251">
      <contour>
        <pt x="934" y="412" on="1"/>
        <pt x="1156" y="361" on="1"/>
        <pt x="1089" y="52" on="1"/>
        <pt x="1083" y="48" on="0"/>
        <pt x="1060" y="36" on="0"/>
        <pt x="983" y="4" on="0"/>
        <pt x="901" y="-21" on="0"/>
        <pt x="777" y="-43" on="0"/>
        <pt x="715" y="-45" on="1"/>
        <pt x="715" y="-96" on="1"/>
        <pt x="855" y="-92" on="0"/>
        <pt x="988" y="-178" on="0"/>
        <pt x="988" y="-277" on="1"/>
        <pt x="988" y="-383" on="0"/>
        <pt x="831" y="-489" on="0"/>
        <pt x="711" y="-489" on="1"/>
        <pt x="581" y="-489" on="0"/>
        <pt x="440" y="-392" on="1"/>
        <pt x="515" y="-284" on="1"/>
        <pt x="606" y="-346" on="0"/>
        <pt x="709" y="-346" on="1"/>
        <pt x="788" y="-346" on="0"/>
        <pt x="788" y="-264" on="1"/>
        <pt x="788" y="-237" on="0"/>
        <pt x="743" y="-198" on="0"/>
        <pt x="689" y="-198" on="1"/>
        <pt x="556" y="-198" on="1"/>
        <pt x="556" y="-35" on="1"/>
        <pt x="323" y="0" on="0"/>
        <pt x="61" y="320" on="0"/>
        <pt x="61" y="607" on="1"/>
        <pt x="61" y="909" on="0"/>
        <pt x="403" y="1251" on="0"/>
        <pt x="691" y="1251" on="1"/>
        <pt x="762" y="1251" on="0"/>
        <pt x="897" y="1229" on="0"/>
        <pt x="990" y="1197" on="0"/>
        <pt x="1062" y="1165" on="0"/>
        <pt x="1096" y="1143" on="1"/>
        <pt x="1157" y="835" on="1"/>
        <pt x="933" y="787" on="1"/>
        <pt x="888" y="997" on="1"/>
        <pt x="889" y="998" on="0"/>
        <pt x="831" y="1015" on="0"/>
        <pt x="733" y="1031" on="0"/>
        <pt x="693" y="1031" on="1"/>
        <pt x="520" y="1031" on="0"/>
        <pt x="335" y="812" on="0"/>
        <pt x="335" y="607" on="1"/>
        <pt x="335" y="398" on="0"/>
        <pt x="522" y="176" on="0"/>
        <pt x="693" y="176" on="1"/>
        <pt x="738" y="176" on="0"/>
        <pt x="836" y="202" on="0"/>
        <pt x="889" y="227" on="1"/>
      </contour>
    </TTGlyph>
    <TTGlyph name="D" xMin="84" yMin="0" xMax="1302" yMax="1206">
      <contour>
        <pt x="84" y="1206" on="1"/>
        <pt x="651" y="1206" on="1"/>
        <pt x="805" y="1206" on="0"/>
        <pt x="1039" y="1138" on="0"/>
        <pt x="1212" y="992" on="0"/>
        <pt x="1302" y="748" on="0"/>
        <pt x="1302" y="580" on="1"/>
        <pt x="1302" y="451" on="0"/>
        <pt x="1240" y="252" on="0"/>
        <pt x="1130" y="121" on="0"/>
        <pt x="968" y="36" on="0"/>
        <pt x="781" y="0" on="0"/>
        <pt x="667" y="0" on="1"/>
        <pt x="85" y="0" on="1"/>
        <pt x="85" y="229" on="1"/>
        <pt x="251" y="229" on="1"/>
        <pt x="251" y="977" on="1"/>
        <pt x="84" y="977" on="1"/>
      </contour>
      <contour>
        <pt x="515" y="977" on="1"/>
        <pt x="515" y="229" on="1"/>
        <pt x="630" y="229" on="1"/>
        <pt x="740" y="229" on="0"/>
        <pt x="879" y="257" on="0"/>
        <pt x="983" y="332" on="0"/>
        <pt x="1028" y="469" on="0"/>
        <pt x="1028" y="577" on="1"/>
        <pt x="1028" y="797" on="0"/>
        <pt x="848" y="977" on="0"/>
        <pt x="651" y="977" on="1"/>
      </contour>
    </TTGlyph>
    <TTGlyph name="E" xMin="83" yMin="0" xMax="1199" yMax="1206">
      <contour>
        <pt x="1199" y="355" on="1"/>
        <pt x="1076" y="0" on="1"/>
        <pt x="83" y="0" on="1"/>
        <pt x="83" y="229" on="1"/>
        <pt x="251" y="229" on="1"/>
        <pt x="251" y="977" on="1"/>
        <pt x="85" y="977" on="1"/>
        <pt x="85" y="1206" on="1"/>
        <pt x="1022" y="1206" on="1"/>
        <pt x="1149" y="827" on="1"/>
        <pt x="931" y="753" on="1"/>
        <pt x="857" y="977" on="1"/>
        <pt x="515" y="977" on="1"/>
        <pt x="515" y="725" on="1"/>
        <pt x="849" y="725" on="1"/>
        <pt x="849" y="498" on="1"/>
        <pt x="515" y="498" on="1"/>
        <pt x="515" y="229" on="1"/>
        <pt x="911" y="229" on="1"/>
        <pt x="983" y="431" on="1"/>
      </contour>
    </TTGlyph>
    <TTGlyph name="Eacute" xMin="83" yMin="0" xMax="1199" yMax="1753">
      <component glyphName="E" x="0" y="0" flags="0x204"/>
      <component glyphName="acute" x="305" y="276" flags="0x4"/>
    </TTGlyph>
    <TTGlyph name="Ecircumflex" xMin="83" yMin="0" xMax="1199" yMax="1760">
      <component glyphName="E" x="0" y="0" flags="0x204"/>
      <component glyphName="circumflex" x="210" y="276" flags="0x4"/>
    </TTGlyph>
    <TTGlyph name="Edieresis" xMin="83" yMin="0" xMax="1199" yMax="1672">
      <component glyphName="E" x="0" y="0" flags="0x204"/>
      <component glyphName="dieresis" x="209" y="276" flags="0x4"/>
    </TTGlyph>
    <TTGlyph name="Egrave" xMin="83" yMin="0" xMax="1199" yMax="1753">
      <component glyphName="E" x="0" y="0" flags="0x204"/>
      <component glyphName="grave" x="216" y="276" flags="0x4"/>
    </TTGlyph>
    <TTGlyph name="Eth" xMin="84" yMin="0" xMax="1302" yMax="1206">
      <contour>
        <pt x="700" y="509" on="1"/>
        <pt x="515" y="509" on="1"/>
        <pt x="515" y="229" on="1"/>
        <pt x="630" y="229" on="1"/>
        <pt x="740" y="229" on="0"/>
        <pt x="879" y="257" on="0"/>
        <pt x="983" y="332" on="0"/>
        <pt x="1028" y="469" on="0"/>
        <pt x="1028" y="577" on="1"/>
        <pt x="1028" y="797" on="0"/>
        <pt x="848" y="977" on="0"/>
        <pt x="651" y="977" on="1"/>
        <pt x="515" y="977" on="1"/>
        <pt x="515" y="737" on="1"/>
        <pt x="700" y="737" on="1"/>
      </contour>
      <contour>
        <pt x="251" y="509" on="1"/>
        <pt x="85" y="509" on="1"/>
        <pt x="85" y="737" on="1"/>
        <pt x="251" y="737" on="1"/>
        <pt x="251" y="977" on="1"/>
        <pt x="84" y="977" on="1"/>
        <pt x="84" y="1206" on="1"/>
        <pt x="651" y="1206" on="1"/>
        <pt x="805" y="1206" on="0"/>
        <pt x="1039" y="1138" on="0"/>
        <pt x="1212" y="992" on="0"/>
        <pt x="1302" y="748" on="0"/>
        <pt x="1302" y="580" on="1"/>
        <pt x="1302" y="451" on="0"/>
        <pt x="1240" y="252" on="0"/>
        <pt x="1130" y="121" on="0"/>
        <pt x="968" y="36" on="0"/>
        <pt x="781" y="0" on="0"/>
        <pt x="667" y="0" on="1"/>
        <pt x="85" y="0" on="1"/>
        <pt x="85" y="229" on="1"/>
        <pt x="251" y="229" on="1"/>
      </contour>
    </TTGlyph>
    <TTGlyph name="Euro" xMin="63" yMin="-45" xMax="1347" yMax="1251">
      <contour>
        <pt x="1124" y="412" on="1"/>
        <pt x="1346" y="361" on="1"/>
        <pt x="1279" y="52" on="1"/>
        <pt x="1272" y="48" on="0"/>
        <pt x="1248" y="35" on="0"/>
        <pt x="1166" y="2" on="0"/>
        <pt x="1079" y="-24" on="0"/>
        <pt x="948" y="-45" on="0"/>
        <pt x="883" y="-45" on="1"/>
        <pt x="648" y="-45" on="0"/>
        <pt x="333" y="164" on="0"/>
        <pt x="278" y="377" on="1"/>
        <pt x="63" y="377" on="1"/>
        <pt x="103" y="537" on="1"/>
        <pt x="253" y="537" on="1"/>
        <pt x="251" y="581" on="0"/>
        <pt x="251" y="607" on="1"/>
        <pt x="251" y="641" on="1"/>
        <pt x="63" y="641" on="1"/>
        <pt x="103" y="801" on="1"/>
        <pt x="272" y="801" on="1"/>
        <pt x="324" y="1015" on="0"/>
        <pt x="645" y="1251" on="0"/>
        <pt x="881" y="1251" on="1"/>
        <pt x="952" y="1251" on="0"/>
        <pt x="1087" y="1229" on="0"/>
        <pt x="1180" y="1197" on="0"/>
        <pt x="1252" y="1165" on="0"/>
        <pt x="1269" y="1154" on="1"/>
        <pt x="1286" y="1143" on="1"/>
        <pt x="1347" y="835" on="1"/>
        <pt x="1123" y="787" on="1"/>
        <pt x="1078" y="997" on="1"/>
        <pt x="1079" y="998" on="0"/>
        <pt x="1021" y="1015" on="0"/>
        <pt x="923" y="1031" on="0"/>
        <pt x="883" y="1031" on="1"/>
        <pt x="627" y="1031" on="0"/>
        <pt x="552" y="801" on="1"/>
        <pt x="993" y="801" on="1"/>
        <pt x="953" y="641" on="1"/>
        <pt x="525" y="641" on="1"/>
        <pt x="525" y="607" on="1"/>
        <pt x="525" y="570" on="0"/>
        <pt x="528" y="537" on="1"/>
        <pt x="932" y="537" on="1"/>
        <pt x="892" y="377" on="1"/>
        <pt x="565" y="377" on="1"/>
        <pt x="649" y="176" on="0"/>
        <pt x="883" y="176" on="1"/>
        <pt x="928" y="176" on="0"/>
        <pt x="1026" y="202" on="0"/>
        <pt x="1052" y="214" on="1"/>
        <pt x="1079" y="227" on="1"/>
      </contour>
    </TTGlyph>
    <TTGlyph name="F" xMin="83" yMin="0" xMax="1156" yMax="1206">
      <contour>
        <pt x="938" y="737" on="1"/>
        <pt x="858" y="977" on="1"/>
        <pt x="515" y="977" on="1"/>
        <pt x="515" y="721" on="1"/>
        <pt x="822" y="721" on="1"/>
        <pt x="822" y="491" on="1"/>
        <pt x="515" y="491" on="1"/>
        <pt x="515" y="229" on="1"/>
        <pt x="776" y="229" on="1"/>
        <pt x="776" y="0" on="1"/>
        <pt x="84" y="0" on="1"/>
        <pt x="84" y="229" on="1"/>
        <pt x="251" y="229" on="1"/>
        <pt x="251" y="977" on="1"/>
        <pt x="83" y="977" on="1"/>
        <pt x="83" y="1206" on="1"/>
        <pt x="1023" y="1206" on="1"/>
        <pt x="1156" y="810" on="1"/>
      </contour>
    </TTGlyph>
    <TTGlyph name="G" xMin="61" yMin="-45" xMax="1176" yMax="1250">
      <contour>
        <pt x="645" y="424" on="1"/>
        <pt x="645" y="652" on="1"/>
        <pt x="1160" y="652" on="1"/>
        <pt x="1160" y="144" on="1"/>
        <pt x="1050" y="47" on="0"/>
        <pt x="838" y="-45" on="0"/>
        <pt x="687" y="-45" on="1"/>
        <pt x="585" y="-45" on="0"/>
        <pt x="404" y="0" on="0"/>
        <pt x="244" y="99" on="0"/>
        <pt x="128" y="247" on="0"/>
        <pt x="61" y="467" on="0"/>
        <pt x="61" y="602" on="1"/>
        <pt x="61" y="918" on="0"/>
        <pt x="384" y="1250" on="0"/>
        <pt x="656" y="1250" on="1"/>
        <pt x="736" y="1250" on="0"/>
        <pt x="887" y="1220" on="0"/>
        <pt x="990" y="1178" on="0"/>
        <pt x="1070" y="1135" on="0"/>
        <pt x="1089" y="1120" on="1"/>
        <pt x="1108" y="1105" on="1"/>
        <pt x="1176" y="810" on="1"/>
        <pt x="941" y="756" on="1"/>
        <pt x="891" y="968" on="1"/>
        <pt x="891" y="970" on="0"/>
        <pt x="843" y="999" on="0"/>
        <pt x="744" y="1030" on="0"/>
        <pt x="693" y="1030" on="1"/>
        <pt x="502" y="1030" on="0"/>
        <pt x="335" y="821" on="0"/>
        <pt x="335" y="602" on="1"/>
        <pt x="335" y="484" on="0"/>
        <pt x="385" y="318" on="0"/>
        <pt x="482" y="224" on="0"/>
        <pt x="606" y="183" on="0"/>
        <pt x="688" y="183" on="1"/>
        <pt x="756" y="183" on="0"/>
        <pt x="852" y="206" on="0"/>
        <pt x="907" y="232" on="1"/>
        <pt x="907" y="424" on="1"/>
      </contour>
    </TTGlyph>
    <TTGlyph name="H" xMin="84" yMin="0" xMax="1435" yMax="1206">
      <contour>
        <pt x="1004" y="494" on="1"/>
        <pt x="515" y="494" on="1"/>
        <pt x="515" y="229" on="1"/>
        <pt x="623" y="229" on="1"/>
        <pt x="623" y="0" on="1"/>
        <pt x="84" y="0" on="1"/>
        <pt x="84" y="229" on="1"/>
        <pt x="251" y="229" on="1"/>
        <pt x="251" y="977" on="1"/>
        <pt x="84" y="977" on="1"/>
        <pt x="84" y="1206" on="1"/>
        <pt x="627" y="1206" on="1"/>
        <pt x="626" y="1204" on="1"/>
        <pt x="627" y="1204" on="1"/>
        <pt x="627" y="977" on="1"/>
        <pt x="515" y="977" on="1"/>
        <pt x="515" y="722" on="1"/>
        <pt x="1004" y="722" on="1"/>
        <pt x="1004" y="977" on="1"/>
        <pt x="892" y="977" on="1"/>
        <pt x="892" y="1206" on="1"/>
        <pt x="1435" y="1206" on="1"/>
        <pt x="1435" y="977" on="1"/>
        <pt x="1268" y="977" on="1"/>
        <pt x="1268" y="229" on="1"/>
        <pt x="1435" y="229" on="1"/>
        <pt x="1435" y="0" on="1"/>
        <pt x="896" y="0" on="1"/>
        <pt x="896" y="229" on="1"/>
        <pt x="1004" y="229" on="1"/>
      </contour>
    </TTGlyph>
    <TTGlyph name="I" xMin="83" yMin="0" xMax="738" yMax="1206">
      <contour>
        <pt x="85" y="1206" on="1"/>
        <pt x="738" y="1206" on="1"/>
        <pt x="738" y="977" on="1"/>
        <pt x="544" y="977" on="1"/>
        <pt x="544" y="229" on="1"/>
        <pt x="738" y="229" on="1"/>
        <pt x="738" y="0" on="1"/>
        <pt x="83" y="0" on="1"/>
        <pt x="83" y="229" on="1"/>
        <pt x="280" y="229" on="1"/>
        <pt x="280" y="977" on="1"/>
        <pt x="85" y="977" on="1"/>
      </contour>
    </TTGlyph>
    <TTGlyph name="Iacute" xMin="83" yMin="0" xMax="738" yMax="1753">
      <component glyphName="I" x="0" y="0" flags="0x204"/>
      <component glyphName="acute" x="73" y="276" flags="0x4"/>
    </TTGlyph>
    <TTGlyph name="Icircumflex" xMin="44" yMin="0" xMax="768" yMax="1760">
      <component glyphName="I" x="0" y="0" flags="0x204"/>
      <component glyphName="circumflex" x="28" y="276" flags="0x4"/>
    </TTGlyph>
    <TTGlyph name="Idieresis" xMin="83" yMin="0" xMax="747" yMax="1672">
      <component glyphName="I" x="0" y="0" flags="0x204"/>
      <component glyphName="dieresis" x="5" y="276" flags="0x4"/>
    </TTGlyph>
    <TTGlyph name="Igrave" xMin="77" yMin="0" xMax="738" yMax="1753">
      <component glyphName="I" x="0" y="0" flags="0x204"/>
      <component glyphName="grave" x="-5" y="276" flags="0x4"/>
    </TTGlyph>
    <TTGlyph name="J" xMin="16" yMin="-45" xMax="962" yMax="1206">
      <contour>
        <pt x="279" y="977" on="1"/>
        <pt x="279" y="1206" on="1"/>
        <pt x="962" y="1206" on="1"/>
        <pt x="962" y="977" on="1"/>
        <pt x="793" y="977" on="1"/>
        <pt x="793" y="491" on="1"/>
        <pt x="793" y="314" on="0"/>
        <pt x="762" y="199" on="1"/>
        <pt x="738" y="116" on="0"/>
        <pt x="615" y="3" on="0"/>
        <pt x="460" y="-45" on="0"/>
        <pt x="368" y="-45" on="1"/>
        <pt x="318" y="-45" on="0"/>
        <pt x="221" y="-25" on="0"/>
        <pt x="159" y="1" on="0"/>
        <pt x="105" y="34" on="0"/>
        <pt x="85" y="49" on="0"/>
        <pt x="81" y="53" on="1"/>
        <pt x="16" y="353" on="1"/>
        <pt x="241" y="406" on="1"/>
        <pt x="285" y="196" on="1"/>
        <pt x="325" y="184" on="0"/>
        <pt x="362" y="184" on="1"/>
        <pt x="410" y="184" on="0"/>
        <pt x="494" y="224" on="0"/>
        <pt x="508" y="266" on="1"/>
        <pt x="529" y="325" on="0"/>
        <pt x="529" y="505" on="1"/>
        <pt x="529" y="977" on="1"/>
      </contour>
    </TTGlyph>
    <TTGlyph name="K" xMin="83" yMin="0" xMax="1357" yMax="1206">
      <contour>
        <pt x="733" y="229" on="1"/>
        <pt x="831" y="229" on="1"/>
        <pt x="635" y="487" on="1"/>
        <pt x="514" y="487" on="1"/>
        <pt x="514" y="229" on="1"/>
        <pt x="625" y="229" on="1"/>
        <pt x="625" y="0" on="1"/>
        <pt x="83" y="0" on="1"/>
        <pt x="83" y="229" on="1"/>
        <pt x="250" y="229" on="1"/>
        <pt x="250" y="977" on="1"/>
        <pt x="83" y="977" on="1"/>
        <pt x="83" y="1206" on="1"/>
        <pt x="624" y="1206" on="1"/>
        <pt x="624" y="977" on="1"/>
        <pt x="514" y="977" on="1"/>
        <pt x="514" y="708" on="1"/>
        <pt x="651" y="708" on="1"/>
        <pt x="847" y="977" on="1"/>
        <pt x="763" y="977" on="1"/>
        <pt x="763" y="1206" on="1"/>
        <pt x="1306" y="1206" on="1"/>
        <pt x="1306" y="977" on="1"/>
        <pt x="1114" y="977" on="1"/>
        <pt x="842" y="638" on="1"/>
        <pt x="1151" y="229" on="1"/>
        <pt x="1357" y="229" on="1"/>
        <pt x="1357" y="0" on="1"/>
        <pt x="733" y="0" on="1"/>
      </contour>
    </TTGlyph>
    <TTGlyph name="L" xMin="83" yMin="0" xMax="1118" yMax="1206">
      <contour>
        <pt x="83" y="0" on="1"/>
        <pt x="83" y="229" on="1"/>
        <pt x="267" y="229" on="1"/>
        <pt x="267" y="977" on="1"/>
        <pt x="83" y="977" on="1"/>
        <pt x="83" y="1206" on="1"/>
        <pt x="729" y="1206" on="1"/>
        <pt x="729" y="977" on="1"/>
        <pt x="531" y="977" on="1"/>
        <pt x="531" y="229" on="1"/>
        <pt x="830" y="229" on="1"/>
        <pt x="902" y="431" on="1"/>
        <pt x="1118" y="355" on="1"/>
        <pt x="995" y="0" on="1"/>
      </contour>
    </TTGlyph>
    <TTGlyph name="M" xMin="76" yMin="0" xMax="1697" yMax="1206">
      <contour>
        <pt x="811" y="145" on="1"/>
        <pt x="471" y="989" on="1"/>
        <pt x="471" y="229" on="1"/>
        <pt x="622" y="229" on="1"/>
        <pt x="622" y="0" on="1"/>
        <pt x="76" y="0" on="1"/>
        <pt x="76" y="229" on="1"/>
        <pt x="241" y="229" on="1"/>
        <pt x="241" y="977" on="1"/>
        <pt x="76" y="977" on="1"/>
        <pt x="76" y="1206" on="1"/>
        <pt x="650" y="1206" on="1"/>
        <pt x="896" y="505" on="1"/>
        <pt x="1113" y="1206" on="1"/>
        <pt x="1697" y="1206" on="1"/>
        <pt x="1697" y="977" on="1"/>
        <pt x="1531" y="977" on="1"/>
        <pt x="1531" y="229" on="1"/>
        <pt x="1697" y="229" on="1"/>
        <pt x="1697" y="0" on="1"/>
        <pt x="1136" y="0" on="1"/>
        <pt x="1136" y="229" on="1"/>
        <pt x="1267" y="229" on="1"/>
        <pt x="1267" y="987" on="1"/>
        <pt x="984" y="145" on="1"/>
      </contour>
    </TTGlyph>
    <TTGlyph name="N" xMin="76" yMin="0" xMax="1461" yMax="1206">
      <contour>
        <pt x="889" y="1206" on="1"/>
        <pt x="1461" y="1206" on="1"/>
        <pt x="1461" y="977" on="1"/>
        <pt x="1270" y="977" on="1"/>
        <pt x="1270" y="0" on="1"/>
        <pt x="969" y="0" on="1"/>
        <pt x="476" y="978" on="1"/>
        <pt x="476" y="229" on="1"/>
        <pt x="648" y="229" on="1"/>
        <pt x="648" y="0" on="1"/>
        <pt x="76" y="0" on="1"/>
        <pt x="76" y="229" on="1"/>
        <pt x="246" y="229" on="1"/>
        <pt x="246" y="977" on="1"/>
        <pt x="78" y="977" on="1"/>
        <pt x="78" y="1206" on="1"/>
        <pt x="634" y="1206" on="1"/>
        <pt x="1040" y="372" on="1"/>
        <pt x="1040" y="977" on="1"/>
        <pt x="889" y="977" on="1"/>
      </contour>
    </TTGlyph>
    <TTGlyph name="Ntilde" xMin="76" yMin="0" xMax="1461" yMax="1680">
      <component glyphName="N" x="0" y="0" flags="0x204"/>
      <component glyphName="tilde" x="301" y="276" flags="0x4"/>
    </TTGlyph>
    <TTGlyph name="O" xMin="61" yMin="-45" xMax="1283" yMax="1251">
      <contour>
        <pt x="672" y="-45" on="1"/>
        <pt x="538" y="-45" on="0"/>
        <pt x="314" y="40" on="0"/>
        <pt x="152" y="204" on="0"/>
        <pt x="61" y="446" on="0"/>
        <pt x="61" y="604" on="1"/>
        <pt x="61" y="761" on="0"/>
        <pt x="151" y="1003" on="0"/>
        <pt x="313" y="1167" on="0"/>
        <pt x="536" y="1251" on="0"/>
        <pt x="670" y="1251" on="1"/>
        <pt x="805" y="1251" on="0"/>
        <pt x="1030" y="1167" on="0"/>
        <pt x="1193" y="1003" on="0"/>
        <pt x="1283" y="761" on="0"/>
        <pt x="1283" y="604" on="1"/>
        <pt x="1283" y="451" on="0"/>
        <pt x="1196" y="209" on="0"/>
        <pt x="1036" y="43" on="0"/>
        <pt x="810" y="-45" on="0"/>
      </contour>
      <contour>
        <pt x="672" y="1030" on="1"/>
        <pt x="504" y="1030" on="0"/>
        <pt x="335" y="815" on="0"/>
        <pt x="335" y="604" on="1"/>
        <pt x="335" y="394" on="0"/>
        <pt x="503" y="177" on="0"/>
        <pt x="672" y="177" on="1"/>
        <pt x="840" y="177" on="0"/>
        <pt x="1009" y="393" on="0"/>
        <pt x="1009" y="604" on="1"/>
        <pt x="1009" y="816" on="0"/>
        <pt x="841" y="1030" on="0"/>
      </contour>
    </TTGlyph>
    <TTGlyph name="OE" xMin="61" yMin="0" xMax="1785" yMax="1206">
      <contour>
        <pt x="1569" y="431" on="1"/>
        <pt x="1785" y="355" on="1"/>
        <pt x="1662" y="0" on="1"/>
        <pt x="669" y="0" on="1"/>
        <pt x="530" y="0" on="0"/>
        <pt x="313" y="69" on="0"/>
        <pt x="149" y="213" on="0"/>
        <pt x="61" y="454" on="0"/>
        <pt x="61" y="617" on="1"/>
        <pt x="61" y="909" on="0"/>
        <pt x="386" y="1206" on="0"/>
        <pt x="670" y="1206" on="1"/>
        <pt x="1608" y="1206" on="1"/>
        <pt x="1735" y="826" on="1"/>
        <pt x="1517" y="752" on="1"/>
        <pt x="1443" y="976" on="1"/>
        <pt x="1102" y="976" on="1"/>
        <pt x="1102" y="723" on="1"/>
        <pt x="1435" y="723" on="1"/>
        <pt x="1435" y="497" on="1"/>
        <pt x="1100" y="497" on="1"/>
        <pt x="1100" y="229" on="1"/>
        <pt x="1497" y="229" on="1"/>
      </contour>
      <contour>
        <pt x="838" y="977" on="1"/>
        <pt x="676" y="977" on="1"/>
        <pt x="504" y="977" on="0"/>
        <pt x="335" y="811" on="0"/>
        <pt x="335" y="617" on="1"/>
        <pt x="335" y="229" on="0"/>
        <pt x="676" y="229" on="1"/>
        <pt x="838" y="229" on="1"/>
      </contour>
    </TTGlyph>
    <TTGlyph name="Oacute" xMin="61" yMin="-45" xMax="1283" yMax="1753">
      <component glyphName="O" x="0" y="0" flags="0x4"/>
      <component glyphName="acute" x="395" y="276" flags="0x4"/>
    </TTGlyph>
    <TTGlyph name="Ocircumflex" xMin="61" yMin="-45" xMax="1283" yMax="1760">
      <component glyphName="O" x="0" y="0" flags="0x4"/>
      <component glyphName="circumflex" x="310" y="276" flags="0x4"/>
    </TTGlyph>
    <TTGlyph name="Odieresis" xMin="61" yMin="-45" xMax="1283" yMax="1672">
      <component glyphName="O" x="0" y="0" flags="0x4"/>
      <component glyphName="dieresis" x="279" y="276" flags="0x4"/>
    </TTGlyph>
    <TTGlyph name="Ograve" xMin="61" yMin="-45" xMax="1283" yMax="1753">
      <component glyphName="O" x="0" y="0" flags="0x4"/>
      <component glyphName="grave" x="246" y="276" flags="0x4"/>
    </TTGlyph>
    <TTGlyph name="Oslash" xMin="61" yMin="-141" xMax="1283" yMax="1333">
      <contour>
        <pt x="672" y="-45" on="1"/>
        <pt x="596" y="-45" on="0"/>
        <pt x="518" y="-29" on="1"/>
        <pt x="467" y="-141" on="1"/>
        <pt x="251" y="-141" on="1"/>
        <pt x="335" y="41" on="1"/>
        <pt x="205" y="119" on="0"/>
        <pt x="61" y="406" on="0"/>
        <pt x="61" y="604" on="1"/>
        <pt x="61" y="759" on="0"/>
        <pt x="151" y="1005" on="0"/>
        <pt x="313" y="1166" on="0"/>
        <pt x="536" y="1251" on="0"/>
        <pt x="670" y="1251" on="1"/>
        <pt x="781" y="1251" on="0"/>
        <pt x="879" y="1222" on="1"/>
        <pt x="930" y="1333" on="1"/>
        <pt x="1145" y="1333" on="1"/>
        <pt x="1054" y="1135" on="1"/>
        <pt x="1164" y="1053" on="0"/>
        <pt x="1283" y="784" on="0"/>
        <pt x="1283" y="604" on="1"/>
        <pt x="1283" y="296" on="0"/>
        <pt x="949" y="-45" on="0"/>
      </contour>
      <contour>
        <pt x="672" y="1030" on="1"/>
        <pt x="505" y="1030" on="0"/>
        <pt x="335" y="814" on="0"/>
        <pt x="335" y="604" on="1"/>
        <pt x="335" y="370" on="0"/>
        <pt x="438" y="264" on="1"/>
        <pt x="783" y="1015" on="1"/>
        <pt x="734" y="1030" on="0"/>
      </contour>
      <contour>
        <pt x="1009" y="604" on="1"/>
        <pt x="1009" y="788" on="0"/>
        <pt x="943" y="895" on="1"/>
        <pt x="615" y="180" on="1"/>
        <pt x="642" y="177" on="0"/>
        <pt x="672" y="177" on="1"/>
        <pt x="839" y="177" on="0"/>
        <pt x="1009" y="394" on="0"/>
      </contour>
    </TTGlyph>
    <TTGlyph name="Otilde" xMin="61" yMin="-45" xMax="1283" yMax="1680">
      <component glyphName="O" x="0" y="0" flags="0x4"/>
      <component glyphName="tilde" x="216" y="276" flags="0x4"/>
    </TTGlyph>
    <TTGlyph name="P" xMin="84" yMin="0" xMax="1116" yMax="1206">
      <contour>
        <pt x="615" y="396" on="1"/>
        <pt x="513" y="396" on="1"/>
        <pt x="513" y="229" on="1"/>
        <pt x="737" y="229" on="1"/>
        <pt x="737" y="0" on="1"/>
        <pt x="84" y="0" on="1"/>
        <pt x="84" y="229" on="1"/>
        <pt x="249" y="229" on="1"/>
        <pt x="249" y="977" on="1"/>
        <pt x="84" y="977" on="1"/>
        <pt x="84" y="1206" on="1"/>
        <pt x="615" y="1206" on="1"/>
        <pt x="752" y="1206" on="0"/>
        <pt x="947" y="1154" on="0"/>
        <pt x="1063" y="1049" on="0"/>
        <pt x="1116" y="904" on="0"/>
        <pt x="1116" y="806" on="1"/>
        <pt x="1116" y="589" on="0"/>
        <pt x="884" y="396" on="0"/>
      </contour>
      <contour>
        <pt x="513" y="619" on="1"/>
        <pt x="613" y="619" on="1"/>
        <pt x="674" y="619" on="0"/>
        <pt x="750" y="631" on="0"/>
        <pt x="814" y="668" on="0"/>
        <pt x="842" y="742" on="0"/>
        <pt x="842" y="801" on="1"/>
        <pt x="842" y="906" on="0"/>
        <pt x="734" y="977" on="0"/>
        <pt x="613" y="977" on="1"/>
        <pt x="513" y="977" on="1"/>
      </contour>
    </TTGlyph>
    <TTGlyph name="Q" xMin="61" yMin="-201" xMax="1359" yMax="1251">
      <contour>
        <pt x="1193" y="-201" on="1"/>
        <pt x="945" y="8" on="1"/>
        <pt x="822" y="-45" on="0"/>
        <pt x="672" y="-45" on="1"/>
        <pt x="538" y="-45" on="0"/>
        <pt x="314" y="40" on="0"/>
        <pt x="152" y="204" on="0"/>
        <pt x="61" y="446" on="0"/>
        <pt x="61" y="604" on="1"/>
        <pt x="61" y="761" on="0"/>
        <pt x="151" y="1003" on="0"/>
        <pt x="313" y="1167" on="0"/>
        <pt x="536" y="1251" on="0"/>
        <pt x="670" y="1251" on="1"/>
        <pt x="805" y="1251" on="0"/>
        <pt x="1030" y="1167" on="0"/>
        <pt x="1193" y="1003" on="0"/>
        <pt x="1283" y="761" on="0"/>
        <pt x="1283" y="604" on="1"/>
        <pt x="1283" y="312" on="0"/>
        <pt x="1129" y="140" on="1"/>
        <pt x="1359" y="4" on="1"/>
      </contour>
      <contour>
        <pt x="672" y="1030" on="1"/>
        <pt x="504" y="1030" on="0"/>
        <pt x="335" y="815" on="0"/>
        <pt x="335" y="604" on="1"/>
        <pt x="335" y="394" on="0"/>
        <pt x="503" y="177" on="0"/>
        <pt x="672" y="177" on="1"/>
        <pt x="840" y="177" on="0"/>
        <pt x="1009" y="393" on="0"/>
        <pt x="1009" y="604" on="1"/>
        <pt x="1009" y="816" on="0"/>
        <pt x="841" y="1030" on="0"/>
      </contour>
    </TTGlyph>
    <TTGlyph name="R" xMin="84" yMin="0" xMax="1233" yMax="1206">
      <contour>
        <pt x="515" y="620" on="1"/>
        <pt x="613" y="620" on="1"/>
        <pt x="678" y="620" on="0"/>
        <pt x="766" y="638" on="0"/>
        <pt x="819" y="680" on="0"/>
        <pt x="842" y="748" on="0"/>
        <pt x="842" y="798" on="1"/>
        <pt x="842" y="849" on="0"/>
        <pt x="814" y="917" on="0"/>
        <pt x="758" y="959" on="0"/>
        <pt x="671" y="977" on="0"/>
        <pt x="613" y="977" on="1"/>
        <pt x="515" y="977" on="1"/>
      </contour>
      <contour>
        <pt x="655" y="393" on="1"/>
        <pt x="513" y="393" on="1"/>
        <pt x="513" y="229" on="1"/>
        <pt x="611" y="229" on="1"/>
        <pt x="611" y="0" on="1"/>
        <pt x="84" y="0" on="1"/>
        <pt x="84" y="229" on="1"/>
        <pt x="249" y="229" on="1"/>
        <pt x="249" y="977" on="1"/>
        <pt x="84" y="977" on="1"/>
        <pt x="84" y="1206" on="1"/>
        <pt x="625" y="1206" on="1"/>
        <pt x="767" y="1206" on="0"/>
        <pt x="963" y="1150" on="0"/>
        <pt x="1071" y="1038" on="0"/>
        <pt x="1116" y="896" on="0"/>
        <pt x="1116" y="799" on="1"/>
        <pt x="1116" y="525" on="0"/>
        <pt x="892" y="437" on="1"/>
        <pt x="1021" y="229" on="1"/>
        <pt x="1233" y="229" on="1"/>
        <pt x="1233" y="0" on="1"/>
        <pt x="867" y="0" on="1"/>
      </contour>
    </TTGlyph>
    <TTGlyph name="S" xMin="72" yMin="-45" xMax="1063" yMax="1251">
      <contour>
        <pt x="812" y="351" on="1"/>
        <pt x="812" y="396" on="0"/>
        <pt x="752" y="449" on="0"/>
        <pt x="667" y="463" on="1"/>
        <pt x="480" y="493" on="1"/>
        <pt x="281" y="525" on="0"/>
        <pt x="94" y="720" on="0"/>
        <pt x="94" y="882" on="1"/>
        <pt x="94" y="960" on="0"/>
        <pt x="147" y="1090" on="0"/>
        <pt x="255" y="1193" on="0"/>
        <pt x="436" y="1251" on="0"/>
        <pt x="556" y="1251" on="1"/>
        <pt x="695" y="1251" on="0"/>
        <pt x="925" y="1196" on="0"/>
        <pt x="970" y="1172" on="1"/>
        <pt x="1010" y="853" on="1"/>
        <pt x="780" y="829" on="1"/>
        <pt x="753" y="1013" on="1"/>
        <pt x="659" y="1033" on="0"/>
        <pt x="565" y="1033" on="1"/>
        <pt x="502" y="1033" on="0"/>
        <pt x="407" y="1013" on="0"/>
        <pt x="339" y="956" on="0"/>
        <pt x="339" y="911" on="1"/>
        <pt x="339" y="794" on="0"/>
        <pt x="545" y="761" on="1"/>
        <pt x="687" y="738" on="1"/>
        <pt x="887" y="706" on="0"/>
        <pt x="1063" y="520" on="0"/>
        <pt x="1063" y="363" on="1"/>
        <pt x="1063" y="293" on="0"/>
        <pt x="1030" y="175" on="0"/>
        <pt x="973" y="92" on="0"/>
        <pt x="893" y="28" on="0"/>
        <pt x="807" y="-11" on="0"/>
        <pt x="705" y="-36" on="0"/>
        <pt x="614" y="-45" on="0"/>
        <pt x="566" y="-45" on="1"/>
        <pt x="304" y="-45" on="0"/>
        <pt x="109" y="32" on="1"/>
        <pt x="72" y="323" on="1"/>
        <pt x="289" y="350" on="1"/>
        <pt x="306" y="218" on="1"/>
        <pt x="442" y="176" on="0"/>
        <pt x="540" y="176" on="1"/>
        <pt x="658" y="176" on="0"/>
        <pt x="812" y="260" on="0"/>
      </contour>
    </TTGlyph>
    <TTGlyph name="T" xMin="14" yMin="0" xMax="1117" yMax="1206">
      <contour>
        <pt x="1117" y="770" on="1"/>
        <pt x="887" y="770" on="1"/>
        <pt x="887" y="977" on="1"/>
        <pt x="697" y="977" on="1"/>
        <pt x="697" y="229" on="1"/>
        <pt x="864" y="229" on="1"/>
        <pt x="864" y="0" on="1"/>
        <pt x="263" y="0" on="1"/>
        <pt x="263" y="229" on="1"/>
        <pt x="432" y="229" on="1"/>
        <pt x="432" y="977" on="1"/>
        <pt x="243" y="977" on="1"/>
        <pt x="243" y="770" on="1"/>
        <pt x="14" y="770" on="1"/>
        <pt x="14" y="1206" on="1"/>
        <pt x="1117" y="1206" on="1"/>
      </contour>
    </TTGlyph>
    <TTGlyph name="Thorn" xMin="84" yMin="0" xMax="1116" yMax="1206">
      <contour>
        <pt x="615" y="346" on="1"/>
        <pt x="513" y="346" on="1"/>
        <pt x="513" y="229" on="1"/>
        <pt x="737" y="229" on="1"/>
        <pt x="737" y="0" on="1"/>
        <pt x="84" y="0" on="1"/>
        <pt x="84" y="229" on="1"/>
        <pt x="249" y="229" on="1"/>
        <pt x="249" y="977" on="1"/>
        <pt x="84" y="977" on="1"/>
        <pt x="84" y="1206" on="1"/>
        <pt x="514" y="1206" on="1"/>
        <pt x="514" y="1065" on="1"/>
        <pt x="615" y="1065" on="1"/>
        <pt x="797" y="1065" on="0"/>
        <pt x="1022" y="982" on="0"/>
        <pt x="1116" y="832" on="0"/>
        <pt x="1116" y="716" on="1"/>
        <pt x="1116" y="520" on="0"/>
        <pt x="884" y="346" on="0"/>
      </contour>
      <contour>
        <pt x="515" y="569" on="1"/>
        <pt x="613" y="569" on="1"/>
        <pt x="662" y="569" on="0"/>
        <pt x="727" y="574" on="0"/>
        <pt x="787" y="592" on="0"/>
        <pt x="822" y="622" on="0"/>
        <pt x="842" y="674" on="0"/>
        <pt x="842" y="711" on="1"/>
        <pt x="842" y="787" on="0"/>
        <pt x="734" y="837" on="0"/>
        <pt x="613" y="837" on="1"/>
        <pt x="515" y="837" on="1"/>
      </contour>
    </TTGlyph>
    <TTGlyph name="U" xMin="76" yMin="-45" xMax="1375" yMax="1206">
      <contour>
        <pt x="728" y="173" on="1"/>
        <pt x="852" y="173" on="0"/>
        <pt x="944" y="335" on="0"/>
        <pt x="944" y="501" on="1"/>
        <pt x="944" y="977" on="1"/>
        <pt x="831" y="977" on="1"/>
        <pt x="831" y="1206" on="1"/>
        <pt x="1375" y="1206" on="1"/>
        <pt x="1375" y="977" on="1"/>
        <pt x="1208" y="977" on="1"/>
        <pt x="1208" y="495" on="1"/>
        <pt x="1208" y="360" on="0"/>
        <pt x="1151" y="160" on="0"/>
        <pt x="1063" y="45" on="0"/>
        <pt x="931" y="-23" on="0"/>
        <pt x="806" y="-45" on="0"/>
        <pt x="728" y="-45" on="1"/>
        <pt x="675" y="-45" on="0"/>
        <pt x="585" y="-35" on="0"/>
        <pt x="483" y="-5" on="0"/>
        <pt x="402" y="45" on="0"/>
        <pt x="325" y="128" on="0"/>
        <pt x="274" y="238" on="0"/>
        <pt x="243" y="397" on="0"/>
        <pt x="243" y="495" on="1"/>
        <pt x="243" y="977" on="1"/>
        <pt x="76" y="977" on="1"/>
        <pt x="76" y="1206" on="1"/>
        <pt x="620" y="1206" on="1"/>
        <pt x="620" y="977" on="1"/>
        <pt x="507" y="977" on="1"/>
        <pt x="507" y="481" on="1"/>
        <pt x="507" y="325" on="0"/>
        <pt x="611" y="173" on="0"/>
      </contour>
    </TTGlyph>
    <TTGlyph name="Uacute" xMin="84" yMin="-45" xMax="1383" yMax="1753">
      <component glyphName="U" x="8" y="0" flags="0x4"/>
      <component glyphName="acute" x="422" y="276" flags="0x4"/>
    </TTGlyph>
    <TTGlyph name="Ucircumflex" xMin="84" yMin="-45" xMax="1383" yMax="1760">
      <component glyphName="U" x="8" y="0" flags="0x4"/>
      <component glyphName="circumflex" x="357" y="276" flags="0x4"/>
    </TTGlyph>
    <TTGlyph name="Udieresis" xMin="84" yMin="-45" xMax="1383" yMax="1672">
      <component glyphName="U" x="8" y="0" flags="0x4"/>
      <component glyphName="dieresis" x="326" y="276" flags="0x4"/>
    </TTGlyph>
    <TTGlyph name="Ugrave" xMin="84" yMin="-45" xMax="1383" yMax="1753">
      <component glyphName="U" x="8" y="0" flags="0x4"/>
      <component glyphName="grave" x="343" y="276" flags="0x4"/>
    </TTGlyph>
    <TTGlyph name="V" xMin="10" yMin="0" xMax="1353" yMax="1206">
      <contour>
        <pt x="10" y="977" on="1"/>
        <pt x="10" y="1206" on="1"/>
        <pt x="584" y="1206" on="1"/>
        <pt x="584" y="977" on="1"/>
        <pt x="476" y="977" on="1"/>
        <pt x="634" y="525" on="1"/>
        <pt x="707" y="267" on="1"/>
        <pt x="780" y="526" on="1"/>
        <pt x="927" y="977" on="1"/>
        <pt x="809" y="977" on="1"/>
        <pt x="809" y="1206" on="1"/>
        <pt x="1353" y="1206" on="1"/>
        <pt x="1353" y="977" on="1"/>
        <pt x="1215" y="977" on="1"/>
        <pt x="840" y="0" on="1"/>
        <pt x="569" y="0" on="1"/>
        <pt x="167" y="977" on="1"/>
      </contour>
    </TTGlyph>
    <TTGlyph name="W" xMin="14" yMin="0" xMax="1912" yMax="1206">
      <contour>
        <pt x="14" y="977" on="1"/>
        <pt x="14" y="1206" on="1"/>
        <pt x="588" y="1206" on="1"/>
        <pt x="588" y="977" on="1"/>
        <pt x="482" y="977" on="1"/>
        <pt x="587" y="526" on="1"/>
        <pt x="640" y="267" on="1"/>
        <pt x="688" y="526" on="1"/>
        <pt x="829" y="1055" on="1"/>
        <pt x="1157" y="1055" on="1"/>
        <pt x="1300" y="526" on="1"/>
        <pt x="1347" y="267" on="1"/>
        <pt x="1391" y="526" on="1"/>
        <pt x="1495" y="977" on="1"/>
        <pt x="1367" y="977" on="1"/>
        <pt x="1367" y="1206" on="1"/>
        <pt x="1912" y="1206" on="1"/>
        <pt x="1912" y="977" on="1"/>
        <pt x="1783" y="977" on="1"/>
        <pt x="1472" y="0" on="1"/>
        <pt x="1164" y="0" on="1"/>
        <pt x="995" y="796" on="1"/>
        <pt x="796" y="0" on="1"/>
        <pt x="488" y="0" on="1"/>
        <pt x="181" y="977" on="1"/>
      </contour>
    </TTGlyph>
    <TTGlyph name="X" xMin="10" yMin="0" xMax="1358" yMax="1206">
      <contour>
        <pt x="31" y="977" on="1"/>
        <pt x="31" y="1206" on="1"/>
        <pt x="594" y="1206" on="1"/>
        <pt x="594" y="977" on="1"/>
        <pt x="483" y="977" on="1"/>
        <pt x="672" y="749" on="1"/>
        <pt x="873" y="977" on="1"/>
        <pt x="772" y="977" on="1"/>
        <pt x="772" y="1206" on="1"/>
        <pt x="1320" y="1206" on="1"/>
        <pt x="1320" y="977" on="1"/>
        <pt x="1137" y="977" on="1"/>
        <pt x="829" y="591" on="1"/>
        <pt x="1130" y="225" on="1"/>
        <pt x="1358" y="225" on="1"/>
        <pt x="1358" y="0" on="1"/>
        <pt x="745" y="0" on="1"/>
        <pt x="745" y="225" on="1"/>
        <pt x="855" y="225" on="1"/>
        <pt x="681" y="432" on="1"/>
        <pt x="497" y="225" on="1"/>
        <pt x="581" y="225" on="1"/>
        <pt x="581" y="0" on="1"/>
        <pt x="10" y="0" on="1"/>
        <pt x="10" y="226" on="1"/>
        <pt x="224" y="226" on="1"/>
        <pt x="525" y="591" on="1"/>
        <pt x="201" y="977" on="1"/>
      </contour>
    </TTGlyph>
    <TTGlyph name="Y" xMin="-14" yMin="0" xMax="1323" yMax="1206">
      <contour>
        <pt x="-14" y="977" on="1"/>
        <pt x="-14" y="1206" on="1"/>
        <pt x="568" y="1206" on="1"/>
        <pt x="568" y="977" on="1"/>
        <pt x="448" y="977" on="1"/>
        <pt x="672" y="668" on="1"/>
        <pt x="888" y="977" on="1"/>
        <pt x="780" y="977" on="1"/>
        <pt x="780" y="1206" on="1"/>
        <pt x="1323" y="1206" on="1"/>
        <pt x="1323" y="977" on="1"/>
        <pt x="1155" y="977" on="1"/>
        <pt x="796" y="474" on="1"/>
        <pt x="796" y="227" on="1"/>
        <pt x="988" y="227" on="1"/>
        <pt x="988" y="0" on="1"/>
        <pt x="341" y="0" on="1"/>
        <pt x="341" y="227" on="1"/>
        <pt x="536" y="227" on="1"/>
        <pt x="536" y="474" on="1"/>
        <pt x="143" y="977" on="1"/>
      </contour>
    </TTGlyph>
    <TTGlyph name="Yacute" xMin="12" yMin="0" xMax="1349" yMax="1753">
      <component glyphName="Y" x="26" y="0" flags="0x4"/>
      <component glyphName="acute" x="412" y="276" flags="0x4"/>
    </TTGlyph>
    <TTGlyph name="Z" xMin="20" yMin="0" xMax="1055" yMax="1206">
      <contour>
        <pt x="249" y="801" on="1"/>
        <pt x="20" y="833" on="1"/>
        <pt x="83" y="1206" on="1"/>
        <pt x="995" y="1206" on="1"/>
        <pt x="995" y="1043" on="1"/>
        <pt x="384" y="229" on="1"/>
        <pt x="766" y="229" on="1"/>
        <pt x="836" y="420" on="1"/>
        <pt x="1055" y="346" on="1"/>
        <pt x="936" y="0" on="1"/>
        <pt x="34" y="0" on="1"/>
        <pt x="34" y="182" on="1"/>
        <pt x="634" y="977" on="1"/>
        <pt x="285" y="977" on="1"/>
      </contour>
    </TTGlyph>
    <TTGlyph name="a" xMin="55" yMin="-54" xMax="1085" yMax="971">
      <contour>
        <pt x="466" y="148" on="1"/>
        <pt x="573" y="148" on="0"/>
        <pt x="660" y="201" on="1"/>
        <pt x="660" y="366" on="1"/>
        <pt x="450" y="366" on="1"/>
        <pt x="382" y="366" on="0"/>
        <pt x="319" y="325" on="0"/>
        <pt x="319" y="265" on="1"/>
        <pt x="319" y="207" on="0"/>
        <pt x="396" y="148" on="0"/>
      </contour>
      <contour>
        <pt x="322" y="744" on="1"/>
        <pt x="313" y="655" on="1"/>
        <pt x="94" y="682" on="1"/>
        <pt x="133" y="911" on="1"/>
        <pt x="296" y="971" on="0"/>
        <pt x="476" y="971" on="1"/>
        <pt x="567" y="971" on="0"/>
        <pt x="709" y="942" on="0"/>
        <pt x="802" y="901" on="0"/>
        <pt x="866" y="826" on="0"/>
        <pt x="899" y="764" on="0"/>
        <pt x="916" y="662" on="0"/>
        <pt x="919" y="600" on="0"/>
        <pt x="919" y="546" on="1"/>
        <pt x="919" y="212" on="1"/>
        <pt x="1085" y="159" on="1"/>
        <pt x="1014" y="-54" on="1"/>
        <pt x="754" y="34" on="1"/>
        <pt x="613" y="-40" on="0"/>
        <pt x="458" y="-40" on="1"/>
        <pt x="269" y="-40" on="0"/>
        <pt x="55" y="114" on="0"/>
        <pt x="55" y="252" on="1"/>
        <pt x="55" y="545" on="0"/>
        <pt x="445" y="545" on="1"/>
        <pt x="660" y="545" on="1"/>
        <pt x="660" y="593" on="0"/>
        <pt x="655" y="649" on="0"/>
        <pt x="636" y="713" on="0"/>
        <pt x="597" y="746" on="0"/>
        <pt x="527" y="769" on="0"/>
        <pt x="476" y="769" on="1"/>
        <pt x="393" y="769" on="0"/>
      </contour>
    </TTGlyph>
    <TTGlyph name="aacute" xMin="52" yMin="-54" xMax="1082" yMax="1477">
      <component glyphName="a" x="-3" y="0" flags="0x4"/>
      <component glyphName="acute" x="177" y="0" flags="0x4"/>
    </TTGlyph>
    <TTGlyph name="acircumflex" xMin="52" yMin="-54" xMax="1082" yMax="1484">
      <component glyphName="a" x="-3" y="0" flags="0x4"/>
      <component glyphName="circumflex" x="122" y="0" flags="0x4"/>
    </TTGlyph>
    <TTGlyph name="acute" xMin="82" yMin="1040" xMax="634" yMax="1477">
      <contour>
        <pt x="151" y="1040" on="1"/>
        <pt x="82" y="1148" on="1"/>
        <pt x="518" y="1477" on="1"/>
        <pt x="634" y="1257" on="1"/>
      </contour>
    </TTGlyph>
    <TTGlyph name="adieresis" xMin="52" yMin="-54" xMax="1082" yMax="1396">
      <component glyphName="a" x="-3" y="0" flags="0x4"/>
      <component glyphName="dieresis" x="71" y="0" flags="0x4"/>
    </TTGlyph>
    <TTGlyph name="ae" xMin="51" yMin="-46" xMax="1580" yMax="949">
      <contour>
        <pt x="324" y="707" on="1"/>
        <pt x="321" y="694" on="0"/>
        <pt x="309" y="621" on="0"/>
        <pt x="307" y="608" on="1"/>
        <pt x="88" y="649" on="1"/>
        <pt x="127" y="879" on="1"/>
        <pt x="300" y="949" on="0"/>
        <pt x="460" y="949" on="1"/>
        <pt x="610" y="949" on="0"/>
        <pt x="778" y="856" on="0"/>
        <pt x="818" y="772" on="1"/>
        <pt x="884" y="858" on="0"/>
        <pt x="1054" y="949" on="0"/>
        <pt x="1146" y="949" on="1"/>
        <pt x="1354" y="949" on="0"/>
        <pt x="1580" y="715" on="0"/>
        <pt x="1580" y="487" on="1"/>
        <pt x="1580" y="474" on="0"/>
        <pt x="1572" y="373" on="0"/>
        <pt x="1567" y="359" on="1"/>
        <pt x="921" y="359" on="1"/>
        <pt x="938" y="263" on="0"/>
        <pt x="1054" y="160" on="0"/>
        <pt x="1148" y="160" on="1"/>
        <pt x="1320" y="160" on="0"/>
        <pt x="1447" y="253" on="1"/>
        <pt x="1559" y="110" on="1"/>
        <pt x="1556" y="105" on="0"/>
        <pt x="1527" y="76" on="0"/>
        <pt x="1455" y="27" on="0"/>
        <pt x="1365" y="-15" on="0"/>
        <pt x="1224" y="-46" on="0"/>
        <pt x="1146" y="-46" on="1"/>
        <pt x="937" y="-46" on="0"/>
        <pt x="806" y="65" on="1"/>
        <pt x="745" y="20" on="0"/>
        <pt x="542" y="-46" on="0"/>
        <pt x="454" y="-46" on="1"/>
        <pt x="266" y="-46" on="0"/>
        <pt x="51" y="114" on="0"/>
        <pt x="51" y="252" on="1"/>
        <pt x="51" y="361" on="0"/>
        <pt x="158" y="504" on="0"/>
        <pt x="327" y="563" on="0"/>
        <pt x="441" y="563" on="1"/>
        <pt x="676" y="563" on="1"/>
        <pt x="676" y="598" on="0"/>
        <pt x="664" y="645" on="0"/>
        <pt x="625" y="694" on="0"/>
        <pt x="539" y="718" on="0"/>
        <pt x="472" y="718" on="1"/>
        <pt x="404" y="718" on="0"/>
      </contour>
      <contour>
        <pt x="462" y="161" on="1"/>
        <pt x="522" y="161" on="0"/>
        <pt x="670" y="206" on="0"/>
        <pt x="706" y="228" on="1"/>
        <pt x="678" y="310" on="0"/>
        <pt x="676" y="354" on="1"/>
        <pt x="446" y="354" on="1"/>
        <pt x="389" y="354" on="0"/>
        <pt x="315" y="308" on="0"/>
        <pt x="315" y="255" on="1"/>
        <pt x="315" y="209" on="0"/>
        <pt x="399" y="161" on="0"/>
      </contour>
      <contour>
        <pt x="1148" y="738" on="1"/>
        <pt x="1063" y="738" on="0"/>
        <pt x="948" y="650" on="0"/>
        <pt x="927" y="567" on="1"/>
        <pt x="1346" y="567" on="1"/>
        <pt x="1346" y="644" on="0"/>
        <pt x="1250" y="738" on="0"/>
      </contour>
    </TTGlyph>
    <TTGlyph name="agrave" xMin="52" yMin="-54" xMax="1082" yMax="1477">
      <component glyphName="a" x="-3" y="0" flags="0x4"/>
      <component glyphName="grave" x="68" y="0" flags="0x4"/>
    </TTGlyph>
    <TTGlyph name="ampersand" xMin="43" yMin="-100" xMax="1397" yMax="1287">
      <contour>
        <pt x="1298" y="907" on="1"/>
        <pt x="1368" y="691" on="1"/>
        <pt x="1200" y="635" on="1"/>
        <pt x="1142" y="427" on="0"/>
        <pt x="1090" y="316" on="1"/>
        <pt x="1397" y="101" on="1"/>
        <pt x="1277" y="-100" on="1"/>
        <pt x="968" y="119" on="1"/>
        <pt x="888" y="20" on="0"/>
        <pt x="671" y="-81" on="0"/>
        <pt x="511" y="-81" on="1"/>
        <pt x="436" y="-81" on="0"/>
        <pt x="306" y="-56" on="0"/>
        <pt x="183" y="4" on="0"/>
        <pt x="95" y="96" on="0"/>
        <pt x="43" y="242" on="0"/>
        <pt x="43" y="334" on="1"/>
        <pt x="43" y="398" on="0"/>
        <pt x="73" y="506" on="0"/>
        <pt x="120" y="583" on="0"/>
        <pt x="198" y="657" on="0"/>
        <pt x="269" y="707" on="0"/>
        <pt x="322" y="738" on="1"/>
        <pt x="227" y="880" on="0"/>
        <pt x="227" y="991" on="1"/>
        <pt x="227" y="1062" on="0"/>
        <pt x="268" y="1171" on="0"/>
        <pt x="331" y="1234" on="0"/>
        <pt x="417" y="1274" on="0"/>
        <pt x="496" y="1287" on="0"/>
        <pt x="539" y="1287" on="1"/>
        <pt x="675" y="1287" on="0"/>
        <pt x="851" y="1147" on="0"/>
        <pt x="851" y="1014" on="1"/>
        <pt x="851" y="913" on="0"/>
        <pt x="747" y="766" on="0"/>
        <pt x="652" y="698" on="1"/>
        <pt x="748" y="592" on="0"/>
        <pt x="906" y="461" on="1"/>
        <pt x="949" y="576" on="0"/>
        <pt x="1000" y="811" on="1"/>
      </contour>
      <contour>
        <pt x="793" y="254" on="1"/>
        <pt x="596" y="413" on="0"/>
        <pt x="457" y="565" on="1"/>
        <pt x="383" y="510" on="0"/>
        <pt x="302" y="401" on="0"/>
        <pt x="302" y="334" on="1"/>
        <pt x="302" y="231" on="0"/>
        <pt x="435" y="120" on="0"/>
        <pt x="526" y="120" on="1"/>
        <pt x="619" y="120" on="0"/>
        <pt x="732" y="186" on="0"/>
      </contour>
      <contour>
        <pt x="517" y="826" on="1"/>
        <pt x="549" y="849" on="0"/>
        <pt x="583" y="879" on="0"/>
        <pt x="631" y="929" on="0"/>
        <pt x="654" y="984" on="0"/>
        <pt x="654" y="1015" on="1"/>
        <pt x="654" y="1064" on="0"/>
        <pt x="598" y="1121" on="0"/>
        <pt x="548" y="1121" on="1"/>
        <pt x="499" y="1121" on="0"/>
        <pt x="450" y="1053" on="0"/>
        <pt x="450" y="997" on="1"/>
        <pt x="450" y="959" on="0"/>
        <pt x="481" y="886" on="0"/>
      </contour>
    </TTGlyph>
    <TTGlyph name="aring" xMin="52" yMin="-54" xMax="1082" yMax="1472">
      <component glyphName="a" x="-3" y="0" flags="0x4"/>
      <component glyphName="ring" x="203" y="0" flags="0x4"/>
    </TTGlyph>
    <TTGlyph name="asciitilde" xMin="113" yMin="304" xMax="955" yMax="618">
      <contour>
        <pt x="403" y="618" on="1"/>
        <pt x="456" y="618" on="0"/>
        <pt x="671" y="517" on="0"/>
        <pt x="697" y="517" on="1"/>
        <pt x="752" y="517" on="0"/>
        <pt x="833" y="609" on="1"/>
        <pt x="955" y="487" on="1"/>
        <pt x="865" y="388" on="0"/>
        <pt x="748" y="305" on="0"/>
        <pt x="680" y="305" on="1"/>
        <pt x="651" y="305" on="0"/>
        <pt x="454" y="401" on="0"/>
        <pt x="411" y="401" on="1"/>
        <pt x="383" y="401" on="0"/>
        <pt x="314" y="356" on="0"/>
        <pt x="256" y="304" on="1"/>
        <pt x="113" y="437" on="1"/>
        <pt x="147" y="476" on="0"/>
        <pt x="201" y="529" on="0"/>
        <pt x="277" y="588" on="0"/>
        <pt x="359" y="618" on="0"/>
      </contour>
    </TTGlyph>
    <TTGlyph name="asterisk" xMin="43" yMin="516" xMax="918" yMax="1349">
      <contour>
        <pt x="599" y="1349" on="1"/>
        <pt x="557" y="1044" on="1"/>
        <pt x="836" y="1183" on="1"/>
        <pt x="918" y="944" on="1"/>
        <pt x="616" y="889" on="1"/>
        <pt x="820" y="668" on="1"/>
        <pt x="618" y="516" on="1"/>
        <pt x="475" y="774" on="1"/>
        <pt x="332" y="517" on="1"/>
        <pt x="124" y="662" on="1"/>
        <pt x="342" y="891" on="1"/>
        <pt x="43" y="941" on="1"/>
        <pt x="117" y="1183" on="1"/>
        <pt x="392" y="1044" on="1"/>
        <pt x="347" y="1349" on="1"/>
      </contour>
    </TTGlyph>
    <TTGlyph name="at" xMin="51" yMin="-279" xMax="1466" yMax="1144">
      <contour>
        <pt x="635" y="410" on="1"/>
        <pt x="635" y="312" on="0"/>
        <pt x="714" y="220" on="0"/>
        <pt x="782" y="220" on="1"/>
        <pt x="837" y="220" on="0"/>
        <pt x="878" y="240" on="1"/>
        <pt x="878" y="614" on="1"/>
        <pt x="846" y="625" on="0"/>
        <pt x="805" y="625" on="1"/>
        <pt x="727" y="625" on="0"/>
        <pt x="635" y="521" on="0"/>
      </contour>
      <contour>
        <pt x="1122" y="41" on="1"/>
        <pt x="1057" y="41" on="0"/>
        <pt x="976" y="82" on="0"/>
        <pt x="935" y="120" on="1"/>
        <pt x="851" y="52" on="0"/>
        <pt x="759" y="52" on="1"/>
        <pt x="603" y="52" on="0"/>
        <pt x="428" y="228" on="0"/>
        <pt x="428" y="412" on="1"/>
        <pt x="428" y="492" on="0"/>
        <pt x="475" y="625" on="0"/>
        <pt x="550" y="712" on="0"/>
        <pt x="648" y="772" on="0"/>
        <pt x="748" y="798" on="0"/>
        <pt x="798" y="798" on="1"/>
        <pt x="870" y="798" on="0"/>
        <pt x="1016" y="743" on="0"/>
        <pt x="1069" y="702" on="1"/>
        <pt x="1069" y="220" on="1"/>
        <pt x="1093" y="202" on="0"/>
        <pt x="1115" y="202" on="1"/>
        <pt x="1161" y="202" on="0"/>
        <pt x="1229" y="336" on="0"/>
        <pt x="1229" y="461" on="1"/>
        <pt x="1229" y="707" on="0"/>
        <pt x="1006" y="937" on="0"/>
        <pt x="775" y="937" on="1"/>
        <pt x="570" y="937" on="0"/>
        <pt x="299" y="659" on="0"/>
        <pt x="299" y="436" on="1"/>
        <pt x="299" y="304" on="0"/>
        <pt x="380" y="101" on="0"/>
        <pt x="516" y="-15" on="0"/>
        <pt x="675" y="-72" on="0"/>
        <pt x="763" y="-72" on="1"/>
        <pt x="870" y="-72" on="0"/>
        <pt x="978" y="-22" on="1"/>
        <pt x="1088" y="-175" on="1"/>
        <pt x="1084" y="-179" on="0"/>
        <pt x="1067" y="-193" on="0"/>
        <pt x="1006" y="-229" on="0"/>
        <pt x="936" y="-257" on="0"/>
        <pt x="821" y="-279" on="0"/>
        <pt x="759" y="-279" on="1"/>
        <pt x="589" y="-279" on="0"/>
        <pt x="317" y="-167" on="0"/>
        <pt x="143" y="28" on="0"/>
        <pt x="51" y="286" on="0"/>
        <pt x="51" y="436" on="1"/>
        <pt x="51" y="533" on="0"/>
        <pt x="104" y="728" on="0"/>
        <pt x="220" y="914" on="0"/>
        <pt x="386" y="1057" on="0"/>
        <pt x="630" y="1144" on="0"/>
        <pt x="775" y="1144" on="1"/>
        <pt x="988" y="1144" on="0"/>
        <pt x="1305" y="963" on="0"/>
        <pt x="1466" y="657" on="0"/>
        <pt x="1466" y="463" on="1"/>
        <pt x="1466" y="360" on="0"/>
        <pt x="1407" y="194" on="0"/>
        <pt x="1309" y="94" on="0"/>
        <pt x="1188" y="41" on="0"/>
      </contour>
    </TTGlyph>
    <TTGlyph name="atilde" xMin="52" yMin="-54" xMax="1082" yMax="1404">
      <component glyphName="a" x="-3" y="0" flags="0x4"/>
      <component glyphName="tilde" x="0" y="0" flags="0x4"/>
    </TTGlyph>
    <TTGlyph name="b" xMin="-39" yMin="-40" xMax="1099" yMax="1392">
      <contour>
        <pt x="601" y="165" on="1"/>
        <pt x="714" y="165" on="0"/>
        <pt x="835" y="330" on="0"/>
        <pt x="835" y="468" on="1"/>
        <pt x="835" y="605" on="0"/>
        <pt x="738" y="759" on="0"/>
        <pt x="641" y="759" on="1"/>
        <pt x="583" y="759" on="0"/>
        <pt x="458" y="715" on="0"/>
        <pt x="428" y="687" on="1"/>
        <pt x="428" y="192" on="1"/>
        <pt x="485" y="165" on="0"/>
      </contour>
      <contour>
        <pt x="428" y="1259" on="1"/>
        <pt x="428" y="912" on="1"/>
        <pt x="469" y="939" on="0"/>
        <pt x="589" y="970" on="0"/>
        <pt x="643" y="970" on="1"/>
        <pt x="858" y="970" on="0"/>
        <pt x="1099" y="714" on="0"/>
        <pt x="1099" y="468" on="1"/>
        <pt x="1099" y="230" on="0"/>
        <pt x="827" y="-40" on="0"/>
        <pt x="603" y="-40" on="1"/>
        <pt x="526" y="-40" on="0"/>
        <pt x="382" y="-14" on="0"/>
        <pt x="288" y="20" on="0"/>
        <pt x="209" y="62" on="0"/>
        <pt x="175" y="87" on="0"/>
        <pt x="167" y="95" on="1"/>
        <pt x="167" y="1099" on="1"/>
        <pt x="-39" y="1172" on="1"/>
        <pt x="35" y="1392" on="1"/>
      </contour>
    </TTGlyph>
    <TTGlyph name="backslash" xMin="-31" yMin="-267" xMax="905" yMax="1206">
      <contour>
        <pt x="643" y="-267" on="1"/>
        <pt x="-31" y="1206" on="1"/>
        <pt x="228" y="1206" on="1"/>
        <pt x="905" y="-267" on="1"/>
      </contour>
    </TTGlyph>
    <TTGlyph name="bar" xMin="106" yMin="-462" xMax="351" yMax="1338">
      <contour>
        <pt x="106" y="-462" on="1"/>
        <pt x="106" y="1338" on="1"/>
        <pt x="351" y="1338" on="1"/>
        <pt x="351" y="-462" on="1"/>
      </contour>
    </TTGlyph>
    <TTGlyph name="braceleft" xMin="31" yMin="-293" xMax="594" yMax="1336">
      <contour>
        <pt x="31" y="423" on="1"/>
        <pt x="31" y="620" on="1"/>
        <pt x="130" y="620" on="1"/>
        <pt x="161" y="620" on="0"/>
        <pt x="185" y="699" on="0"/>
        <pt x="185" y="781" on="1"/>
        <pt x="185" y="941" on="1"/>
        <pt x="185" y="1310" on="0"/>
        <pt x="564" y="1336" on="1"/>
        <pt x="594" y="1113" on="1"/>
        <pt x="482" y="1100" on="0"/>
        <pt x="408" y="1011" on="0"/>
        <pt x="408" y="908" on="1"/>
        <pt x="408" y="700" on="1"/>
        <pt x="408" y="574" on="0"/>
        <pt x="275" y="522" on="1"/>
        <pt x="408" y="468" on="0"/>
        <pt x="408" y="343" on="1"/>
        <pt x="408" y="135" on="1"/>
        <pt x="408" y="32" on="0"/>
        <pt x="482" y="-57" on="0"/>
        <pt x="594" y="-70" on="1"/>
        <pt x="564" y="-293" on="1"/>
        <pt x="185" y="-267" on="0"/>
        <pt x="185" y="102" on="1"/>
        <pt x="185" y="262" on="1"/>
        <pt x="185" y="361" on="0"/>
        <pt x="161" y="423" on="0"/>
        <pt x="130" y="423" on="1"/>
      </contour>
    </TTGlyph>
    <TTGlyph name="braceright" xMin="39" yMin="-293" xMax="602" yMax="1336">
      <contour>
        <pt x="602" y="620" on="1"/>
        <pt x="602" y="423" on="1"/>
        <pt x="503" y="423" on="1"/>
        <pt x="472" y="423" on="0"/>
        <pt x="448" y="361" on="0"/>
        <pt x="448" y="262" on="1"/>
        <pt x="448" y="102" on="1"/>
        <pt x="448" y="-267" on="0"/>
        <pt x="69" y="-293" on="1"/>
        <pt x="39" y="-70" on="1"/>
        <pt x="151" y="-57" on="0"/>
        <pt x="225" y="32" on="0"/>
        <pt x="225" y="135" on="1"/>
        <pt x="225" y="343" on="1"/>
        <pt x="225" y="468" on="0"/>
        <pt x="358" y="522" on="1"/>
        <pt x="225" y="574" on="0"/>
        <pt x="225" y="700" on="1"/>
        <pt x="225" y="908" on="1"/>
        <pt x="225" y="1011" on="0"/>
        <pt x="151" y="1100" on="0"/>
        <pt x="39" y="1113" on="1"/>
        <pt x="69" y="1336" on="1"/>
        <pt x="448" y="1310" on="0"/>
        <pt x="448" y="941" on="1"/>
        <pt x="448" y="781" on="1"/>
        <pt x="448" y="699" on="0"/>
        <pt x="472" y="620" on="0"/>
        <pt x="503" y="620" on="1"/>
      </contour>
    </TTGlyph>
    <TTGlyph name="bracketleft" xMin="49" yMin="-284" xMax="464" yMax="1365">
      <contour>
        <pt x="293" y="1156" on="1"/>
        <pt x="293" y="-75" on="1"/>
        <pt x="464" y="-75" on="1"/>
        <pt x="464" y="-284" on="1"/>
        <pt x="49" y="-284" on="1"/>
        <pt x="49" y="1365" on="1"/>
        <pt x="464" y="1365" on="1"/>
        <pt x="464" y="1156" on="1"/>
      </contour>
    </TTGlyph>
    <TTGlyph name="bracketright" xMin="31" yMin="-284" xMax="446" yMax="1365">
      <contour>
        <pt x="202" y="-75" on="1"/>
        <pt x="202" y="1156" on="1"/>
        <pt x="31" y="1156" on="1"/>
        <pt x="31" y="1365" on="1"/>
        <pt x="446" y="1365" on="1"/>
        <pt x="446" y="-284" on="1"/>
        <pt x="31" y="-284" on="1"/>
        <pt x="31" y="-75" on="1"/>
      </contour>
    </TTGlyph>
    <TTGlyph name="brokenbar" xMin="115" yMin="-458" xMax="359" yMax="1387">
      <contour>
        <pt x="115" y="594" on="1"/>
        <pt x="115" y="1387" on="1"/>
        <pt x="359" y="1387" on="1"/>
        <pt x="359" y="594" on="1"/>
      </contour>
      <contour>
        <pt x="115" y="-458" on="1"/>
        <pt x="115" y="315" on="1"/>
        <pt x="359" y="315" on="1"/>
        <pt x="359" y="-458" on="1"/>
      </contour>
    </TTGlyph>
    <TTGlyph name="bullet" xMin="61" yMin="364" xMax="636" yMax="939">
      <contour>
        <pt x="145" y="448" on="1"/>
        <pt x="61" y="532" on="0"/>
        <pt x="61" y="651" on="1"/>
        <pt x="61" y="711" on="0"/>
        <pt x="107" y="816" on="0"/>
        <pt x="186" y="894" on="0"/>
        <pt x="290" y="939" on="0"/>
        <pt x="349" y="939" on="1"/>
        <pt x="407" y="939" on="0"/>
        <pt x="512" y="893" on="0"/>
        <pt x="590" y="815" on="0"/>
        <pt x="636" y="710" on="0"/>
        <pt x="636" y="651" on="1"/>
        <pt x="636" y="592" on="0"/>
        <pt x="590" y="488" on="0"/>
        <pt x="512" y="410" on="0"/>
        <pt x="408" y="364" on="0"/>
        <pt x="349" y="364" on="1"/>
        <pt x="230" y="364" on="0"/>
      </contour>
    </TTGlyph>
    <TTGlyph name="c" xMin="55" yMin="-40" xMax="948" yMax="970">
      <contour>
        <pt x="552" y="970" on="1"/>
        <pt x="645" y="970" on="0"/>
        <pt x="837" y="935" on="0"/>
        <pt x="878" y="914" on="1"/>
        <pt x="934" y="632" on="1"/>
        <pt x="716" y="586" on="1"/>
        <pt x="685" y="743" on="1"/>
        <pt x="621" y="759" on="0"/>
        <pt x="554" y="759" on="1"/>
        <pt x="438" y="759" on="0"/>
        <pt x="319" y="603" on="0"/>
        <pt x="319" y="455" on="1"/>
        <pt x="319" y="316" on="0"/>
        <pt x="438" y="165" on="0"/>
        <pt x="554" y="165" on="1"/>
        <pt x="698" y="165" on="0"/>
        <pt x="843" y="273" on="1"/>
        <pt x="948" y="119" on="1"/>
        <pt x="948" y="117" on="0"/>
        <pt x="909" y="85" on="0"/>
        <pt x="832" y="38" on="0"/>
        <pt x="739" y="-8" on="0"/>
        <pt x="613" y="-40" on="0"/>
        <pt x="552" y="-40" on="1"/>
        <pt x="326" y="-40" on="0"/>
        <pt x="55" y="218" on="0"/>
        <pt x="55" y="455" on="1"/>
        <pt x="55" y="701" on="0"/>
        <pt x="326" y="970" on="0"/>
      </contour>
    </TTGlyph>
    <TTGlyph name="caron" xMin="16" yMin="1038" xMax="740" yMax="1474">
      <contour>
        <pt x="379" y="1038" on="1"/>
        <pt x="16" y="1357" on="1"/>
        <pt x="118" y="1474" on="1"/>
        <pt x="378" y="1268" on="1"/>
        <pt x="648" y="1474" on="1"/>
        <pt x="740" y="1357" on="1"/>
      </contour>
    </TTGlyph>
    <TTGlyph name="ccedilla" xMin="55" yMin="-489" xMax="948" yMax="970">
      <contour>
        <pt x="552" y="970" on="1"/>
        <pt x="645" y="970" on="0"/>
        <pt x="837" y="935" on="0"/>
        <pt x="878" y="914" on="1"/>
        <pt x="934" y="632" on="1"/>
        <pt x="716" y="586" on="1"/>
        <pt x="685" y="743" on="1"/>
        <pt x="621" y="759" on="0"/>
        <pt x="554" y="759" on="1"/>
        <pt x="438" y="759" on="0"/>
        <pt x="319" y="603" on="0"/>
        <pt x="319" y="455" on="1"/>
        <pt x="319" y="316" on="0"/>
        <pt x="438" y="165" on="0"/>
        <pt x="554" y="165" on="1"/>
        <pt x="698" y="165" on="0"/>
        <pt x="843" y="273" on="1"/>
        <pt x="948" y="119" on="1"/>
        <pt x="948" y="117" on="0"/>
        <pt x="914" y="90" on="0"/>
        <pt x="848" y="47" on="0"/>
        <pt x="766" y="4" on="0"/>
        <pt x="654" y="-31" on="0"/>
        <pt x="600" y="-37" on="1"/>
        <pt x="600" y="-96" on="1"/>
        <pt x="740" y="-92" on="0"/>
        <pt x="873" y="-178" on="0"/>
        <pt x="873" y="-277" on="1"/>
        <pt x="873" y="-383" on="0"/>
        <pt x="716" y="-489" on="0"/>
        <pt x="596" y="-489" on="1"/>
        <pt x="466" y="-489" on="0"/>
        <pt x="325" y="-392" on="1"/>
        <pt x="400" y="-284" on="1"/>
        <pt x="491" y="-346" on="0"/>
        <pt x="594" y="-346" on="1"/>
        <pt x="673" y="-346" on="0"/>
        <pt x="673" y="-264" on="1"/>
        <pt x="673" y="-237" on="0"/>
        <pt x="628" y="-198" on="0"/>
        <pt x="574" y="-198" on="1"/>
        <pt x="441" y="-198" on="1"/>
        <pt x="441" y="-31" on="1"/>
        <pt x="262" y="-2" on="0"/>
        <pt x="55" y="248" on="0"/>
        <pt x="55" y="455" on="1"/>
        <pt x="55" y="701" on="0"/>
        <pt x="326" y="970" on="0"/>
      </contour>
    </TTGlyph>
    <TTGlyph name="cedilla" xMin="33" yMin="-489" xMax="581" yMax="0">
      <contour>
        <pt x="149" y="0" on="1"/>
        <pt x="308" y="0" on="1"/>
        <pt x="308" y="-96" on="1"/>
        <pt x="448" y="-92" on="0"/>
        <pt x="581" y="-178" on="0"/>
        <pt x="581" y="-277" on="1"/>
        <pt x="581" y="-383" on="0"/>
        <pt x="424" y="-489" on="0"/>
        <pt x="304" y="-489" on="1"/>
        <pt x="174" y="-489" on="0"/>
        <pt x="33" y="-392" on="1"/>
        <pt x="108" y="-284" on="1"/>
        <pt x="199" y="-346" on="0"/>
        <pt x="302" y="-346" on="1"/>
        <pt x="381" y="-346" on="0"/>
        <pt x="381" y="-264" on="1"/>
        <pt x="381" y="-237" on="0"/>
        <pt x="336" y="-198" on="0"/>
        <pt x="282" y="-198" on="1"/>
        <pt x="149" y="-198" on="1"/>
      </contour>
    </TTGlyph>
    <TTGlyph name="cent" xMin="76" yMin="-45" xMax="969" yMax="1251">
      <contour>
        <pt x="459" y="-45" on="1"/>
        <pt x="459" y="100" on="1"/>
        <pt x="280" y="131" on="0"/>
        <pt x="76" y="380" on="0"/>
        <pt x="76" y="586" on="1"/>
        <pt x="76" y="799" on="0"/>
        <pt x="281" y="1059" on="0"/>
        <pt x="459" y="1091" on="1"/>
        <pt x="459" y="1251" on="1"/>
        <pt x="641" y="1251" on="1"/>
        <pt x="641" y="1098" on="1"/>
        <pt x="720" y="1093" on="0"/>
        <pt x="866" y="1062" on="0"/>
        <pt x="899" y="1045" on="1"/>
        <pt x="955" y="763" on="1"/>
        <pt x="737" y="717" on="1"/>
        <pt x="706" y="874" on="1"/>
        <pt x="689" y="878" on="0"/>
        <pt x="641" y="884" on="1"/>
        <pt x="641" y="305" on="1"/>
        <pt x="770" y="333" on="0"/>
        <pt x="864" y="404" on="1"/>
        <pt x="969" y="250" on="1"/>
        <pt x="969" y="246" on="0"/>
        <pt x="887" y="185" on="0"/>
        <pt x="723" y="108" on="0"/>
        <pt x="641" y="96" on="1"/>
        <pt x="641" y="-45" on="1"/>
      </contour>
      <contour>
        <pt x="320" y="586" on="1"/>
        <pt x="320" y="368" on="0"/>
        <pt x="459" y="313" on="1"/>
        <pt x="459" y="872" on="1"/>
        <pt x="320" y="815" on="0"/>
      </contour>
    </TTGlyph>
    <TTGlyph name="circumflex" xMin="16" yMin="1048" xMax="740" yMax="1484">
      <contour>
        <pt x="377" y="1484" on="1"/>
        <pt x="740" y="1165" on="1"/>
        <pt x="638" y="1048" on="1"/>
        <pt x="378" y="1254" on="1"/>
        <pt x="108" y="1048" on="1"/>
        <pt x="16" y="1165" on="1"/>
      </contour>
    </TTGlyph>
    <TTGlyph name="colon" xMin="94" yMin="-45" xMax="448" yMax="953">
      <contour>
        <pt x="271" y="599" on="1"/>
        <pt x="235" y="599" on="0"/>
        <pt x="170" y="627" on="0"/>
        <pt x="122" y="676" on="0"/>
        <pt x="94" y="740" on="0"/>
        <pt x="94" y="776" on="1"/>
        <pt x="94" y="812" on="0"/>
        <pt x="122" y="876" on="0"/>
        <pt x="171" y="924" on="0"/>
        <pt x="235" y="953" on="0"/>
        <pt x="271" y="953" on="1"/>
        <pt x="306" y="953" on="0"/>
        <pt x="370" y="924" on="0"/>
        <pt x="419" y="874" on="0"/>
        <pt x="448" y="810" on="0"/>
        <pt x="448" y="776" on="1"/>
        <pt x="448" y="741" on="0"/>
        <pt x="419" y="677" on="0"/>
        <pt x="370" y="628" on="0"/>
        <pt x="306" y="599" on="0"/>
      </contour>
      <contour>
        <pt x="271" y="-45" on="1"/>
        <pt x="235" y="-45" on="0"/>
        <pt x="170" y="-17" on="0"/>
        <pt x="122" y="32" on="0"/>
        <pt x="94" y="96" on="0"/>
        <pt x="94" y="132" on="1"/>
        <pt x="94" y="168" on="0"/>
        <pt x="122" y="232" on="0"/>
        <pt x="171" y="280" on="0"/>
        <pt x="235" y="309" on="0"/>
        <pt x="271" y="309" on="1"/>
        <pt x="306" y="309" on="0"/>
        <pt x="370" y="280" on="0"/>
        <pt x="419" y="230" on="0"/>
        <pt x="448" y="166" on="0"/>
        <pt x="448" y="132" on="1"/>
        <pt x="448" y="97" on="0"/>
        <pt x="419" y="33" on="0"/>
        <pt x="370" y="-16" on="0"/>
        <pt x="306" y="-45" on="0"/>
      </contour>
    </TTGlyph>
    <TTGlyph name="comma" xMin="78" yMin="-293" xMax="430" yMax="275">
      <contour>
        <pt x="253" y="275" on="1"/>
        <pt x="322" y="275" on="0"/>
        <pt x="430" y="168" on="0"/>
        <pt x="430" y="96" on="1"/>
        <pt x="430" y="43" on="0"/>
        <pt x="392" y="-62" on="0"/>
        <pt x="323" y="-154" on="0"/>
        <pt x="268" y="-215" on="0"/>
        <pt x="190" y="-287" on="0"/>
        <pt x="184" y="-293" on="1"/>
        <pt x="106" y="-205" on="1"/>
        <pt x="141" y="-158" on="0"/>
        <pt x="191" y="-80" on="0"/>
        <pt x="205" y="-50" on="1"/>
        <pt x="141" y="-33" on="0"/>
        <pt x="78" y="53" on="0"/>
        <pt x="78" y="106" on="1"/>
        <pt x="78" y="181" on="0"/>
        <pt x="176" y="275" on="0"/>
      </contour>
    </TTGlyph>
    <TTGlyph name="copyright" xMin="45" yMin="-179" xMax="1609" yMax="1385">
      <contour>
        <pt x="248" y="589" on="1"/>
        <pt x="248" y="472" on="0"/>
        <pt x="329" y="262" on="0"/>
        <pt x="478" y="105" on="0"/>
        <pt x="690" y="13" on="0"/>
        <pt x="822" y="13" on="1"/>
        <pt x="949" y="13" on="0"/>
        <pt x="1163" y="103" on="0"/>
        <pt x="1319" y="259" on="0"/>
        <pt x="1406" y="469" on="0"/>
        <pt x="1406" y="589" on="1"/>
        <pt x="1406" y="712" on="0"/>
        <pt x="1322" y="931" on="0"/>
        <pt x="1168" y="1096" on="0"/>
        <pt x="953" y="1193" on="0"/>
        <pt x="822" y="1193" on="1"/>
        <pt x="696" y="1193" on="0"/>
        <pt x="486" y="1101" on="0"/>
        <pt x="333" y="939" on="0"/>
        <pt x="248" y="718" on="0"/>
      </contour>
      <contour>
        <pt x="45" y="600" on="1"/>
        <pt x="45" y="826" on="0"/>
        <pt x="247" y="1185" on="0"/>
        <pt x="605" y="1385" on="0"/>
        <pt x="830" y="1385" on="1"/>
        <pt x="998" y="1385" on="0"/>
        <pt x="1287" y="1268" on="0"/>
        <pt x="1492" y="1062" on="0"/>
        <pt x="1609" y="770" on="0"/>
        <pt x="1609" y="600" on="1"/>
        <pt x="1609" y="434" on="0"/>
        <pt x="1492" y="145" on="0"/>
        <pt x="1287" y="-61" on="0"/>
        <pt x="997" y="-179" on="0"/>
        <pt x="830" y="-179" on="1"/>
        <pt x="662" y="-179" on="0"/>
        <pt x="370" y="-61" on="0"/>
        <pt x="163" y="145" on="0"/>
        <pt x="45" y="434" on="0"/>
      </contour>
      <contour>
        <pt x="1000" y="479" on="1"/>
        <pt x="1170" y="429" on="1"/>
        <pt x="1121" y="224" on="1"/>
        <pt x="1108" y="216" on="0"/>
        <pt x="1061" y="194" on="0"/>
        <pt x="917" y="157" on="0"/>
        <pt x="846" y="157" on="1"/>
        <pt x="648" y="157" on="0"/>
        <pt x="413" y="388" on="0"/>
        <pt x="413" y="614" on="1"/>
        <pt x="413" y="821" on="0"/>
        <pt x="646" y="1053" on="0"/>
        <pt x="844" y="1053" on="1"/>
        <pt x="893" y="1053" on="0"/>
        <pt x="987" y="1037" on="0"/>
        <pt x="1051" y="1013" on="0"/>
        <pt x="1101" y="990" on="0"/>
        <pt x="1113" y="982" on="1"/>
        <pt x="1125" y="974" on="1"/>
        <pt x="1164" y="769" on="1"/>
        <pt x="1004" y="722" on="1"/>
        <pt x="963" y="874" on="1"/>
        <pt x="903" y="889" on="0"/>
        <pt x="846" y="889" on="1"/>
        <pt x="736" y="889" on="0"/>
        <pt x="618" y="747" on="0"/>
        <pt x="618" y="614" on="1"/>
        <pt x="618" y="479" on="0"/>
        <pt x="739" y="326" on="0"/>
        <pt x="846" y="326" on="1"/>
        <pt x="910" y="326" on="0"/>
        <pt x="966" y="343" on="1"/>
      </contour>
    </TTGlyph>
    <TTGlyph name="currency" xMin="84" yMin="43" xMax="999" yMax="927">
      <contour>
        <pt x="170" y="481" on="1"/>
        <pt x="170" y="576" on="0"/>
        <pt x="216" y="659" on="1"/>
        <pt x="85" y="748" on="1"/>
        <pt x="205" y="927" on="1"/>
        <pt x="377" y="808" on="1"/>
        <pt x="455" y="845" on="0"/>
        <pt x="544" y="845" on="1"/>
        <pt x="635" y="845" on="0"/>
        <pt x="707" y="810" on="1"/>
        <pt x="877" y="926" on="1"/>
        <pt x="997" y="749" on="1"/>
        <pt x="872" y="664" on="1"/>
        <pt x="922" y="579" on="0"/>
        <pt x="922" y="481" on="1"/>
        <pt x="922" y="380" on="0"/>
        <pt x="876" y="304" on="1"/>
        <pt x="999" y="224" on="1"/>
        <pt x="878" y="45" on="1"/>
        <pt x="710" y="155" on="1"/>
        <pt x="635" y="120" on="0"/>
        <pt x="544" y="120" on="1"/>
        <pt x="451" y="120" on="0"/>
        <pt x="375" y="156" on="1"/>
        <pt x="205" y="43" on="1"/>
        <pt x="84" y="222" on="1"/>
        <pt x="214" y="308" on="1"/>
        <pt x="170" y="388" on="0"/>
      </contour>
      <contour>
        <pt x="368" y="481" on="1"/>
        <pt x="368" y="407" on="0"/>
        <pt x="471" y="303" on="0"/>
        <pt x="544" y="303" on="1"/>
        <pt x="619" y="303" on="0"/>
        <pt x="721" y="407" on="0"/>
        <pt x="721" y="481" on="1"/>
        <pt x="721" y="556" on="0"/>
        <pt x="618" y="662" on="0"/>
        <pt x="544" y="662" on="1"/>
        <pt x="471" y="662" on="0"/>
        <pt x="368" y="556" on="0"/>
      </contour>
    </TTGlyph>
    <TTGlyph name="d" xMin="55" yMin="-53" xMax="1156" yMax="1392">
      <contour>
        <pt x="730" y="1099" on="1"/>
        <pt x="523" y="1172" on="1"/>
        <pt x="597" y="1392" on="1"/>
        <pt x="989" y="1259" on="1"/>
        <pt x="989" y="227" on="1"/>
        <pt x="1156" y="171" on="1"/>
        <pt x="1085" y="-53" on="1"/>
        <pt x="827" y="34" on="1"/>
        <pt x="713" y="-40" on="0"/>
        <pt x="552" y="-40" on="1"/>
        <pt x="327" y="-40" on="0"/>
        <pt x="55" y="230" on="0"/>
        <pt x="55" y="468" on="1"/>
        <pt x="55" y="617" on="0"/>
        <pt x="188" y="848" on="0"/>
        <pt x="413" y="970" on="0"/>
        <pt x="552" y="970" on="1"/>
        <pt x="628" y="970" on="0"/>
        <pt x="730" y="941" on="1"/>
      </contour>
      <contour>
        <pt x="554" y="759" on="1"/>
        <pt x="449" y="759" on="0"/>
        <pt x="319" y="593" on="0"/>
        <pt x="319" y="470" on="1"/>
        <pt x="319" y="331" on="0"/>
        <pt x="440" y="165" on="0"/>
        <pt x="554" y="165" on="1"/>
        <pt x="651" y="165" on="0"/>
        <pt x="730" y="212" on="1"/>
        <pt x="730" y="723" on="1"/>
        <pt x="655" y="759" on="0"/>
      </contour>
    </TTGlyph>
    <TTGlyph name="degree" xMin="76" yMin="782" xMax="563" yMax="1272">
      <contour>
        <pt x="319" y="782" on="1"/>
        <pt x="269" y="782" on="0"/>
        <pt x="181" y="816" on="0"/>
        <pt x="115" y="879" on="0"/>
        <pt x="76" y="969" on="0"/>
        <pt x="76" y="1026" on="1"/>
        <pt x="76" y="1083" on="0"/>
        <pt x="115" y="1174" on="0"/>
        <pt x="182" y="1238" on="0"/>
        <pt x="270" y="1272" on="0"/>
        <pt x="319" y="1272" on="1"/>
        <pt x="369" y="1272" on="0"/>
        <pt x="458" y="1238" on="0"/>
        <pt x="524" y="1174" on="0"/>
        <pt x="563" y="1083" on="0"/>
        <pt x="563" y="1026" on="1"/>
        <pt x="563" y="970" on="0"/>
        <pt x="525" y="879" on="0"/>
        <pt x="459" y="816" on="0"/>
        <pt x="370" y="782" on="0"/>
      </contour>
      <contour>
        <pt x="320" y="894" on="1"/>
        <pt x="369" y="894" on="0"/>
        <pt x="432" y="962" on="0"/>
        <pt x="432" y="1026" on="1"/>
        <pt x="432" y="1090" on="0"/>
        <pt x="369" y="1161" on="0"/>
        <pt x="320" y="1161" on="1"/>
        <pt x="272" y="1161" on="0"/>
        <pt x="206" y="1089" on="0"/>
        <pt x="206" y="1026" on="1"/>
        <pt x="206" y="963" on="0"/>
        <pt x="272" y="894" on="0"/>
      </contour>
    </TTGlyph>
    <TTGlyph name="dieresis" xMin="84" yMin="1097" xMax="742" yMax="1396">
      <contour>
        <pt x="383" y="1247" on="1"/>
        <pt x="383" y="1186" on="0"/>
        <pt x="294" y="1097" on="0"/>
        <pt x="234" y="1097" on="1"/>
        <pt x="172" y="1097" on="0"/>
        <pt x="84" y="1186" on="0"/>
        <pt x="84" y="1247" on="1"/>
        <pt x="84" y="1307" on="0"/>
        <pt x="173" y="1396" on="0"/>
        <pt x="234" y="1396" on="1"/>
        <pt x="294" y="1396" on="0"/>
        <pt x="383" y="1307" on="0"/>
      </contour>
      <contour>
        <pt x="742" y="1247" on="1"/>
        <pt x="742" y="1186" on="0"/>
        <pt x="653" y="1097" on="0"/>
        <pt x="593" y="1097" on="1"/>
        <pt x="531" y="1097" on="0"/>
        <pt x="443" y="1185" on="0"/>
        <pt x="443" y="1247" on="1"/>
        <pt x="443" y="1307" on="0"/>
        <pt x="531" y="1396" on="0"/>
        <pt x="593" y="1396" on="1"/>
        <pt x="653" y="1396" on="0"/>
        <pt x="742" y="1307" on="0"/>
      </contour>
    </TTGlyph>
    <TTGlyph name="divide" xMin="66" yMin="102" xMax="888" yMax="1145">
      <contour>
        <pt x="480" y="102" on="1"/>
        <pt x="447" y="102" on="0"/>
        <pt x="387" y="128" on="0"/>
        <pt x="342" y="173" on="0"/>
        <pt x="315" y="233" on="0"/>
        <pt x="315" y="267" on="1"/>
        <pt x="315" y="301" on="0"/>
        <pt x="342" y="361" on="0"/>
        <pt x="387" y="406" on="0"/>
        <pt x="447" y="432" on="0"/>
        <pt x="480" y="432" on="1"/>
        <pt x="512" y="432" on="0"/>
        <pt x="571" y="405" on="0"/>
        <pt x="617" y="359" on="0"/>
        <pt x="645" y="299" on="0"/>
        <pt x="645" y="267" on="1"/>
        <pt x="645" y="234" on="0"/>
        <pt x="618" y="175" on="0"/>
        <pt x="572" y="129" on="0"/>
        <pt x="513" y="102" on="0"/>
      </contour>
      <contour>
        <pt x="480" y="815" on="1"/>
        <pt x="447" y="815" on="0"/>
        <pt x="387" y="841" on="0"/>
        <pt x="342" y="886" on="0"/>
        <pt x="315" y="946" on="0"/>
        <pt x="315" y="980" on="1"/>
        <pt x="315" y="1014" on="0"/>
        <pt x="342" y="1074" on="0"/>
        <pt x="387" y="1119" on="0"/>
        <pt x="447" y="1145" on="0"/>
        <pt x="480" y="1145" on="1"/>
        <pt x="512" y="1145" on="0"/>
        <pt x="571" y="1118" on="0"/>
        <pt x="617" y="1072" on="0"/>
        <pt x="645" y="1012" on="0"/>
        <pt x="645" y="980" on="1"/>
        <pt x="645" y="947" on="0"/>
        <pt x="618" y="888" on="0"/>
        <pt x="572" y="842" on="0"/>
        <pt x="513" y="815" on="0"/>
      </contour>
      <contour>
        <pt x="66" y="525" on="1"/>
        <pt x="66" y="737" on="1"/>
        <pt x="888" y="737" on="1"/>
        <pt x="888" y="525" on="1"/>
      </contour>
    </TTGlyph>
    <TTGlyph name="dollar" xMin="90" yMin="-155" xMax="998" yMax="1335">
      <contour>
        <pt x="438" y="-155" on="1"/>
        <pt x="438" y="-7" on="1"/>
        <pt x="263" y="5" on="0"/>
        <pt x="124" y="61" on="1"/>
        <pt x="90" y="328" on="1"/>
        <pt x="288" y="352" on="1"/>
        <pt x="305" y="232" on="1"/>
        <pt x="381" y="206" on="0"/>
        <pt x="438" y="198" on="1"/>
        <pt x="438" y="488" on="1"/>
        <pt x="110" y="550" on="0"/>
        <pt x="110" y="840" on="1"/>
        <pt x="110" y="971" on="0"/>
        <pt x="272" y="1152" on="0"/>
        <pt x="438" y="1173" on="1"/>
        <pt x="438" y="1335" on="1"/>
        <pt x="620" y="1335" on="1"/>
        <pt x="620" y="1175" on="1"/>
        <pt x="719" y="1167" on="0"/>
        <pt x="879" y="1124" on="0"/>
        <pt x="913" y="1106" on="1"/>
        <pt x="948" y="813" on="1"/>
        <pt x="739" y="792" on="1"/>
        <pt x="713" y="960" on="1"/>
        <pt x="678" y="968" on="0"/>
        <pt x="620" y="975" on="1"/>
        <pt x="620" y="714" on="1"/>
        <pt x="653" y="709" on="1"/>
        <pt x="836" y="679" on="0"/>
        <pt x="998" y="508" on="0"/>
        <pt x="998" y="364" on="1"/>
        <pt x="998" y="267" on="0"/>
        <pt x="932" y="123" on="0"/>
        <pt x="818" y="41" on="0"/>
        <pt x="693" y="0" on="0"/>
        <pt x="620" y="-7" on="1"/>
        <pt x="620" y="-155" on="1"/>
      </contour>
      <contour>
        <pt x="768" y="353" on="1"/>
        <pt x="768" y="394" on="0"/>
        <pt x="713" y="443" on="0"/>
        <pt x="636" y="456" on="1"/>
        <pt x="620" y="458" on="1"/>
        <pt x="620" y="202" on="1"/>
        <pt x="768" y="234" on="0"/>
      </contour>
      <contour>
        <pt x="335" y="867" on="1"/>
        <pt x="335" y="787" on="0"/>
        <pt x="438" y="750" on="1"/>
        <pt x="438" y="968" on="1"/>
        <pt x="335" y="944" on="0"/>
      </contour>
    </TTGlyph>
    <TTGlyph name="dotlessi" xMin="25" yMin="0" xMax="625" yMax="930">
      <contour>
        <pt x="195" y="723" on="1"/>
        <pt x="25" y="723" on="1"/>
        <pt x="25" y="930" on="1"/>
        <pt x="455" y="930" on="1"/>
        <pt x="455" y="207" on="1"/>
        <pt x="625" y="207" on="1"/>
        <pt x="625" y="0" on="1"/>
        <pt x="25" y="0" on="1"/>
        <pt x="25" y="207" on="1"/>
        <pt x="195" y="207" on="1"/>
      </contour>
    </TTGlyph>
    <TTGlyph name="e" xMin="55" yMin="-40" xMax="986" yMax="970">
      <contour>
        <pt x="552" y="-40" on="1"/>
        <pt x="439" y="-40" on="0"/>
        <pt x="255" y="26" on="0"/>
        <pt x="125" y="153" on="0"/>
        <pt x="55" y="340" on="0"/>
        <pt x="55" y="461" on="1"/>
        <pt x="55" y="582" on="0"/>
        <pt x="126" y="771" on="0"/>
        <pt x="257" y="902" on="0"/>
        <pt x="440" y="970" on="0"/>
        <pt x="552" y="970" on="1"/>
        <pt x="760" y="970" on="0"/>
        <pt x="986" y="731" on="0"/>
        <pt x="986" y="498" on="1"/>
        <pt x="986" y="428" on="0"/>
        <pt x="973" y="370" on="1"/>
        <pt x="327" y="370" on="1"/>
        <pt x="340" y="175" on="0"/>
        <pt x="554" y="175" on="1"/>
        <pt x="730" y="175" on="0"/>
        <pt x="886" y="234" on="1"/>
        <pt x="969" y="70" on="1"/>
        <pt x="781" y="-40" on="0"/>
      </contour>
      <contour>
        <pt x="554" y="754" on="1"/>
        <pt x="447" y="754" on="0"/>
        <pt x="356" y="664" on="0"/>
        <pt x="333" y="564" on="1"/>
        <pt x="742" y="564" on="1"/>
        <pt x="742" y="754" on="0"/>
      </contour>
    </TTGlyph>
    <TTGlyph name="eacute" xMin="55" yMin="-40" xMax="986" yMax="1477">
      <component glyphName="e" x="0" y="0" flags="0x4"/>
      <component glyphName="acute" x="183" y="0" flags="0x4"/>
    </TTGlyph>
    <TTGlyph name="ecircumflex" xMin="55" yMin="-40" xMax="986" yMax="1484">
      <component glyphName="e" x="0" y="0" flags="0x4"/>
      <component glyphName="circumflex" x="148" y="0" flags="0x4"/>
    </TTGlyph>
    <TTGlyph name="edieresis" xMin="55" yMin="-40" xMax="986" yMax="1396">
      <component glyphName="e" x="0" y="0" flags="0x4"/>
      <component glyphName="dieresis" x="137" y="0" flags="0x4"/>
    </TTGlyph>
    <TTGlyph name="egrave" xMin="55" yMin="-40" xMax="986" yMax="1477">
      <component glyphName="e" x="0" y="0" flags="0x4"/>
      <component glyphName="grave" x="104" y="0" flags="0x4"/>
    </TTGlyph>
    <TTGlyph name="eight" xMin="68" yMin="-45" xMax="1027" yMax="1251">
      <contour>
        <pt x="551" y="513" on="1"/>
        <pt x="501" y="513" on="0"/>
        <pt x="424" y="486" on="0"/>
        <pt x="372" y="438" on="0"/>
        <pt x="344" y="372" on="0"/>
        <pt x="344" y="334" on="1"/>
        <pt x="344" y="295" on="0"/>
        <pt x="374" y="234" on="0"/>
        <pt x="427" y="191" on="0"/>
        <pt x="500" y="168" on="0"/>
        <pt x="544" y="168" on="1"/>
        <pt x="591" y="168" on="0"/>
        <pt x="667" y="191" on="0"/>
        <pt x="721" y="235" on="0"/>
        <pt x="751" y="296" on="0"/>
        <pt x="751" y="334" on="1"/>
        <pt x="751" y="372" on="0"/>
        <pt x="724" y="437" on="0"/>
        <pt x="673" y="485" on="0"/>
        <pt x="598" y="513" on="0"/>
      </contour>
      <contour>
        <pt x="995" y="891" on="1"/>
        <pt x="995" y="852" on="0"/>
        <pt x="965" y="770" on="0"/>
        <pt x="910" y="696" on="0"/>
        <pt x="832" y="640" on="0"/>
        <pt x="784" y="627" on="1"/>
        <pt x="855" y="606" on="0"/>
        <pt x="949" y="538" on="0"/>
        <pt x="1004" y="457" on="0"/>
        <pt x="1027" y="371" on="0"/>
        <pt x="1027" y="334" on="1"/>
        <pt x="1027" y="230" on="0"/>
        <pt x="948" y="86" on="0"/>
        <pt x="816" y="-4" on="0"/>
        <pt x="644" y="-45" on="0"/>
        <pt x="551" y="-45" on="1"/>
        <pt x="453" y="-45" on="0"/>
        <pt x="278" y="-4" on="0"/>
        <pt x="146" y="87" on="0"/>
        <pt x="68" y="231" on="0"/>
        <pt x="68" y="334" on="1"/>
        <pt x="68" y="373" on="0"/>
        <pt x="91" y="459" on="0"/>
        <pt x="146" y="538" on="0"/>
        <pt x="240" y="606" on="0"/>
        <pt x="311" y="627" on="1"/>
        <pt x="263" y="640" on="0"/>
        <pt x="186" y="696" on="0"/>
        <pt x="130" y="769" on="0"/>
        <pt x="100" y="852" on="0"/>
        <pt x="100" y="891" on="1"/>
        <pt x="100" y="987" on="0"/>
        <pt x="170" y="1123" on="0"/>
        <pt x="291" y="1210" on="0"/>
        <pt x="453" y="1251" on="0"/>
        <pt x="546" y="1251" on="1"/>
        <pt x="639" y="1251" on="0"/>
        <pt x="802" y="1210" on="0"/>
        <pt x="924" y="1123" on="0"/>
        <pt x="995" y="987" on="0"/>
      </contour>
      <contour>
        <pt x="544" y="1038" on="1"/>
        <pt x="460" y="1038" on="0"/>
        <pt x="365" y="958" on="0"/>
        <pt x="365" y="891" on="1"/>
        <pt x="365" y="821" on="0"/>
        <pt x="462" y="724" on="0"/>
        <pt x="544" y="724" on="1"/>
        <pt x="631" y="724" on="0"/>
        <pt x="730" y="820" on="0"/>
        <pt x="730" y="891" on="1"/>
        <pt x="730" y="959" on="0"/>
        <pt x="633" y="1038" on="0"/>
      </contour>
    </TTGlyph>
    <TTGlyph name="emdash" xMin="109" yMin="371" xMax="1602" yMax="593">
      <contour>
        <pt x="109" y="371" on="1"/>
        <pt x="109" y="593" on="1"/>
        <pt x="1602" y="593" on="1"/>
        <pt x="1602" y="371" on="1"/>
      </contour>
    </TTGlyph>
    <TTGlyph name="endash" xMin="109" yMin="373" xMax="1149" yMax="595">
      <contour>
        <pt x="109" y="373" on="1"/>
        <pt x="109" y="595" on="1"/>
        <pt x="1149" y="595" on="1"/>
        <pt x="1149" y="373" on="1"/>
      </contour>
    </TTGlyph>
    <TTGlyph name="equal" xMin="66" yMin="337" xMax="888" yMax="913">
      <contour>
        <pt x="66" y="701" on="1"/>
        <pt x="66" y="913" on="1"/>
        <pt x="888" y="913" on="1"/>
        <pt x="888" y="701" on="1"/>
      </contour>
      <contour>
        <pt x="66" y="337" on="1"/>
        <pt x="66" y="549" on="1"/>
        <pt x="888" y="549" on="1"/>
        <pt x="888" y="337" on="1"/>
      </contour>
    </TTGlyph>
    <TTGlyph name="eth" xMin="43" yMin="-45" xMax="1040" yMax="1400">
      <contour>
        <pt x="473" y="1295" on="1"/>
        <pt x="568" y="1400" on="1"/>
        <pt x="701" y="1275" on="1"/>
        <pt x="639" y="1206" on="1"/>
        <pt x="828" y="1096" on="0"/>
        <pt x="1040" y="748" on="0"/>
        <pt x="1040" y="538" on="1"/>
        <pt x="1040" y="383" on="0"/>
        <pt x="963" y="153" on="0"/>
        <pt x="824" y="19" on="0"/>
        <pt x="648" y="-45" on="0"/>
        <pt x="540" y="-45" on="1"/>
        <pt x="438" y="-45" on="0"/>
        <pt x="266" y="9" on="0"/>
        <pt x="124" y="123" on="0"/>
        <pt x="43" y="321" on="0"/>
        <pt x="43" y="454" on="1"/>
        <pt x="43" y="550" on="0"/>
        <pt x="126" y="715" on="0"/>
        <pt x="259" y="820" on="0"/>
        <pt x="417" y="879" on="0"/>
        <pt x="494" y="879" on="1"/>
        <pt x="662" y="879" on="0"/>
        <pt x="730" y="831" on="1"/>
        <pt x="647" y="967" on="0"/>
        <pt x="506" y="1061" on="1"/>
        <pt x="420" y="966" on="1"/>
        <pt x="286" y="1088" on="1"/>
        <pt x="344" y="1152" on="1"/>
        <pt x="282" y="1182" on="0"/>
        <pt x="181" y="1221" on="1"/>
        <pt x="228" y="1377" on="1"/>
        <pt x="394" y="1329" on="0"/>
      </contour>
      <contour>
        <pt x="557" y="701" on="1"/>
        <pt x="437" y="701" on="0"/>
        <pt x="307" y="562" on="0"/>
        <pt x="307" y="436" on="1"/>
        <pt x="307" y="166" on="0"/>
        <pt x="542" y="166" on="1"/>
        <pt x="622" y="166" on="0"/>
        <pt x="732" y="265" on="0"/>
        <pt x="781" y="417" on="0"/>
        <pt x="781" y="513" on="1"/>
        <pt x="781" y="586" on="0"/>
        <pt x="768" y="652" on="1"/>
        <pt x="683" y="701" on="0"/>
      </contour>
    </TTGlyph>
    <TTGlyph name="exclam" xMin="77" yMin="-45" xMax="431" yMax="1251">
      <contour>
        <pt x="254" y="-45" on="1"/>
        <pt x="218" y="-45" on="0"/>
        <pt x="153" y="-17" on="0"/>
        <pt x="105" y="32" on="0"/>
        <pt x="77" y="96" on="0"/>
        <pt x="77" y="132" on="1"/>
        <pt x="77" y="168" on="0"/>
        <pt x="105" y="232" on="0"/>
        <pt x="154" y="280" on="0"/>
        <pt x="218" y="309" on="0"/>
        <pt x="254" y="309" on="1"/>
        <pt x="289" y="309" on="0"/>
        <pt x="353" y="280" on="0"/>
        <pt x="402" y="230" on="0"/>
        <pt x="431" y="166" on="0"/>
        <pt x="431" y="132" on="1"/>
        <pt x="431" y="97" on="0"/>
        <pt x="402" y="33" on="0"/>
        <pt x="353" y="-16" on="0"/>
        <pt x="289" y="-45" on="0"/>
      </contour>
      <contour>
        <pt x="408" y="1251" on="1"/>
        <pt x="350" y="411" on="1"/>
        <pt x="153" y="411" on="1"/>
        <pt x="103" y="1251" on="1"/>
      </contour>
    </TTGlyph>
    <TTGlyph name="exclamdown" xMin="78" yMin="-375" xMax="432" yMax="921">
      <contour>
        <pt x="255" y="567" on="1"/>
        <pt x="219" y="567" on="0"/>
        <pt x="154" y="595" on="0"/>
        <pt x="106" y="644" on="0"/>
        <pt x="78" y="708" on="0"/>
        <pt x="78" y="744" on="1"/>
        <pt x="78" y="780" on="0"/>
        <pt x="106" y="844" on="0"/>
        <pt x="155" y="892" on="0"/>
        <pt x="219" y="921" on="0"/>
        <pt x="255" y="921" on="1"/>
        <pt x="290" y="921" on="0"/>
        <pt x="354" y="892" on="0"/>
        <pt x="403" y="842" on="0"/>
        <pt x="432" y="778" on="0"/>
        <pt x="432" y="744" on="1"/>
        <pt x="432" y="709" on="0"/>
        <pt x="403" y="645" on="0"/>
        <pt x="354" y="596" on="0"/>
        <pt x="290" y="567" on="0"/>
      </contour>
      <contour>
        <pt x="351" y="465" on="1"/>
        <pt x="409" y="-375" on="1"/>
        <pt x="104" y="-375" on="1"/>
        <pt x="154" y="465" on="1"/>
      </contour>
    </TTGlyph>
    <TTGlyph name="f" xMin="14" yMin="0" xMax="893" yMax="1365">
      <contour>
        <pt x="446" y="723" on="1"/>
        <pt x="446" y="207" on="1"/>
        <pt x="630" y="207" on="1"/>
        <pt x="630" y="0" on="1"/>
        <pt x="14" y="0" on="1"/>
        <pt x="14" y="207" on="1"/>
        <pt x="186" y="207" on="1"/>
        <pt x="186" y="723" on="1"/>
        <pt x="14" y="723" on="1"/>
        <pt x="14" y="930" on="1"/>
        <pt x="186" y="930" on="1"/>
        <pt x="186" y="970" on="1"/>
        <pt x="186" y="1173" on="0"/>
        <pt x="366" y="1365" on="0"/>
        <pt x="583" y="1365" on="1"/>
        <pt x="683" y="1365" on="0"/>
        <pt x="844" y="1302" on="0"/>
        <pt x="893" y="1263" on="1"/>
        <pt x="793" y="1100" on="1"/>
        <pt x="757" y="1119" on="0"/>
        <pt x="721" y="1135" on="0"/>
        <pt x="653" y="1153" on="0"/>
        <pt x="618" y="1153" on="1"/>
        <pt x="522" y="1153" on="0"/>
        <pt x="446" y="1042" on="0"/>
        <pt x="446" y="930" on="1"/>
        <pt x="700" y="930" on="1"/>
        <pt x="700" y="723" on="1"/>
      </contour>
    </TTGlyph>
    <TTGlyph name="five" xMin="66" yMin="-45" xMax="980" yMax="1206">
      <contour>
        <pt x="126" y="1206" on="1"/>
        <pt x="914" y="1206" on="1"/>
        <pt x="914" y="977" on="1"/>
        <pt x="391" y="977" on="1"/>
        <pt x="391" y="790" on="1"/>
        <pt x="478" y="815" on="0"/>
        <pt x="558" y="815" on="1"/>
        <pt x="745" y="815" on="0"/>
        <pt x="980" y="575" on="0"/>
        <pt x="980" y="402" on="1"/>
        <pt x="980" y="192" on="0"/>
        <pt x="725" y="-45" on="0"/>
        <pt x="481" y="-45" on="1"/>
        <pt x="280" y="-45" on="0"/>
        <pt x="114" y="77" on="1"/>
        <pt x="83" y="100" on="0"/>
        <pt x="66" y="117" on="1"/>
        <pt x="218" y="297" on="1"/>
        <pt x="272" y="254" on="0"/>
        <pt x="428" y="179" on="0"/>
        <pt x="489" y="179" on="1"/>
        <pt x="599" y="179" on="0"/>
        <pt x="706" y="283" on="0"/>
        <pt x="706" y="400" on="1"/>
        <pt x="706" y="488" on="0"/>
        <pt x="594" y="593" on="0"/>
        <pt x="520" y="593" on="1"/>
        <pt x="464" y="593" on="0"/>
        <pt x="371" y="565" on="0"/>
        <pt x="315" y="520" on="0"/>
        <pt x="291" y="496" on="0"/>
        <pt x="284" y="485" on="1"/>
        <pt x="126" y="561" on="1"/>
      </contour>
    </TTGlyph>
    <TTGlyph name="foundryicon" xMin="120" yMin="-563" xMax="3465" yMax="1462">
      <contour>
        <pt x="1253" y="813" on="1"/>
        <pt x="1272" y="650" on="0"/>
        <pt x="1279" y="319" on="0"/>
        <pt x="1248" y="13" on="0"/>
        <pt x="1179" y="-253" on="0"/>
        <pt x="1067" y="-450" on="0"/>
        <pt x="911" y="-563" on="0"/>
        <pt x="809" y="-563" on="1"/>
        <pt x="755" y="-563" on="0"/>
        <pt x="686" y="-533" on="0"/>
        <pt x="645" y="-476" on="0"/>
        <pt x="629" y="-391" on="0"/>
        <pt x="629" y="-336" on="1"/>
        <pt x="629" y="-286" on="0"/>
        <pt x="647" y="-196" on="0"/>
        <pt x="659" y="-154" on="1"/>
        <pt x="709" y="-154" on="0"/>
        <pt x="820" y="-187" on="0"/>
        <pt x="862" y="-229" on="1"/>
        <pt x="858" y="-258" on="0"/>
        <pt x="850" y="-326" on="0"/>
        <pt x="847" y="-395" on="0"/>
        <pt x="850" y="-461" on="0"/>
        <pt x="858" y="-489" on="1"/>
        <pt x="922" y="-448" on="0"/>
        <pt x="993" y="-338" on="0"/>
        <pt x="1033" y="-198" on="0"/>
        <pt x="1053" y="-28" on="0"/>
        <pt x="1065" y="74" on="1"/>
        <pt x="1057" y="61" on="0"/>
        <pt x="1024" y="37" on="0"/>
        <pt x="1004" y="37" on="1"/>
        <pt x="929" y="37" on="0"/>
        <pt x="827" y="118" on="0"/>
        <pt x="795" y="184" on="1"/>
        <pt x="784" y="153" on="0"/>
        <pt x="747" y="89" on="0"/>
        <pt x="690" y="37" on="0"/>
        <pt x="612" y="4" on="0"/>
        <pt x="561" y="4" on="1"/>
        <pt x="483" y="4" on="0"/>
        <pt x="358" y="51" on="0"/>
        <pt x="262" y="134" on="0"/>
        <pt x="192" y="246" on="0"/>
        <pt x="146" y="377" on="0"/>
        <pt x="122" y="521" on="0"/>
        <pt x="121" y="594" on="1"/>
        <pt x="120" y="719" on="0"/>
        <pt x="151" y="967" on="0"/>
        <pt x="223" y="1193" on="0"/>
        <pt x="340" y="1388" on="0"/>
        <pt x="424" y="1462" on="1"/>
        <pt x="470" y="1452" on="0"/>
        <pt x="578" y="1420" on="0"/>
        <pt x="671" y="1350" on="0"/>
        <pt x="733" y="1231" on="0"/>
        <pt x="733" y="1135" on="1"/>
        <pt x="733" y="1060" on="0"/>
        <pt x="661" y="938" on="0"/>
        <pt x="604" y="889" on="1"/>
        <pt x="595" y="879" on="0"/>
        <pt x="585" y="875" on="0"/>
        <pt x="582" y="880" on="0"/>
        <pt x="582" y="890" on="0"/>
        <pt x="584" y="895" on="1"/>
        <pt x="591" y="936" on="0"/>
        <pt x="584" y="1035" on="0"/>
        <pt x="564" y="1128" on="0"/>
        <pt x="537" y="1203" on="0"/>
        <pt x="524" y="1219" on="1"/>
        <pt x="499" y="1196" on="0"/>
        <pt x="453" y="1088" on="0"/>
        <pt x="417" y="940" on="0"/>
        <pt x="394" y="764" on="0"/>
        <pt x="387" y="579" on="0"/>
        <pt x="401" y="397" on="0"/>
        <pt x="439" y="238" on="0"/>
        <pt x="504" y="113" on="0"/>
        <pt x="553" y="78" on="1"/>
        <pt x="593" y="91" on="0"/>
        <pt x="657" y="144" on="0"/>
        <pt x="708" y="208" on="0"/>
        <pt x="744" y="273" on="0"/>
        <pt x="756" y="299" on="1"/>
        <pt x="734" y="370" on="0"/>
        <pt x="719" y="531" on="0"/>
        <pt x="719" y="612" on="1"/>
        <pt x="719" y="690" on="0"/>
        <pt x="739" y="796" on="0"/>
        <pt x="758" y="831" on="1"/>
        <pt x="773" y="828" on="0"/>
        <pt x="823" y="818" on="0"/>
        <pt x="878" y="800" on="0"/>
        <pt x="932" y="774" on="0"/>
        <pt x="952" y="756" on="1"/>
        <pt x="947" y="673" on="0"/>
        <pt x="944" y="511" on="0"/>
        <pt x="953" y="355" on="0"/>
        <pt x="977" y="206" on="0"/>
        <pt x="999" y="135" on="1"/>
        <pt x="1011" y="138" on="0"/>
        <pt x="1026" y="152" on="0"/>
        <pt x="1035" y="168" on="0"/>
        <pt x="1040" y="185" on="0"/>
        <pt x="1042" y="190" on="1"/>
        <pt x="1063" y="285" on="0"/>
        <pt x="1066" y="491" on="0"/>
        <pt x="1050" y="684" on="0"/>
        <pt x="1023" y="852" on="0"/>
        <pt x="1014" y="909" on="1"/>
        <pt x="1041" y="912" on="0"/>
        <pt x="1107" y="899" on="0"/>
        <pt x="1173" y="872" on="0"/>
        <pt x="1233" y="834" on="0"/>
      </contour>
      <contour>
        <pt x="1286" y="850" on="1"/>
        <pt x="1370" y="845" on="0"/>
        <pt x="1417" y="834" on="1"/>
        <pt x="1470" y="823" on="0"/>
        <pt x="1505" y="784" on="1"/>
        <pt x="1528" y="742" on="0"/>
        <pt x="1565" y="624" on="0"/>
        <pt x="1571" y="543" on="1"/>
        <pt x="1606" y="609" on="0"/>
        <pt x="1653" y="706" on="0"/>
        <pt x="1667" y="748" on="1"/>
        <pt x="1667" y="761" on="0"/>
        <pt x="1672" y="797" on="0"/>
        <pt x="1681" y="833" on="0"/>
        <pt x="1692" y="867" on="0"/>
        <pt x="1698" y="879" on="1"/>
        <pt x="1730" y="876" on="0"/>
        <pt x="1791" y="863" on="0"/>
        <pt x="1842" y="843" on="0"/>
        <pt x="1881" y="814" on="0"/>
        <pt x="1892" y="795" on="1"/>
        <pt x="1885" y="758" on="0"/>
        <pt x="1876" y="672" on="0"/>
        <pt x="1873" y="585" on="0"/>
        <pt x="1877" y="500" on="0"/>
        <pt x="1884" y="463" on="1"/>
        <pt x="1712" y="417" on="0"/>
        <pt x="1688" y="586" on="1"/>
        <pt x="1680" y="565" on="0"/>
        <pt x="1653" y="523" on="0"/>
        <pt x="1624" y="477" on="0"/>
        <pt x="1598" y="427" on="0"/>
        <pt x="1591" y="399" on="1"/>
        <pt x="1591" y="373" on="0"/>
        <pt x="1590" y="308" on="0"/>
        <pt x="1587" y="242" on="0"/>
        <pt x="1578" y="180" on="0"/>
        <pt x="1571" y="158" on="1"/>
        <pt x="1562" y="126" on="0"/>
        <pt x="1531" y="73" on="0"/>
        <pt x="1489" y="36" on="0"/>
        <pt x="1433" y="21" on="0"/>
        <pt x="1399" y="27" on="1"/>
        <pt x="1395" y="88" on="0"/>
        <pt x="1388" y="227" on="0"/>
        <pt x="1377" y="374" on="0"/>
        <pt x="1362" y="524" on="0"/>
        <pt x="1340" y="666" on="0"/>
        <pt x="1308" y="796" on="0"/>
      </contour>
      <contour>
        <pt x="2552" y="113" on="1"/>
        <pt x="2564" y="123" on="0"/>
        <pt x="2596" y="155" on="0"/>
        <pt x="2624" y="192" on="0"/>
        <pt x="2644" y="235" on="0"/>
        <pt x="2646" y="256" on="1"/>
        <pt x="2632" y="312" on="0"/>
        <pt x="2618" y="434" on="0"/>
        <pt x="2613" y="547" on="0"/>
        <pt x="2615" y="641" on="0"/>
        <pt x="2617" y="670" on="1"/>
        <pt x="2602" y="651" on="0"/>
        <pt x="2573" y="578" on="0"/>
        <pt x="2549" y="482" on="0"/>
        <pt x="2533" y="373" on="0"/>
        <pt x="2529" y="261" on="0"/>
        <pt x="2538" y="156" on="0"/>
      </contour>
      <contour>
        <pt x="3154" y="535" on="1"/>
        <pt x="3188" y="585" on="0"/>
        <pt x="3235" y="746" on="0"/>
        <pt x="3258" y="925" on="0"/>
        <pt x="3258" y="1097" on="0"/>
        <pt x="3246" y="1159" on="1"/>
        <pt x="3231" y="1097" on="0"/>
        <pt x="3201" y="946" on="0"/>
        <pt x="3176" y="783" on="0"/>
        <pt x="3158" y="615" on="0"/>
      </contour>
      <contour>
        <pt x="2177" y="690" on="1"/>
        <pt x="2149" y="605" on="0"/>
        <pt x="2122" y="412" on="0"/>
        <pt x="2122" y="315" on="1"/>
        <pt x="2145" y="318" on="0"/>
        <pt x="2179" y="362" on="0"/>
        <pt x="2201" y="427" on="0"/>
        <pt x="2212" y="505" on="0"/>
        <pt x="2212" y="543" on="1"/>
        <pt x="2212" y="588" on="0"/>
        <pt x="2188" y="669" on="0"/>
      </contour>
      <contour>
        <pt x="2441" y="1317" on="1"/>
        <pt x="2426" y="1286" on="0"/>
        <pt x="2394" y="1206" on="0"/>
        <pt x="2355" y="1121" on="0"/>
        <pt x="2308" y="1037" on="0"/>
        <pt x="2248" y="968" on="0"/>
        <pt x="2172" y="919" on="0"/>
        <pt x="2124" y="911" on="1"/>
        <pt x="2138" y="883" on="0"/>
        <pt x="2165" y="831" on="0"/>
        <pt x="2177" y="809" on="1"/>
        <pt x="2177" y="807" on="0"/>
        <pt x="2179" y="805" on="1"/>
        <pt x="2235" y="777" on="0"/>
        <pt x="2298" y="662" on="0"/>
        <pt x="2298" y="571" on="1"/>
        <pt x="2298" y="519" on="0"/>
        <pt x="2276" y="413" on="0"/>
        <pt x="2232" y="322" on="0"/>
        <pt x="2168" y="255" on="0"/>
        <pt x="2126" y="242" on="1"/>
        <pt x="2137" y="198" on="0"/>
        <pt x="2164" y="121" on="0"/>
        <pt x="2193" y="102" on="1"/>
        <pt x="2223" y="114" on="0"/>
        <pt x="2270" y="160" on="0"/>
        <pt x="2307" y="214" on="0"/>
        <pt x="2335" y="272" on="0"/>
        <pt x="2345" y="297" on="1"/>
        <pt x="2345" y="406" on="1"/>
        <pt x="2347" y="461" on="0"/>
        <pt x="2363" y="567" on="0"/>
        <pt x="2394" y="665" on="0"/>
        <pt x="2443" y="753" on="0"/>
        <pt x="2478" y="791" on="1"/>
        <pt x="2513" y="791" on="0"/>
        <pt x="2591" y="776" on="0"/>
        <pt x="2623" y="764" on="1"/>
        <pt x="2626" y="771" on="0"/>
        <pt x="2636" y="815" on="0"/>
        <pt x="2649" y="864" on="0"/>
        <pt x="2663" y="904" on="0"/>
        <pt x="2669" y="909" on="1"/>
        <pt x="2686" y="914" on="0"/>
        <pt x="2738" y="905" on="0"/>
        <pt x="2791" y="885" on="0"/>
        <pt x="2837" y="858" on="0"/>
        <pt x="2849" y="846" on="1"/>
        <pt x="2837" y="765" on="0"/>
        <pt x="2821" y="568" on="0"/>
        <pt x="2819" y="365" on="0"/>
        <pt x="2837" y="172" on="0"/>
        <pt x="2859" y="96" on="1"/>
        <pt x="2874" y="92" on="0"/>
        <pt x="2904" y="118" on="0"/>
        <pt x="2932" y="157" on="0"/>
        <pt x="2954" y="199" on="0"/>
        <pt x="2961" y="211" on="1"/>
        <pt x="2955" y="240" on="1"/>
        <pt x="2935" y="335" on="0"/>
        <pt x="2917" y="542" on="0"/>
        <pt x="2920" y="756" on="0"/>
        <pt x="2942" y="968" on="0"/>
        <pt x="2984" y="1168" on="0"/>
        <pt x="3046" y="1346" on="0"/>
        <pt x="3086" y="1419" on="1"/>
        <pt x="3176" y="1404" on="0"/>
        <pt x="3294" y="1348" on="0"/>
        <pt x="3363" y="1254" on="0"/>
        <pt x="3391" y="1119" on="0"/>
        <pt x="3391" y="1026" on="1"/>
        <pt x="3391" y="938" on="0"/>
        <pt x="3361" y="752" on="0"/>
        <pt x="3302" y="588" on="0"/>
        <pt x="3215" y="464" on="0"/>
        <pt x="3158" y="438" on="1"/>
        <pt x="3158" y="332" on="0"/>
        <pt x="3199" y="161" on="0"/>
        <pt x="3244" y="96" on="1"/>
        <pt x="3306" y="143" on="0"/>
        <pt x="3402" y="311" on="0"/>
        <pt x="3434" y="442" on="1"/>
        <pt x="3445" y="447" on="0"/>
        <pt x="3457" y="446" on="0"/>
        <pt x="3463" y="446" on="1"/>
        <pt x="3465" y="406" on="0"/>
        <pt x="3461" y="312" on="0"/>
        <pt x="3442" y="216" on="0"/>
        <pt x="3406" y="127" on="0"/>
        <pt x="3348" y="58" on="0"/>
        <pt x="3266" y="16" on="0"/>
        <pt x="3211" y="16" on="1"/>
        <pt x="3136" y="16" on="0"/>
        <pt x="3025" y="81" on="0"/>
        <pt x="2990" y="141" on="1"/>
        <pt x="2984" y="117" on="0"/>
        <pt x="2960" y="72" on="0"/>
        <pt x="2926" y="37" on="0"/>
        <pt x="2882" y="16" on="0"/>
        <pt x="2857" y="16" on="1"/>
        <pt x="2828" y="16" on="0"/>
        <pt x="2776" y="40" on="0"/>
        <pt x="2734" y="77" on="0"/>
        <pt x="2702" y="122" on="0"/>
        <pt x="2693" y="143" on="1"/>
        <pt x="2688" y="122" on="0"/>
        <pt x="2659" y="85" on="0"/>
        <pt x="2620" y="57" on="0"/>
        <pt x="2576" y="39" on="0"/>
        <pt x="2556" y="37" on="1"/>
        <pt x="2476" y="37" on="0"/>
        <pt x="2387" y="108" on="0"/>
        <pt x="2372" y="164" on="1"/>
        <pt x="2359" y="143" on="0"/>
        <pt x="2323" y="101" on="0"/>
        <pt x="2277" y="65" on="0"/>
        <pt x="2221" y="40" on="0"/>
        <pt x="2187" y="37" on="1"/>
        <pt x="2107" y="37" on="0"/>
        <pt x="1998" y="101" on="0"/>
        <pt x="1933" y="208" on="0"/>
        <pt x="1908" y="347" on="0"/>
        <pt x="1913" y="422" on="1"/>
        <pt x="1914" y="478" on="0"/>
        <pt x="1927" y="596" on="0"/>
        <pt x="1949" y="706" on="0"/>
        <pt x="1980" y="800" on="0"/>
        <pt x="1999" y="831" on="1"/>
        <pt x="2036" y="836" on="0"/>
        <pt x="2071" y="831" on="1"/>
        <pt x="2061" y="850" on="0"/>
        <pt x="2044" y="892" on="0"/>
        <pt x="2038" y="913" on="1"/>
        <pt x="1996" y="922" on="0"/>
        <pt x="1918" y="964" on="0"/>
        <pt x="1845" y="1023" on="0"/>
        <pt x="1778" y="1093" on="0"/>
        <pt x="1747" y="1130" on="1"/>
        <pt x="1732" y="1143" on="0"/>
        <pt x="1673" y="1157" on="0"/>
        <pt x="1606" y="1170" on="0"/>
        <pt x="1542" y="1190" on="0"/>
        <pt x="1522" y="1208" on="1"/>
        <pt x="1514" y="1215" on="0"/>
        <pt x="1518" y="1229" on="0"/>
        <pt x="1526" y="1229" on="1"/>
        <pt x="1527" y="1227" on="0"/>
        <pt x="1565" y="1222" on="0"/>
        <pt x="1621" y="1216" on="0"/>
        <pt x="1689" y="1210" on="0"/>
        <pt x="1752" y="1205" on="0"/>
        <pt x="1800" y="1202" on="0"/>
        <pt x="1810" y="1202" on="1"/>
        <pt x="1884" y="1216" on="0"/>
        <pt x="2026" y="1242" on="0"/>
        <pt x="2141" y="1266" on="0"/>
        <pt x="2221" y="1289" on="0"/>
        <pt x="2232" y="1300" on="1"/>
        <pt x="2245" y="1345" on="0"/>
        <pt x="2313" y="1395" on="0"/>
        <pt x="2351" y="1395" on="1"/>
        <pt x="2367" y="1395" on="0"/>
        <pt x="2394" y="1390" on="0"/>
        <pt x="2406" y="1382" on="1"/>
        <pt x="2441" y="1395" on="1"/>
        <pt x="2443" y="1395" on="0"/>
        <pt x="2443" y="1394" on="0"/>
        <pt x="2444" y="1394" on="1"/>
        <pt x="2445" y="1394" on="1"/>
        <pt x="2444" y="1393" on="0"/>
        <pt x="2443" y="1393" on="1"/>
        <pt x="2435" y="1354" on="1"/>
        <pt x="2470" y="1354" on="1"/>
        <pt x="2471" y="1353" on="0"/>
        <pt x="2471" y="1352" on="1"/>
        <pt x="2470" y="1352" on="1"/>
      </contour>
      <contour>
        <pt x="2148" y="817" on="1"/>
        <pt x="2134" y="836" on="0"/>
        <pt x="2108" y="883" on="0"/>
        <pt x="2097" y="909" on="1"/>
        <pt x="2066" y="909" on="1"/>
        <pt x="2091" y="829" on="1"/>
        <pt x="2106" y="826" on="0"/>
        <pt x="2134" y="822" on="0"/>
      </contour>
    </TTGlyph>
    <TTGlyph name="four" xMin="92" yMin="0" xMax="1100" yMax="1283">
      <contour>
        <pt x="1100" y="344" on="1"/>
        <pt x="951" y="344" on="1"/>
        <pt x="951" y="229" on="1"/>
        <pt x="1092" y="229" on="1"/>
        <pt x="1092" y="0" on="1"/>
        <pt x="439" y="0" on="1"/>
        <pt x="439" y="229" on="1"/>
        <pt x="689" y="229" on="1"/>
        <pt x="689" y="344" on="1"/>
        <pt x="92" y="344" on="1"/>
        <pt x="92" y="559" on="1"/>
        <pt x="540" y="1283" on="1"/>
        <pt x="741" y="1169" on="1"/>
        <pt x="376" y="560" on="1"/>
        <pt x="689" y="560" on="1"/>
        <pt x="689" y="948" on="1"/>
        <pt x="951" y="948" on="1"/>
        <pt x="951" y="560" on="1"/>
        <pt x="1100" y="560" on="1"/>
      </contour>
    </TTGlyph>
    <TTGlyph name="fraction" xMin="-30" yMin="-45" xMax="710" yMax="1278">
      <contour>
        <pt x="164" y="-45" on="1"/>
        <pt x="-30" y="-45" on="1"/>
        <pt x="518" y="1278" on="1"/>
        <pt x="710" y="1278" on="1"/>
      </contour>
    </TTGlyph>
    <TTGlyph name="g" xMin="45" yMin="-507" xMax="1162" yMax="1026">
      <contour>
        <pt x="299" y="588" on="1"/>
        <pt x="299" y="544" on="0"/>
        <pt x="337" y="481" on="0"/>
        <pt x="397" y="441" on="0"/>
        <pt x="474" y="422" on="0"/>
        <pt x="514" y="422" on="1"/>
        <pt x="562" y="422" on="0"/>
        <pt x="641" y="442" on="0"/>
        <pt x="698" y="484" on="0"/>
        <pt x="729" y="546" on="0"/>
        <pt x="729" y="588" on="1"/>
        <pt x="729" y="679" on="0"/>
        <pt x="617" y="779" on="0"/>
        <pt x="514" y="779" on="1"/>
        <pt x="411" y="779" on="0"/>
        <pt x="299" y="681" on="0"/>
      </contour>
      <contour>
        <pt x="512" y="970" on="1"/>
        <pt x="669" y="970" on="0"/>
        <pt x="765" y="918" on="1"/>
        <pt x="1082" y="1026" on="1"/>
        <pt x="1162" y="796" on="1"/>
        <pt x="929" y="763" on="1"/>
        <pt x="969" y="689" on="0"/>
        <pt x="969" y="591" on="1"/>
        <pt x="969" y="514" on="0"/>
        <pt x="919" y="390" on="0"/>
        <pt x="834" y="308" on="0"/>
        <pt x="715" y="255" on="0"/>
        <pt x="584" y="232" on="0"/>
        <pt x="510" y="233" on="1"/>
        <pt x="435" y="234" on="1"/>
        <pt x="435" y="122" on="1"/>
        <pt x="635" y="122" on="1"/>
        <pt x="821" y="122" on="0"/>
        <pt x="1012" y="-37" on="0"/>
        <pt x="1012" y="-182" on="1"/>
        <pt x="1012" y="-268" on="0"/>
        <pt x="933" y="-397" on="0"/>
        <pt x="794" y="-471" on="0"/>
        <pt x="625" y="-507" on="0"/>
        <pt x="526" y="-507" on="1"/>
        <pt x="245" y="-507" on="0"/>
        <pt x="45" y="-400" on="1"/>
        <pt x="137" y="-194" on="1"/>
        <pt x="253" y="-241" on="0"/>
        <pt x="425" y="-284" on="0"/>
        <pt x="526" y="-284" on="1"/>
        <pt x="654" y="-284" on="0"/>
        <pt x="761" y="-223" on="0"/>
        <pt x="761" y="-181" on="1"/>
        <pt x="761" y="-161" on="0"/>
        <pt x="751" y="-134" on="0"/>
        <pt x="722" y="-107" on="0"/>
        <pt x="659" y="-94" on="0"/>
        <pt x="612" y="-94" on="1"/>
        <pt x="237" y="-94" on="1"/>
        <pt x="237" y="301" on="1"/>
        <pt x="187" y="333" on="0"/>
        <pt x="117" y="395" on="0"/>
        <pt x="58" y="510" on="0"/>
        <pt x="58" y="580" on="1"/>
        <pt x="58" y="760" on="0"/>
        <pt x="305" y="970" on="0"/>
      </contour>
    </TTGlyph>
    <TTGlyph name="germandbls" xMin="14" yMin="-35" xMax="1130" yMax="1365">
      <contour>
        <pt x="14" y="0" on="1"/>
        <pt x="14" y="229" on="1"/>
        <pt x="186" y="229" on="1"/>
        <pt x="186" y="702" on="1"/>
        <pt x="14" y="702" on="1"/>
        <pt x="14" y="930" on="1"/>
        <pt x="186" y="930" on="1"/>
        <pt x="186" y="1158" on="0"/>
        <pt x="380" y="1365" on="0"/>
        <pt x="602" y="1365" on="1"/>
        <pt x="790" y="1365" on="0"/>
        <pt x="1010" y="1191" on="0"/>
        <pt x="1010" y="1053" on="1"/>
        <pt x="1010" y="999" on="0"/>
        <pt x="973" y="909" on="0"/>
        <pt x="916" y="853" on="0"/>
        <pt x="851" y="801" on="0"/>
        <pt x="794" y="764" on="0"/>
        <pt x="757" y="715" on="0"/>
        <pt x="757" y="688" on="1"/>
        <pt x="757" y="648" on="0"/>
        <pt x="812" y="591" on="0"/>
        <pt x="894" y="552" on="1"/>
        <pt x="1130" y="440" on="0"/>
        <pt x="1130" y="267" on="1"/>
        <pt x="1130" y="125" on="0"/>
        <pt x="934" y="-35" on="0"/>
        <pt x="790" y="-35" on="1"/>
        <pt x="628" y="-35" on="0"/>
        <pt x="533" y="49" on="1"/>
        <pt x="528" y="53" on="0"/>
        <pt x="519" y="62" on="0"/>
        <pt x="514" y="68" on="1"/>
        <pt x="481" y="245" on="1"/>
        <pt x="676" y="285" on="1"/>
        <pt x="694" y="182" on="1"/>
        <pt x="728" y="156" on="0"/>
        <pt x="789" y="156" on="1"/>
        <pt x="842" y="156" on="0"/>
        <pt x="893" y="211" on="0"/>
        <pt x="893" y="245" on="1"/>
        <pt x="893" y="330" on="0"/>
        <pt x="750" y="398" on="1"/>
        <pt x="621" y="459" on="0"/>
        <pt x="524" y="568" on="0"/>
        <pt x="524" y="664" on="1"/>
        <pt x="524" y="716" on="0"/>
        <pt x="562" y="804" on="0"/>
        <pt x="619" y="860" on="0"/>
        <pt x="686" y="916" on="0"/>
        <pt x="743" y="959" on="0"/>
        <pt x="781" y="1019" on="0"/>
        <pt x="781" y="1053" on="1"/>
        <pt x="781" y="1109" on="0"/>
        <pt x="692" y="1174" on="0"/>
        <pt x="613" y="1174" on="1"/>
        <pt x="568" y="1174" on="0"/>
        <pt x="504" y="1148" on="0"/>
        <pt x="469" y="1109" on="0"/>
        <pt x="451" y="1042" on="0"/>
        <pt x="446" y="982" on="0"/>
        <pt x="446" y="936" on="1"/>
        <pt x="446" y="0" on="1"/>
      </contour>
    </TTGlyph>
    <TTGlyph name="grave" xMin="82" yMin="1040" xMax="634" yMax="1477">
      <contour>
        <pt x="634" y="1148" on="1"/>
        <pt x="565" y="1040" on="1"/>
        <pt x="82" y="1257" on="1"/>
        <pt x="198" y="1477" on="1"/>
      </contour>
    </TTGlyph>
    <TTGlyph name="greater" xMin="45" yMin="90" xMax="1005" yMax="1154">
      <contour>
        <pt x="143" y="90" on="1"/>
        <pt x="45" y="295" on="1"/>
        <pt x="747" y="635" on="1"/>
        <pt x="747" y="645" on="1"/>
        <pt x="63" y="949" on="1"/>
        <pt x="163" y="1154" on="1"/>
        <pt x="1005" y="738" on="1"/>
        <pt x="1005" y="552" on="1"/>
      </contour>
    </TTGlyph>
    <TTGlyph name="guillemotleft" xMin="57" yMin="-32" xMax="793" yMax="924">
      <contour>
        <pt x="373" y="-32" on="1"/>
        <pt x="58" y="446" on="1"/>
        <pt x="373" y="924" on="1"/>
        <pt x="540" y="804" on="1"/>
        <pt x="302" y="444" on="1"/>
        <pt x="540" y="88" on="1"/>
      </contour>
      <contour>
        <pt x="648" y="142" on="1"/>
        <pt x="475" y="446" on="1"/>
        <pt x="648" y="750" on="1"/>
        <pt x="793" y="627" on="1"/>
        <pt x="685" y="443" on="1"/>
        <pt x="793" y="265" on="1"/>
      </contour>
      <contour>
        <pt x="57" y="444" on="1"/>
        <pt x="57" y="448" on="1"/>
        <pt x="58" y="446" on="1"/>
      </contour>
    </TTGlyph>
    <TTGlyph name="guillemotright" xMin="6" yMin="-32" xMax="742" yMax="924">
      <contour>
        <pt x="259" y="804" on="1"/>
        <pt x="426" y="924" on="1"/>
        <pt x="740" y="446" on="1"/>
        <pt x="426" y="-32" on="1"/>
        <pt x="259" y="88" on="1"/>
        <pt x="497" y="444" on="1"/>
      </contour>
      <contour>
        <pt x="324" y="446" on="1"/>
        <pt x="151" y="142" on="1"/>
        <pt x="6" y="265" on="1"/>
        <pt x="114" y="443" on="1"/>
        <pt x="6" y="627" on="1"/>
        <pt x="151" y="750" on="1"/>
      </contour>
      <contour>
        <pt x="742" y="448" on="1"/>
        <pt x="742" y="444" on="1"/>
        <pt x="740" y="446" on="1"/>
      </contour>
    </TTGlyph>
    <TTGlyph name="guilsinglleft" xMin="57" yMin="-32" xMax="540" yMax="924">
      <contour>
        <pt x="373" y="-32" on="1"/>
        <pt x="58" y="446" on="1"/>
        <pt x="373" y="924" on="1"/>
        <pt x="540" y="804" on="1"/>
        <pt x="312" y="444" on="1"/>
        <pt x="540" y="88" on="1"/>
      </contour>
      <contour>
        <pt x="57" y="444" on="1"/>
        <pt x="57" y="448" on="1"/>
        <pt x="58" y="446" on="1"/>
      </contour>
    </TTGlyph>
    <TTGlyph name="guilsinglright" xMin="6" yMin="-32" xMax="489" yMax="924">
      <contour>
        <pt x="6" y="804" on="1"/>
        <pt x="173" y="924" on="1"/>
        <pt x="487" y="446" on="1"/>
        <pt x="173" y="-32" on="1"/>
        <pt x="6" y="88" on="1"/>
        <pt x="234" y="444" on="1"/>
      </contour>
      <contour>
        <pt x="489" y="448" on="1"/>
        <pt x="489" y="444" on="1"/>
        <pt x="487" y="446" on="1"/>
      </contour>
    </TTGlyph>
    <TTGlyph name="h" xMin="14" yMin="0" xMax="1278" yMax="1390">
      <contour>
        <pt x="469" y="1260" on="1"/>
        <pt x="469" y="897" on="1"/>
        <pt x="596" y="970" on="0"/>
        <pt x="775" y="970" on="1"/>
        <pt x="932" y="970" on="0"/>
        <pt x="1106" y="770" on="0"/>
        <pt x="1106" y="586" on="1"/>
        <pt x="1106" y="207" on="1"/>
        <pt x="1278" y="207" on="1"/>
        <pt x="1278" y="0" on="1"/>
        <pt x="764" y="0" on="1"/>
        <pt x="764" y="207" on="1"/>
        <pt x="846" y="207" on="1"/>
        <pt x="846" y="553" on="1"/>
        <pt x="846" y="648" on="0"/>
        <pt x="773" y="751" on="0"/>
        <pt x="679" y="751" on="1"/>
        <pt x="637" y="751" on="0"/>
        <pt x="533" y="727" on="0"/>
        <pt x="502" y="715" on="1"/>
        <pt x="469" y="703" on="1"/>
        <pt x="469" y="207" on="1"/>
        <pt x="553" y="207" on="1"/>
        <pt x="553" y="0" on="1"/>
        <pt x="39" y="0" on="1"/>
        <pt x="39" y="207" on="1"/>
        <pt x="209" y="207" on="1"/>
        <pt x="209" y="1116" on="1"/>
        <pt x="14" y="1181" on="1"/>
        <pt x="81" y="1390" on="1"/>
      </contour>
    </TTGlyph>
    <TTGlyph name="hyphen" xMin="109" yMin="353" xMax="796" yMax="559">
      <contour>
        <pt x="109" y="353" on="1"/>
        <pt x="109" y="559" on="1"/>
        <pt x="796" y="559" on="1"/>
        <pt x="796" y="353" on="1"/>
      </contour>
    </TTGlyph>
    <TTGlyph name="i" xMin="25" yMin="0" xMax="625" yMax="1365">
      <contour>
        <pt x="487" y="1188" on="1"/>
        <pt x="487" y="1152" on="0"/>
        <pt x="458" y="1088" on="0"/>
        <pt x="410" y="1039" on="0"/>
        <pt x="346" y="1011" on="0"/>
        <pt x="310" y="1011" on="1"/>
        <pt x="274" y="1011" on="0"/>
        <pt x="210" y="1039" on="0"/>
        <pt x="162" y="1087" on="0"/>
        <pt x="134" y="1152" on="0"/>
        <pt x="134" y="1188" on="1"/>
        <pt x="134" y="1223" on="0"/>
        <pt x="163" y="1287" on="0"/>
        <pt x="211" y="1336" on="0"/>
        <pt x="275" y="1365" on="0"/>
        <pt x="310" y="1365" on="1"/>
        <pt x="344" y="1365" on="0"/>
        <pt x="408" y="1336" on="0"/>
        <pt x="458" y="1287" on="0"/>
        <pt x="487" y="1223" on="0"/>
      </contour>
      <contour>
        <pt x="195" y="723" on="1"/>
        <pt x="25" y="723" on="1"/>
        <pt x="25" y="930" on="1"/>
        <pt x="455" y="930" on="1"/>
        <pt x="455" y="207" on="1"/>
        <pt x="625" y="207" on="1"/>
        <pt x="625" y="0" on="1"/>
        <pt x="25" y="0" on="1"/>
        <pt x="25" y="207" on="1"/>
        <pt x="195" y="207" on="1"/>
      </contour>
    </TTGlyph>
    <TTGlyph name="iacute" xMin="15" yMin="0" xMax="615" yMax="1477">
      <component glyphName="dotlessi" x="-10" y="0" flags="0x4"/>
      <component glyphName="acute" x="-38" y="0" flags="0x4"/>
    </TTGlyph>
    <TTGlyph name="icircumflex" xMin="-87" yMin="0" xMax="637" yMax="1484">
      <component glyphName="dotlessi" x="-10" y="0" flags="0x4"/>
      <component glyphName="circumflex" x="-103" y="0" flags="0x4"/>
    </TTGlyph>
    <TTGlyph name="idieresis" xMin="-59" yMin="0" xMax="615" yMax="1396">
      <component glyphName="dotlessi" x="-10" y="0" flags="0x4"/>
      <component glyphName="dieresis" x="-143" y="0" flags="0x4"/>
    </TTGlyph>
    <TTGlyph name="igrave" xMin="-45" yMin="0" xMax="615" yMax="1477">
      <component glyphName="dotlessi" x="-10" y="0" flags="0x4"/>
      <component glyphName="grave" x="-127" y="0" flags="0x4"/>
    </TTGlyph>
    <TTGlyph name="j" xMin="-57" yMin="-507" xMax="544" yMax="1365">
      <contour>
        <pt x="544" y="1188" on="1"/>
        <pt x="544" y="1115" on="0"/>
        <pt x="438" y="1011" on="0"/>
        <pt x="367" y="1011" on="1"/>
        <pt x="293" y="1011" on="0"/>
        <pt x="190" y="1114" on="0"/>
        <pt x="190" y="1188" on="1"/>
        <pt x="190" y="1259" on="0"/>
        <pt x="294" y="1365" on="0"/>
        <pt x="367" y="1365" on="1"/>
        <pt x="437" y="1365" on="0"/>
        <pt x="544" y="1258" on="0"/>
      </contour>
      <contour>
        <pt x="250" y="723" on="1"/>
        <pt x="77" y="723" on="1"/>
        <pt x="77" y="930" on="1"/>
        <pt x="510" y="930" on="1"/>
        <pt x="510" y="-74" on="1"/>
        <pt x="510" y="-157" on="0"/>
        <pt x="487" y="-325" on="0"/>
        <pt x="385" y="-459" on="0"/>
        <pt x="199" y="-507" on="0"/>
        <pt x="117" y="-507" on="1"/>
        <pt x="60" y="-507" on="0"/>
        <pt x="-57" y="-483" on="1"/>
        <pt x="-30" y="-279" on="1"/>
        <pt x="40" y="-289" on="0"/>
        <pt x="93" y="-289" on="1"/>
        <pt x="137" y="-289" on="0"/>
        <pt x="215" y="-258" on="0"/>
        <pt x="250" y="-188" on="0"/>
        <pt x="250" y="-104" on="1"/>
      </contour>
    </TTGlyph>
    <TTGlyph name="k" xMin="14" yMin="0" xMax="1133" yMax="1390">
      <contour>
        <pt x="701" y="723" on="1"/>
        <pt x="597" y="723" on="1"/>
        <pt x="597" y="930" on="1"/>
        <pt x="1114" y="930" on="1"/>
        <pt x="1114" y="723" on="1"/>
        <pt x="964" y="723" on="1"/>
        <pt x="785" y="461" on="1"/>
        <pt x="964" y="207" on="1"/>
        <pt x="1133" y="207" on="1"/>
        <pt x="1133" y="0" on="1"/>
        <pt x="819" y="0" on="1"/>
        <pt x="575" y="354" on="1"/>
        <pt x="469" y="354" on="1"/>
        <pt x="469" y="207" on="1"/>
        <pt x="529" y="207" on="1"/>
        <pt x="529" y="0" on="1"/>
        <pt x="37" y="0" on="1"/>
        <pt x="37" y="207" on="1"/>
        <pt x="209" y="207" on="1"/>
        <pt x="209" y="1116" on="1"/>
        <pt x="14" y="1181" on="1"/>
        <pt x="81" y="1390" on="1"/>
        <pt x="469" y="1260" on="1"/>
        <pt x="469" y="560" on="1"/>
        <pt x="604" y="560" on="1"/>
      </contour>
    </TTGlyph>
    <TTGlyph name="l" xMin="25" yMin="0" xMax="652" yMax="1390">
      <contour>
        <pt x="480" y="1260" on="1"/>
        <pt x="480" y="207" on="1"/>
        <pt x="652" y="207" on="1"/>
        <pt x="652" y="0" on="1"/>
        <pt x="48" y="0" on="1"/>
        <pt x="48" y="207" on="1"/>
        <pt x="220" y="207" on="1"/>
        <pt x="220" y="1116" on="1"/>
        <pt x="25" y="1181" on="1"/>
        <pt x="92" y="1390" on="1"/>
      </contour>
    </TTGlyph>
    <TTGlyph name="less" xMin="57" yMin="90" xMax="1017" yMax="1154">
      <contour>
        <pt x="1017" y="295" on="1"/>
        <pt x="919" y="90" on="1"/>
        <pt x="57" y="552" on="1"/>
        <pt x="57" y="738" on="1"/>
        <pt x="899" y="1154" on="1"/>
        <pt x="999" y="949" on="1"/>
        <pt x="315" y="645" on="1"/>
        <pt x="315" y="635" on="1"/>
      </contour>
    </TTGlyph>
    <TTGlyph name="logicalnot" xMin="66" yMin="212" xMax="1102" yMax="733">
      <contour>
        <pt x="66" y="526" on="1"/>
        <pt x="66" y="733" on="1"/>
        <pt x="1102" y="733" on="1"/>
        <pt x="1102" y="212" on="1"/>
        <pt x="842" y="212" on="1"/>
        <pt x="842" y="526" on="1"/>
      </contour>
    </TTGlyph>
    <TTGlyph name="m" xMin="10" yMin="0" xMax="1807" yMax="970">
      <contour>
        <pt x="1634" y="208" on="1"/>
        <pt x="1807" y="208" on="1"/>
        <pt x="1807" y="0" on="1"/>
        <pt x="1298" y="0" on="1"/>
        <pt x="1298" y="208" on="1"/>
        <pt x="1374" y="208" on="1"/>
        <pt x="1374" y="547" on="1"/>
        <pt x="1374" y="596" on="0"/>
        <pt x="1362" y="661" on="0"/>
        <pt x="1331" y="718" on="0"/>
        <pt x="1269" y="745" on="0"/>
        <pt x="1221" y="745" on="1"/>
        <pt x="1138" y="745" on="0"/>
        <pt x="1051" y="678" on="1"/>
        <pt x="1051" y="208" on="1"/>
        <pt x="1126" y="208" on="1"/>
        <pt x="1126" y="0" on="1"/>
        <pt x="709" y="0" on="1"/>
        <pt x="709" y="208" on="1"/>
        <pt x="790" y="208" on="1"/>
        <pt x="790" y="547" on="1"/>
        <pt x="790" y="596" on="0"/>
        <pt x="779" y="661" on="0"/>
        <pt x="747" y="718" on="0"/>
        <pt x="685" y="745" on="0"/>
        <pt x="637" y="745" on="1"/>
        <pt x="554" y="745" on="0"/>
        <pt x="465" y="678" on="1"/>
        <pt x="465" y="208" on="1"/>
        <pt x="545" y="208" on="1"/>
        <pt x="545" y="0" on="1"/>
        <pt x="33" y="0" on="1"/>
        <pt x="33" y="208" on="1"/>
        <pt x="205" y="208" on="1"/>
        <pt x="205" y="682" on="1"/>
        <pt x="10" y="741" on="1"/>
        <pt x="77" y="950" on="1"/>
        <pt x="376" y="856" on="1"/>
        <pt x="420" y="895" on="0"/>
        <pt x="582" y="970" on="0"/>
        <pt x="653" y="970" on="1"/>
        <pt x="763" y="970" on="0"/>
        <pt x="903" y="917" on="0"/>
        <pt x="953" y="852" on="1"/>
        <pt x="1006" y="892" on="0"/>
        <pt x="1168" y="970" on="0"/>
        <pt x="1242" y="970" on="1"/>
        <pt x="1342" y="970" on="0"/>
        <pt x="1480" y="932" on="0"/>
        <pt x="1584" y="839" on="0"/>
        <pt x="1633" y="674" on="0"/>
        <pt x="1634" y="552" on="1"/>
      </contour>
    </TTGlyph>
    <TTGlyph name="macron" xMin="24" yMin="977" xMax="736" yMax="1206">
      <contour>
        <pt x="24" y="977" on="1"/>
        <pt x="24" y="1206" on="1"/>
        <pt x="736" y="1206" on="1"/>
        <pt x="736" y="977" on="1"/>
      </contour>
    </TTGlyph>
    <TTGlyph name="minus" xMin="65" yMin="525" xMax="887" yMax="737">
      <contour>
        <pt x="65" y="737" on="1"/>
        <pt x="887" y="737" on="1"/>
        <pt x="887" y="525" on="1"/>
        <pt x="65" y="525" on="1"/>
      </contour>
    </TTGlyph>
    <TTGlyph name="mu" xMin="140" yMin="-459" xMax="1215" yMax="930">
      <contour>
        <pt x="140" y="930" on="1"/>
        <pt x="401" y="930" on="1"/>
        <pt x="401" y="384" on="1"/>
        <pt x="401" y="289" on="0"/>
        <pt x="473" y="191" on="0"/>
        <pt x="568" y="191" on="1"/>
        <pt x="610" y="191" on="0"/>
        <pt x="714" y="216" on="0"/>
        <pt x="745" y="228" on="1"/>
        <pt x="776" y="240" on="1"/>
        <pt x="776" y="930" on="1"/>
        <pt x="1036" y="930" on="1"/>
        <pt x="1036" y="242" on="1"/>
        <pt x="1215" y="180" on="1"/>
        <pt x="1143" y="-45" on="1"/>
        <pt x="865" y="45" on="1"/>
        <pt x="713" y="-40" on="0"/>
        <pt x="558" y="-40" on="1"/>
        <pt x="436" y="-40" on="0"/>
        <pt x="349" y="-9" on="1"/>
        <pt x="350" y="-147" on="0"/>
        <pt x="430" y="-242" on="0"/>
        <pt x="519" y="-242" on="1"/>
        <pt x="540" y="-242" on="0"/>
        <pt x="611" y="-226" on="0"/>
        <pt x="636" y="-218" on="1"/>
        <pt x="660" y="-209" on="1"/>
        <pt x="705" y="-421" on="1"/>
        <pt x="595" y="-459" on="0"/>
        <pt x="499" y="-459" on="1"/>
        <pt x="141" y="-459" on="0"/>
        <pt x="141" y="-26" on="1"/>
      </contour>
    </TTGlyph>
    <TTGlyph name="multiply" xMin="102" yMin="240" xMax="849" yMax="993">
      <contour>
        <pt x="260" y="262" on="1"/>
        <pt x="110" y="412" on="1"/>
        <pt x="310" y="612" on="1"/>
        <pt x="102" y="820" on="1"/>
        <pt x="268" y="986" on="1"/>
        <pt x="476" y="778" on="1"/>
        <pt x="691" y="993" on="1"/>
        <pt x="841" y="843" on="1"/>
        <pt x="626" y="628" on="1"/>
        <pt x="849" y="406" on="1"/>
        <pt x="682" y="240" on="1"/>
        <pt x="460" y="462" on="1"/>
      </contour>
    </TTGlyph>
    <TTGlyph name="n" xMin="10" yMin="0" xMax="1269" yMax="970">
      <contour>
        <pt x="31" y="0" on="1"/>
        <pt x="31" y="207" on="1"/>
        <pt x="206" y="207" on="1"/>
        <pt x="206" y="671" on="1"/>
        <pt x="10" y="739" on="1"/>
        <pt x="77" y="948" on="1"/>
        <pt x="366" y="849" on="1"/>
        <pt x="456" y="911" on="0"/>
        <pt x="620" y="970" on="0"/>
        <pt x="739" y="970" on="1"/>
        <pt x="836" y="970" on="0"/>
        <pt x="979" y="909" on="0"/>
        <pt x="1061" y="798" on="0"/>
        <pt x="1099" y="660" on="0"/>
        <pt x="1098" y="576" on="1"/>
        <pt x="1098" y="207" on="1"/>
        <pt x="1269" y="207" on="1"/>
        <pt x="1269" y="0" on="1"/>
        <pt x="754" y="0" on="1"/>
        <pt x="754" y="207" on="1"/>
        <pt x="839" y="207" on="1"/>
        <pt x="839" y="545" on="1"/>
        <pt x="838" y="638" on="0"/>
        <pt x="763" y="741" on="0"/>
        <pt x="672" y="741" on="1"/>
        <pt x="615" y="741" on="0"/>
        <pt x="501" y="700" on="0"/>
        <pt x="466" y="672" on="1"/>
        <pt x="466" y="207" on="1"/>
        <pt x="546" y="207" on="1"/>
        <pt x="546" y="0" on="1"/>
      </contour>
    </TTGlyph>
    <TTGlyph name="nine" xMin="53" yMin="-45" xMax="1069" yMax="1251">
      <contour>
        <pt x="472" y="184" on="1"/>
        <pt x="612" y="184" on="0"/>
        <pt x="792" y="379" on="0"/>
        <pt x="792" y="519" on="1"/>
        <pt x="638" y="410" on="0"/>
        <pt x="469" y="410" on="1"/>
        <pt x="403" y="410" on="0"/>
        <pt x="287" y="435" on="0"/>
        <pt x="178" y="494" on="0"/>
        <pt x="100" y="585" on="0"/>
        <pt x="53" y="728" on="0"/>
        <pt x="53" y="818" on="1"/>
        <pt x="53" y="871" on="0"/>
        <pt x="78" y="979" on="0"/>
        <pt x="147" y="1100" on="0"/>
        <pt x="253" y="1191" on="0"/>
        <pt x="433" y="1251" on="0"/>
        <pt x="548" y="1251" on="1"/>
        <pt x="811" y="1251" on="0"/>
        <pt x="1069" y="931" on="0"/>
        <pt x="1069" y="606" on="1"/>
        <pt x="1069" y="318" on="0"/>
        <pt x="745" y="-45" on="0"/>
        <pt x="476" y="-45" on="1"/>
        <pt x="387" y="-45" on="0"/>
        <pt x="196" y="13" on="0"/>
        <pt x="141" y="50" on="1"/>
        <pt x="218" y="253" on="1"/>
        <pt x="270" y="219" on="0"/>
        <pt x="409" y="184" on="0"/>
      </contour>
      <contour>
        <pt x="321" y="818" on="1"/>
        <pt x="321" y="709" on="0"/>
        <pt x="433" y="609" on="0"/>
        <pt x="521" y="609" on="1"/>
        <pt x="593" y="609" on="0"/>
        <pt x="741" y="667" on="0"/>
        <pt x="785" y="710" on="1"/>
        <pt x="756" y="1031" on="0"/>
        <pt x="533" y="1031" on="1"/>
        <pt x="433" y="1031" on="0"/>
        <pt x="321" y="899" on="0"/>
      </contour>
    </TTGlyph>
    <TTGlyph name="ntilde" xMin="10" yMin="0" xMax="1269" yMax="1404">
      <component glyphName="n" x="0" y="0" flags="0x4"/>
      <component glyphName="tilde" x="199" y="0" flags="0x4"/>
    </TTGlyph>
    <TTGlyph name="numbersign" xMin="70" yMin="-159" xMax="1338" yMax="1205">
      <contour>
        <pt x="141" y="644" on="1"/>
        <pt x="141" y="844" on="1"/>
        <pt x="466" y="844" on="1"/>
        <pt x="566" y="1205" on="1"/>
        <pt x="768" y="1205" on="1"/>
        <pt x="668" y="844" on="1"/>
        <pt x="882" y="844" on="1"/>
        <pt x="982" y="1205" on="1"/>
        <pt x="1184" y="1205" on="1"/>
        <pt x="1084" y="844" on="1"/>
        <pt x="1338" y="844" on="1"/>
        <pt x="1338" y="644" on="1"/>
        <pt x="1029" y="644" on="1"/>
        <pt x="963" y="402" on="1"/>
        <pt x="1267" y="402" on="1"/>
        <pt x="1267" y="202" on="1"/>
        <pt x="908" y="202" on="1"/>
        <pt x="809" y="-159" on="1"/>
        <pt x="607" y="-159" on="1"/>
        <pt x="706" y="202" on="1"/>
        <pt x="492" y="202" on="1"/>
        <pt x="393" y="-159" on="1"/>
        <pt x="191" y="-159" on="1"/>
        <pt x="290" y="202" on="1"/>
        <pt x="70" y="202" on="1"/>
        <pt x="70" y="402" on="1"/>
        <pt x="345" y="402" on="1"/>
        <pt x="411" y="644" on="1"/>
      </contour>
      <contour>
        <pt x="613" y="644" on="1"/>
        <pt x="547" y="402" on="1"/>
        <pt x="761" y="402" on="1"/>
        <pt x="827" y="644" on="1"/>
      </contour>
    </TTGlyph>
    <TTGlyph name="o" xMin="55" yMin="-40" xMax="1057" yMax="970">
      <contour>
        <pt x="554" y="759" on="1"/>
        <pt x="437" y="759" on="0"/>
        <pt x="319" y="607" on="0"/>
        <pt x="319" y="463" on="1"/>
        <pt x="319" y="319" on="0"/>
        <pt x="437" y="165" on="0"/>
        <pt x="554" y="165" on="1"/>
        <pt x="672" y="165" on="0"/>
        <pt x="793" y="319" on="0"/>
        <pt x="793" y="463" on="1"/>
        <pt x="793" y="607" on="0"/>
        <pt x="672" y="759" on="0"/>
      </contour>
      <contour>
        <pt x="552" y="-40" on="1"/>
        <pt x="439" y="-40" on="0"/>
        <pt x="256" y="26" on="0"/>
        <pt x="126" y="154" on="0"/>
        <pt x="55" y="342" on="0"/>
        <pt x="55" y="463" on="1"/>
        <pt x="55" y="584" on="0"/>
        <pt x="126" y="773" on="0"/>
        <pt x="257" y="903" on="0"/>
        <pt x="440" y="970" on="0"/>
        <pt x="552" y="970" on="1"/>
        <pt x="667" y="970" on="0"/>
        <pt x="853" y="903" on="0"/>
        <pt x="985" y="773" on="0"/>
        <pt x="1057" y="584" on="0"/>
        <pt x="1057" y="463" on="1"/>
        <pt x="1057" y="342" on="0"/>
        <pt x="986" y="154" on="0"/>
        <pt x="854" y="26" on="0"/>
        <pt x="667" y="-40" on="0"/>
      </contour>
    </TTGlyph>
    <TTGlyph name="oacute" xMin="55" yMin="-40" xMax="1057" yMax="1477">
      <component glyphName="o" x="0" y="0" flags="0x204"/>
      <component glyphName="acute" x="220" y="0" flags="0x4"/>
    </TTGlyph>
    <TTGlyph name="ocircumflex" xMin="55" yMin="-40" xMax="1057" yMax="1484">
      <component glyphName="o" x="0" y="0" flags="0x204"/>
      <component glyphName="circumflex" x="175" y="0" flags="0x4"/>
    </TTGlyph>
    <TTGlyph name="odieresis" xMin="55" yMin="-40" xMax="1057" yMax="1396">
      <component glyphName="o" x="0" y="0" flags="0x204"/>
      <component glyphName="dieresis" x="154" y="0" flags="0x4"/>
    </TTGlyph>
    <TTGlyph name="oe" xMin="55" yMin="-45" xMax="1500" yMax="949">
      <contour>
        <pt x="1068" y="738" on="1"/>
        <pt x="900" y="738" on="0"/>
        <pt x="857" y="567" on="1"/>
        <pt x="1266" y="567" on="1"/>
        <pt x="1266" y="605" on="0"/>
        <pt x="1243" y="668" on="0"/>
        <pt x="1194" y="713" on="0"/>
        <pt x="1119" y="738" on="0"/>
      </contour>
      <contour>
        <pt x="694" y="709" on="1"/>
        <pt x="631" y="738" on="0"/>
        <pt x="554" y="738" on="1"/>
        <pt x="437" y="738" on="0"/>
        <pt x="319" y="588" on="0"/>
        <pt x="319" y="448" on="1"/>
        <pt x="319" y="308" on="0"/>
        <pt x="437" y="160" on="0"/>
        <pt x="554" y="160" on="1"/>
        <pt x="630" y="160" on="0"/>
        <pt x="690" y="188" on="1"/>
        <pt x="629" y="292" on="0"/>
        <pt x="629" y="450" on="1"/>
        <pt x="629" y="602" on="0"/>
      </contour>
      <contour>
        <pt x="840" y="869" on="1"/>
        <pt x="958" y="949" on="0"/>
        <pt x="1076" y="949" on="1"/>
        <pt x="1284" y="949" on="0"/>
        <pt x="1500" y="717" on="0"/>
        <pt x="1500" y="487" on="1"/>
        <pt x="1497" y="446" on="0"/>
        <pt x="1493" y="402" on="0"/>
        <pt x="1488" y="364" on="0"/>
        <pt x="1487" y="359" on="1"/>
        <pt x="851" y="359" on="1"/>
        <pt x="887" y="160" on="0"/>
        <pt x="1068" y="160" on="1"/>
        <pt x="1239" y="160" on="0"/>
        <pt x="1367" y="253" on="1"/>
        <pt x="1479" y="110" on="1"/>
        <pt x="1429" y="60" on="0"/>
        <pt x="1328" y="2" on="0"/>
        <pt x="1172" y="-45" on="0"/>
        <pt x="1066" y="-45" on="1"/>
        <pt x="942" y="-45" on="0"/>
        <pt x="835" y="26" on="1"/>
        <pt x="722" y="-45" on="0"/>
        <pt x="552" y="-45" on="1"/>
        <pt x="439" y="-45" on="0"/>
        <pt x="256" y="20" on="0"/>
        <pt x="126" y="145" on="0"/>
        <pt x="55" y="329" on="0"/>
        <pt x="55" y="448" on="1"/>
        <pt x="55" y="568" on="0"/>
        <pt x="126" y="755" on="0"/>
        <pt x="257" y="882" on="0"/>
        <pt x="440" y="949" on="0"/>
        <pt x="552" y="949" on="1"/>
        <pt x="639" y="949" on="0"/>
        <pt x="789" y="904" on="0"/>
      </contour>
    </TTGlyph>
    <TTGlyph name="ograve" xMin="55" yMin="-40" xMax="1057" yMax="1477">
      <component glyphName="o" x="0" y="0" flags="0x204"/>
      <component glyphName="grave" x="161" y="0" flags="0x4"/>
    </TTGlyph>
    <TTGlyph name="one" xMin="84" yMin="0" xMax="1029" yMax="1251">
      <contour>
        <pt x="237" y="674" on="1"/>
        <pt x="84" y="863" on="1"/>
        <pt x="551" y="1251" on="1"/>
        <pt x="723" y="1251" on="1"/>
        <pt x="723" y="229" on="1"/>
        <pt x="1029" y="229" on="1"/>
        <pt x="1029" y="0" on="1"/>
        <pt x="138" y="0" on="1"/>
        <pt x="138" y="229" on="1"/>
        <pt x="460" y="229" on="1"/>
        <pt x="460" y="861" on="1"/>
      </contour>
    </TTGlyph>
    <TTGlyph name="onehalf" xMin="64" yMin="-45" xMax="1723" yMax="1278">
      <component glyphName="fraction" x="528" y="0" flags="0x4"/>
      <component glyphName="onesuperior" x="30" y="0" flags="0x4"/>
      <component glyphName="twosuperior" x="970" y="-506" flags="0x4"/>
    </TTGlyph>
    <TTGlyph name="onequarter" xMin="64" yMin="-45" xMax="1709" yMax="1278">
      <component glyphName="fraction" x="528" y="0" flags="0x4"/>
      <component glyphName="onesuperior" x="30" y="0" flags="0x4"/>
      <component glyphName="uni2074" x="970" y="-505" flags="0x4"/>
    </TTGlyph>
    <TTGlyph name="onesuperior" xMin="34" yMin="506" xMax="602" yMax="1251">
      <contour>
        <pt x="140" y="879" on="1"/>
        <pt x="34" y="1011" on="1"/>
        <pt x="317" y="1251" on="1"/>
        <pt x="434" y="1251" on="1"/>
        <pt x="434" y="669" on="1"/>
        <pt x="602" y="669" on="1"/>
        <pt x="602" y="506" on="1"/>
        <pt x="69" y="506" on="1"/>
        <pt x="69" y="669" on="1"/>
        <pt x="254" y="669" on="1"/>
        <pt x="254" y="902" on="1"/>
        <pt x="265" y="980" on="1"/>
      </contour>
    </TTGlyph>
    <TTGlyph name="ordfeminine" xMin="61" yMin="290" xMax="759" yMax="970">
      <contour>
        <pt x="341" y="436" on="1"/>
        <pt x="394" y="436" on="0"/>
        <pt x="465" y="479" on="1"/>
        <pt x="465" y="564" on="1"/>
        <pt x="329" y="564" on="1"/>
        <pt x="248" y="564" on="0"/>
        <pt x="248" y="504" on="1"/>
        <pt x="248" y="475" on="0"/>
        <pt x="303" y="436" on="0"/>
      </contour>
      <contour>
        <pt x="254" y="819" on="1"/>
        <pt x="240" y="751" on="1"/>
        <pt x="85" y="782" on="1"/>
        <pt x="113" y="924" on="1"/>
        <pt x="239" y="970" on="0"/>
        <pt x="347" y="970" on="1"/>
        <pt x="435" y="970" on="0"/>
        <pt x="555" y="932" on="0"/>
        <pt x="620" y="856" on="0"/>
        <pt x="647" y="762" on="0"/>
        <pt x="647" y="698" on="1"/>
        <pt x="647" y="479" on="1"/>
        <pt x="759" y="443" on="1"/>
        <pt x="708" y="290" on="1"/>
        <pt x="533" y="350" on="1"/>
        <pt x="437" y="293" on="0"/>
        <pt x="335" y="293" on="1"/>
        <pt x="208" y="293" on="0"/>
        <pt x="61" y="406" on="0"/>
        <pt x="61" y="501" on="1"/>
        <pt x="61" y="557" on="0"/>
        <pt x="102" y="635" on="0"/>
        <pt x="178" y="676" on="0"/>
        <pt x="267" y="693" on="0"/>
        <pt x="326" y="693" on="1"/>
        <pt x="465" y="693" on="1"/>
        <pt x="465" y="759" on="0"/>
        <pt x="416" y="832" on="0"/>
        <pt x="350" y="832" on="1"/>
        <pt x="294" y="832" on="0"/>
      </contour>
    </TTGlyph>
    <TTGlyph name="ordmasculine" xMin="70" yMin="307" xMax="711" yMax="970">
      <contour>
        <pt x="389" y="307" on="1"/>
        <pt x="247" y="307" on="0"/>
        <pt x="70" y="483" on="0"/>
        <pt x="70" y="637" on="1"/>
        <pt x="70" y="793" on="0"/>
        <pt x="246" y="970" on="0"/>
        <pt x="389" y="970" on="1"/>
        <pt x="536" y="970" on="0"/>
        <pt x="711" y="794" on="0"/>
        <pt x="711" y="637" on="1"/>
        <pt x="711" y="492" on="0"/>
        <pt x="538" y="307" on="0"/>
      </contour>
      <contour>
        <pt x="391" y="799" on="1"/>
        <pt x="333" y="799" on="0"/>
        <pt x="273" y="712" on="0"/>
        <pt x="273" y="637" on="1"/>
        <pt x="273" y="564" on="0"/>
        <pt x="333" y="478" on="0"/>
        <pt x="391" y="478" on="1"/>
        <pt x="447" y="478" on="0"/>
        <pt x="509" y="565" on="0"/>
        <pt x="509" y="637" on="1"/>
        <pt x="509" y="711" on="0"/>
        <pt x="447" y="799" on="0"/>
      </contour>
    </TTGlyph>
    <TTGlyph name="oslash" xMin="55" yMin="-147" xMax="1057" yMax="1020">
      <contour>
        <pt x="209" y="-147" on="1"/>
        <pt x="277" y="14" on="1"/>
        <pt x="171" y="74" on="0"/>
        <pt x="55" y="294" on="0"/>
        <pt x="55" y="448" on="1"/>
        <pt x="55" y="686" on="0"/>
        <pt x="326" y="949" on="0"/>
        <pt x="552" y="949" on="1"/>
        <pt x="609" y="949" on="0"/>
        <pt x="671" y="939" on="1"/>
        <pt x="706" y="1020" on="1"/>
        <pt x="881" y="1020" on="1"/>
        <pt x="826" y="886" on="1"/>
        <pt x="936" y="826" on="0"/>
        <pt x="1057" y="603" on="0"/>
        <pt x="1057" y="448" on="1"/>
        <pt x="1057" y="210" on="0"/>
        <pt x="783" y="-51" on="0"/>
        <pt x="552" y="-51" on="1"/>
        <pt x="500" y="-51" on="0"/>
        <pt x="446" y="-43" on="1"/>
        <pt x="404" y="-147" on="1"/>
      </contour>
      <contour>
        <pt x="793" y="448" on="1"/>
        <pt x="793" y="584" on="0"/>
        <pt x="734" y="660" on="1"/>
        <pt x="530" y="161" on="1"/>
        <pt x="537" y="160" on="0"/>
        <pt x="554" y="160" on="1"/>
        <pt x="672" y="160" on="0"/>
        <pt x="793" y="309" on="0"/>
      </contour>
      <contour>
        <pt x="554" y="738" on="1"/>
        <pt x="438" y="738" on="0"/>
        <pt x="319" y="587" on="0"/>
        <pt x="319" y="448" on="1"/>
        <pt x="319" y="314" on="0"/>
        <pt x="374" y="241" on="1"/>
        <pt x="585" y="736" on="1"/>
        <pt x="565" y="738" on="0"/>
      </contour>
    </TTGlyph>
    <TTGlyph name="otilde" xMin="55" yMin="-40" xMax="1057" yMax="1404">
      <component glyphName="o" x="0" y="0" flags="0x204"/>
      <component glyphName="tilde" x="91" y="0" flags="0x4"/>
    </TTGlyph>
    <TTGlyph name="p" xMin="10" yMin="-459" xMax="1137" yMax="970">
      <contour>
        <pt x="373" y="862" on="1"/>
        <pt x="519" y="970" on="0"/>
        <pt x="670" y="970" on="1"/>
        <pt x="771" y="970" on="0"/>
        <pt x="940" y="907" on="0"/>
        <pt x="1067" y="785" on="0"/>
        <pt x="1137" y="591" on="0"/>
        <pt x="1137" y="467" on="1"/>
        <pt x="1137" y="229" on="0"/>
        <pt x="865" y="-45" on="0"/>
        <pt x="641" y="-45" on="1"/>
        <pt x="553" y="-45" on="0"/>
        <pt x="464" y="-24" on="1"/>
        <pt x="464" y="-253" on="1"/>
        <pt x="637" y="-253" on="1"/>
        <pt x="637" y="-459" on="1"/>
        <pt x="32" y="-459" on="1"/>
        <pt x="32" y="-253" on="1"/>
        <pt x="204" y="-253" on="1"/>
        <pt x="204" y="688" on="1"/>
        <pt x="10" y="753" on="1"/>
        <pt x="77" y="962" on="1"/>
      </contour>
      <contour>
        <pt x="637" y="161" on="1"/>
        <pt x="753" y="161" on="0"/>
        <pt x="871" y="324" on="0"/>
        <pt x="871" y="463" on="1"/>
        <pt x="871" y="599" on="0"/>
        <pt x="761" y="759" on="0"/>
        <pt x="655" y="759" on="1"/>
        <pt x="542" y="759" on="0"/>
        <pt x="464" y="687" on="1"/>
        <pt x="464" y="193" on="1"/>
        <pt x="532" y="161" on="0"/>
      </contour>
    </TTGlyph>
    <TTGlyph name="paragraph" xMin="63" yMin="0" xMax="1168" yMax="1206">
      <contour>
        <pt x="663" y="990" on="1"/>
        <pt x="663" y="0" on="1"/>
        <pt x="255" y="0" on="1"/>
        <pt x="255" y="216" on="1"/>
        <pt x="454" y="216" on="1"/>
        <pt x="454" y="546" on="1"/>
        <pt x="239" y="546" on="0"/>
        <pt x="63" y="701" on="0"/>
        <pt x="63" y="867" on="1"/>
        <pt x="63" y="1020" on="0"/>
        <pt x="241" y="1206" on="0"/>
        <pt x="399" y="1206" on="1"/>
        <pt x="1168" y="1206" on="1"/>
        <pt x="1168" y="990" on="1"/>
        <pt x="980" y="990" on="1"/>
        <pt x="980" y="216" on="1"/>
        <pt x="1160" y="216" on="1"/>
        <pt x="1160" y="0" on="1"/>
        <pt x="760" y="0" on="1"/>
        <pt x="760" y="990" on="1"/>
      </contour>
    </TTGlyph>
    <TTGlyph name="parenleft" xMin="43" yMin="-323" xMax="592" yMax="1401">
      <contour>
        <pt x="592" y="-152" on="1"/>
        <pt x="458" y="-323" on="1"/>
        <pt x="379" y="-272" on="0"/>
        <pt x="230" y="-95" on="0"/>
        <pt x="114" y="132" on="0"/>
        <pt x="43" y="398" on="0"/>
        <pt x="43" y="539" on="1"/>
        <pt x="43" y="678" on="0"/>
        <pt x="113" y="944" on="0"/>
        <pt x="229" y="1172" on="0"/>
        <pt x="378" y="1349" on="0"/>
        <pt x="458" y="1401" on="1"/>
        <pt x="592" y="1230" on="1"/>
        <pt x="504" y="1143" on="0"/>
        <pt x="393" y="951" on="0"/>
        <pt x="330" y="766" on="0"/>
        <pt x="307" y="600" on="0"/>
        <pt x="307" y="539" on="1"/>
        <pt x="307" y="478" on="0"/>
        <pt x="330" y="312" on="0"/>
        <pt x="393" y="127" on="0"/>
        <pt x="504" y="-65" on="0"/>
      </contour>
    </TTGlyph>
    <TTGlyph name="parenright" xMin="4" yMin="-323" xMax="553" yMax="1401">
      <contour>
        <pt x="4" y="1230" on="1"/>
        <pt x="138" y="1401" on="1"/>
        <pt x="191" y="1367" on="0"/>
        <pt x="293" y="1264" on="0"/>
        <pt x="385" y="1135" on="0"/>
        <pt x="464" y="982" on="0"/>
        <pt x="521" y="813" on="0"/>
        <pt x="553" y="632" on="0"/>
        <pt x="553" y="539" on="1"/>
        <pt x="553" y="447" on="0"/>
        <pt x="521" y="267" on="0"/>
        <pt x="465" y="99" on="0"/>
        <pt x="387" y="-55" on="0"/>
        <pt x="295" y="-185" on="0"/>
        <pt x="191" y="-289" on="0"/>
        <pt x="138" y="-323" on="1"/>
        <pt x="4" y="-152" on="1"/>
        <pt x="92" y="-65" on="0"/>
        <pt x="203" y="127" on="0"/>
        <pt x="266" y="313" on="0"/>
        <pt x="289" y="479" on="0"/>
        <pt x="289" y="539" on="1"/>
        <pt x="289" y="599" on="0"/>
        <pt x="266" y="765" on="0"/>
        <pt x="203" y="950" on="0"/>
        <pt x="92" y="1143" on="0"/>
      </contour>
    </TTGlyph>
    <TTGlyph name="percent" xMin="66" yMin="-45" xMax="1492" yMax="1285">
      <contour>
        <pt x="1102" y="327" on="1"/>
        <pt x="1102" y="273" on="0"/>
        <pt x="1115" y="201" on="0"/>
        <pt x="1141" y="157" on="0"/>
        <pt x="1176" y="138" on="0"/>
        <pt x="1199" y="138" on="1"/>
        <pt x="1221" y="138" on="0"/>
        <pt x="1257" y="157" on="0"/>
        <pt x="1283" y="201" on="0"/>
        <pt x="1296" y="273" on="0"/>
        <pt x="1296" y="327" on="1"/>
        <pt x="1296" y="381" on="0"/>
        <pt x="1283" y="454" on="0"/>
        <pt x="1257" y="498" on="0"/>
        <pt x="1221" y="517" on="0"/>
        <pt x="1199" y="517" on="1"/>
        <pt x="1176" y="517" on="0"/>
        <pt x="1141" y="498" on="0"/>
        <pt x="1115" y="454" on="0"/>
        <pt x="1102" y="381" on="0"/>
      </contour>
      <contour>
        <pt x="261" y="913" on="1"/>
        <pt x="261" y="859" on="0"/>
        <pt x="274" y="787" on="0"/>
        <pt x="300" y="743" on="0"/>
        <pt x="335" y="724" on="0"/>
        <pt x="358" y="724" on="1"/>
        <pt x="380" y="724" on="0"/>
        <pt x="416" y="743" on="0"/>
        <pt x="442" y="787" on="0"/>
        <pt x="455" y="859" on="0"/>
        <pt x="455" y="913" on="1"/>
        <pt x="455" y="967" on="0"/>
        <pt x="442" y="1040" on="0"/>
        <pt x="416" y="1084" on="0"/>
        <pt x="380" y="1103" on="0"/>
        <pt x="358" y="1103" on="1"/>
        <pt x="335" y="1103" on="0"/>
        <pt x="300" y="1084" on="0"/>
        <pt x="274" y="1040" on="0"/>
        <pt x="261" y="967" on="0"/>
      </contour>
      <contour>
        <pt x="651" y="913" on="1"/>
        <pt x="651" y="542" on="0"/>
        <pt x="358" y="542" on="1"/>
        <pt x="66" y="542" on="0"/>
        <pt x="66" y="913" on="1"/>
        <pt x="66" y="1285" on="0"/>
        <pt x="358" y="1285" on="1"/>
        <pt x="651" y="1285" on="0"/>
      </contour>
      <contour>
        <pt x="1492" y="327" on="1"/>
        <pt x="1492" y="-44" on="0"/>
        <pt x="1199" y="-44" on="1"/>
        <pt x="907" y="-44" on="0"/>
        <pt x="907" y="327" on="1"/>
        <pt x="907" y="699" on="0"/>
        <pt x="1199" y="699" on="1"/>
        <pt x="1492" y="699" on="0"/>
      </contour>
      <contour>
        <pt x="1151" y="1278" on="1"/>
        <pt x="605" y="-45" on="1"/>
        <pt x="411" y="-45" on="1"/>
        <pt x="959" y="1278" on="1"/>
      </contour>
    </TTGlyph>
    <TTGlyph name="period" xMin="78" yMin="-45" xMax="432" yMax="309">
      <contour>
        <pt x="255" y="-45" on="1"/>
        <pt x="219" y="-45" on="0"/>
        <pt x="154" y="-17" on="0"/>
        <pt x="106" y="32" on="0"/>
        <pt x="78" y="96" on="0"/>
        <pt x="78" y="132" on="1"/>
        <pt x="78" y="168" on="0"/>
        <pt x="106" y="232" on="0"/>
        <pt x="155" y="280" on="0"/>
        <pt x="219" y="309" on="0"/>
        <pt x="255" y="309" on="1"/>
        <pt x="290" y="309" on="0"/>
        <pt x="354" y="280" on="0"/>
        <pt x="403" y="230" on="0"/>
        <pt x="432" y="166" on="0"/>
        <pt x="432" y="132" on="1"/>
        <pt x="432" y="97" on="0"/>
        <pt x="403" y="33" on="0"/>
        <pt x="354" y="-16" on="0"/>
        <pt x="290" y="-45" on="0"/>
      </contour>
    </TTGlyph>
    <TTGlyph name="periodcentered" xMin="89" yMin="274" xMax="442" yMax="628">
      <contour>
        <pt x="442" y="451" on="1"/>
        <pt x="442" y="378" on="0"/>
        <pt x="337" y="274" on="0"/>
        <pt x="266" y="274" on="1"/>
        <pt x="192" y="274" on="0"/>
        <pt x="89" y="378" on="0"/>
        <pt x="89" y="451" on="1"/>
        <pt x="89" y="523" on="0"/>
        <pt x="193" y="628" on="0"/>
        <pt x="266" y="628" on="1"/>
        <pt x="337" y="628" on="0"/>
        <pt x="442" y="523" on="0"/>
      </contour>
    </TTGlyph>
    <TTGlyph name="plus" xMin="66" yMin="210" xMax="888" yMax="1031">
      <contour>
        <pt x="66" y="525" on="1"/>
        <pt x="66" y="737" on="1"/>
        <pt x="349" y="737" on="1"/>
        <pt x="349" y="1031" on="1"/>
        <pt x="584" y="1031" on="1"/>
        <pt x="584" y="737" on="1"/>
        <pt x="888" y="737" on="1"/>
        <pt x="888" y="525" on="1"/>
        <pt x="584" y="525" on="1"/>
        <pt x="584" y="210" on="1"/>
        <pt x="349" y="210" on="1"/>
        <pt x="349" y="525" on="1"/>
      </contour>
    </TTGlyph>
    <TTGlyph name="plusminus" xMin="66" yMin="124" xMax="888" yMax="1181">
      <contour>
        <pt x="66" y="124" on="1"/>
        <pt x="66" y="336" on="1"/>
        <pt x="888" y="336" on="1"/>
        <pt x="888" y="124" on="1"/>
      </contour>
      <contour>
        <pt x="66" y="715" on="1"/>
        <pt x="66" y="927" on="1"/>
        <pt x="349" y="927" on="1"/>
        <pt x="349" y="1181" on="1"/>
        <pt x="584" y="1181" on="1"/>
        <pt x="584" y="927" on="1"/>
        <pt x="888" y="927" on="1"/>
        <pt x="888" y="715" on="1"/>
        <pt x="584" y="715" on="1"/>
        <pt x="584" y="440" on="1"/>
        <pt x="349" y="440" on="1"/>
        <pt x="349" y="715" on="1"/>
      </contour>
    </TTGlyph>
    <TTGlyph name="q" xMin="55" yMin="-459" xMax="1125" yMax="970">
      <contour>
        <pt x="543" y="165" on="1"/>
        <pt x="652" y="165" on="0"/>
        <pt x="728" y="197" on="1"/>
        <pt x="728" y="708" on="1"/>
        <pt x="720" y="714" on="0"/>
        <pt x="692" y="731" on="0"/>
        <pt x="597" y="759" on="0"/>
        <pt x="545" y="759" on="1"/>
        <pt x="318" y="759" on="0"/>
        <pt x="318" y="482" on="1"/>
        <pt x="318" y="338" on="0"/>
        <pt x="435" y="165" on="0"/>
      </contour>
      <contour>
        <pt x="988" y="835" on="1"/>
        <pt x="988" y="-253" on="1"/>
        <pt x="1125" y="-253" on="1"/>
        <pt x="1125" y="-459" on="1"/>
        <pt x="520" y="-459" on="1"/>
        <pt x="520" y="-253" on="1"/>
        <pt x="728" y="-253" on="1"/>
        <pt x="728" y="-1" on="1"/>
        <pt x="653" y="-40" on="0"/>
        <pt x="521" y="-40" on="1"/>
        <pt x="312" y="-40" on="0"/>
        <pt x="55" y="243" on="0"/>
        <pt x="55" y="482" on="1"/>
        <pt x="55" y="606" on="0"/>
        <pt x="127" y="795" on="0"/>
        <pt x="256" y="912" on="0"/>
        <pt x="428" y="970" on="0"/>
        <pt x="532" y="970" on="1"/>
        <pt x="755" y="970" on="0"/>
      </contour>
    </TTGlyph>
    <TTGlyph name="question" xMin="41" yMin="-45" xMax="821" yMax="1251">
      <contour>
        <pt x="429" y="-45" on="1"/>
        <pt x="393" y="-45" on="0"/>
        <pt x="328" y="-17" on="0"/>
        <pt x="280" y="32" on="0"/>
        <pt x="252" y="96" on="0"/>
        <pt x="252" y="132" on="1"/>
        <pt x="252" y="168" on="0"/>
        <pt x="280" y="232" on="0"/>
        <pt x="329" y="280" on="0"/>
        <pt x="393" y="309" on="0"/>
        <pt x="429" y="309" on="1"/>
        <pt x="464" y="309" on="0"/>
        <pt x="528" y="280" on="0"/>
        <pt x="577" y="230" on="0"/>
        <pt x="606" y="166" on="0"/>
        <pt x="606" y="132" on="1"/>
        <pt x="606" y="97" on="0"/>
        <pt x="577" y="33" on="0"/>
        <pt x="528" y="-16" on="0"/>
        <pt x="464" y="-45" on="0"/>
      </contour>
      <contour>
        <pt x="248" y="864" on="1"/>
        <pt x="41" y="886" on="1"/>
        <pt x="70" y="1155" on="1"/>
        <pt x="75" y="1159" on="0"/>
        <pt x="94" y="1172" on="0"/>
        <pt x="161" y="1205" on="0"/>
        <pt x="236" y="1230" on="0"/>
        <pt x="358" y="1251" on="0"/>
        <pt x="424" y="1251" on="1"/>
        <pt x="536" y="1251" on="0"/>
        <pt x="696" y="1202" on="0"/>
        <pt x="782" y="1114" on="0"/>
        <pt x="821" y="1008" on="0"/>
        <pt x="821" y="943" on="1"/>
        <pt x="821" y="852" on="0"/>
        <pt x="738" y="739" on="0"/>
        <pt x="638" y="687" on="1"/>
        <pt x="518" y="625" on="0"/>
        <pt x="453" y="570" on="0"/>
        <pt x="453" y="532" on="1"/>
        <pt x="453" y="501" on="0"/>
        <pt x="488" y="451" on="1"/>
        <pt x="336" y="379" on="1"/>
        <pt x="289" y="425" on="0"/>
        <pt x="248" y="511" on="0"/>
        <pt x="248" y="575" on="1"/>
        <pt x="248" y="650" on="0"/>
        <pt x="346" y="751" on="0"/>
        <pt x="488" y="825" on="1"/>
        <pt x="541" y="853" on="0"/>
        <pt x="587" y="902" on="0"/>
        <pt x="587" y="945" on="1"/>
        <pt x="587" y="999" on="0"/>
        <pt x="512" y="1062" on="0"/>
        <pt x="444" y="1062" on="1"/>
        <pt x="355" y="1062" on="0"/>
        <pt x="272" y="1031" on="1"/>
      </contour>
    </TTGlyph>
    <TTGlyph name="questiondown" xMin="35" yMin="-427" xMax="815" yMax="869">
      <contour>
        <pt x="427" y="869" on="1"/>
        <pt x="463" y="869" on="0"/>
        <pt x="527" y="840" on="0"/>
        <pt x="576" y="792" on="0"/>
        <pt x="604" y="728" on="0"/>
        <pt x="604" y="692" on="1"/>
        <pt x="604" y="656" on="0"/>
        <pt x="576" y="592" on="0"/>
        <pt x="528" y="543" on="0"/>
        <pt x="463" y="515" on="0"/>
        <pt x="427" y="515" on="1"/>
        <pt x="392" y="515" on="0"/>
        <pt x="328" y="544" on="0"/>
        <pt x="279" y="593" on="0"/>
        <pt x="250" y="657" on="0"/>
        <pt x="250" y="692" on="1"/>
        <pt x="250" y="727" on="0"/>
        <pt x="279" y="791" on="0"/>
        <pt x="328" y="840" on="0"/>
        <pt x="392" y="869" on="0"/>
      </contour>
      <contour>
        <pt x="608" y="-40" on="1"/>
        <pt x="815" y="-62" on="1"/>
        <pt x="786" y="-331" on="1"/>
        <pt x="781" y="-335" on="0"/>
        <pt x="762" y="-348" on="0"/>
        <pt x="695" y="-381" on="0"/>
        <pt x="620" y="-406" on="0"/>
        <pt x="498" y="-427" on="0"/>
        <pt x="432" y="-427" on="1"/>
        <pt x="320" y="-427" on="0"/>
        <pt x="160" y="-378" on="0"/>
        <pt x="74" y="-290" on="0"/>
        <pt x="35" y="-184" on="0"/>
        <pt x="35" y="-119" on="1"/>
        <pt x="35" y="-28" on="0"/>
        <pt x="118" y="85" on="0"/>
        <pt x="218" y="137" on="1"/>
        <pt x="338" y="199" on="0"/>
        <pt x="403" y="254" on="0"/>
        <pt x="403" y="292" on="1"/>
        <pt x="403" y="323" on="0"/>
        <pt x="368" y="373" on="1"/>
        <pt x="520" y="445" on="1"/>
        <pt x="567" y="399" on="0"/>
        <pt x="608" y="313" on="0"/>
        <pt x="608" y="249" on="1"/>
        <pt x="608" y="169" on="0"/>
        <pt x="513" y="75" on="0"/>
        <pt x="368" y="-1" on="1"/>
        <pt x="315" y="-29" on="0"/>
        <pt x="269" y="-78" on="0"/>
        <pt x="269" y="-121" on="1"/>
        <pt x="269" y="-175" on="0"/>
        <pt x="344" y="-238" on="0"/>
        <pt x="412" y="-238" on="1"/>
        <pt x="501" y="-238" on="0"/>
        <pt x="584" y="-207" on="1"/>
      </contour>
    </TTGlyph>
    <TTGlyph name="quotedbl" xMin="90" yMin="833" xMax="647" yMax="1251">
      <contour>
        <pt x="150" y="833" on="1"/>
        <pt x="90" y="1251" on="1"/>
        <pt x="326" y="1251" on="1"/>
        <pt x="266" y="833" on="1"/>
      </contour>
      <contour>
        <pt x="471" y="833" on="1"/>
        <pt x="411" y="1251" on="1"/>
        <pt x="647" y="1251" on="1"/>
        <pt x="587" y="833" on="1"/>
      </contour>
    </TTGlyph>
    <TTGlyph name="quotedblbase" xMin="78" yMin="-239" xMax="840" yMax="329">
      <contour>
        <pt x="253" y="329" on="1"/>
        <pt x="322" y="329" on="0"/>
        <pt x="430" y="222" on="0"/>
        <pt x="430" y="150" on="1"/>
        <pt x="430" y="97" on="0"/>
        <pt x="392" y="-7" on="0"/>
        <pt x="323" y="-99" on="0"/>
        <pt x="268" y="-160" on="0"/>
        <pt x="189" y="-233" on="0"/>
        <pt x="184" y="-239" on="1"/>
        <pt x="106" y="-151" on="1"/>
        <pt x="141" y="-104" on="0"/>
        <pt x="191" y="-26" on="0"/>
        <pt x="205" y="4" on="1"/>
        <pt x="141" y="21" on="0"/>
        <pt x="78" y="107" on="0"/>
        <pt x="78" y="160" on="1"/>
        <pt x="78" y="235" on="0"/>
        <pt x="176" y="329" on="0"/>
      </contour>
      <contour>
        <pt x="663" y="329" on="1"/>
        <pt x="732" y="329" on="0"/>
        <pt x="840" y="222" on="0"/>
        <pt x="840" y="150" on="1"/>
        <pt x="840" y="106" on="0"/>
        <pt x="810" y="16" on="0"/>
        <pt x="768" y="-54" on="0"/>
        <pt x="705" y="-131" on="0"/>
        <pt x="659" y="-176" on="0"/>
        <pt x="601" y="-231" on="0"/>
        <pt x="594" y="-239" on="1"/>
        <pt x="516" y="-151" on="1"/>
        <pt x="615" y="4" on="1"/>
        <pt x="551" y="21" on="0"/>
        <pt x="488" y="107" on="0"/>
        <pt x="488" y="160" on="1"/>
        <pt x="488" y="235" on="0"/>
        <pt x="586" y="329" on="0"/>
      </contour>
    </TTGlyph>
    <TTGlyph name="quotedblleft" xMin="59" yMin="705" xMax="848" yMax="1273">
      <contour>
        <pt x="235" y="705" on="1"/>
        <pt x="166" y="705" on="0"/>
        <pt x="59" y="812" on="0"/>
        <pt x="59" y="885" on="1"/>
        <pt x="59" y="927" on="0"/>
        <pt x="89" y="1016" on="0"/>
        <pt x="131" y="1086" on="0"/>
        <pt x="194" y="1163" on="0"/>
        <pt x="239" y="1209" on="0"/>
        <pt x="299" y="1266" on="0"/>
        <pt x="305" y="1273" on="1"/>
        <pt x="383" y="1185" on="1"/>
        <pt x="348" y="1138" on="0"/>
        <pt x="298" y="1060" on="0"/>
        <pt x="284" y="1030" on="1"/>
        <pt x="348" y="1013" on="0"/>
        <pt x="411" y="927" on="0"/>
        <pt x="411" y="874" on="1"/>
        <pt x="411" y="799" on="0"/>
        <pt x="312" y="705" on="0"/>
      </contour>
      <contour>
        <pt x="672" y="705" on="1"/>
        <pt x="603" y="705" on="0"/>
        <pt x="496" y="812" on="0"/>
        <pt x="496" y="885" on="1"/>
        <pt x="496" y="934" on="0"/>
        <pt x="533" y="1035" on="0"/>
        <pt x="605" y="1131" on="0"/>
        <pt x="655" y="1189" on="0"/>
        <pt x="740" y="1271" on="0"/>
        <pt x="742" y="1273" on="1"/>
        <pt x="820" y="1185" on="1"/>
        <pt x="802" y="1162" on="1"/>
        <pt x="785" y="1138" on="0"/>
        <pt x="735" y="1060" on="0"/>
        <pt x="721" y="1030" on="1"/>
        <pt x="785" y="1013" on="0"/>
        <pt x="848" y="927" on="0"/>
        <pt x="848" y="874" on="1"/>
        <pt x="848" y="799" on="0"/>
        <pt x="749" y="705" on="0"/>
      </contour>
    </TTGlyph>
    <TTGlyph name="quotedblright" xMin="72" yMin="705" xMax="861" yMax="1273">
      <contour>
        <pt x="685" y="1273" on="1"/>
        <pt x="754" y="1273" on="0"/>
        <pt x="861" y="1166" on="0"/>
        <pt x="861" y="1093" on="1"/>
        <pt x="861" y="1050" on="0"/>
        <pt x="831" y="960" on="0"/>
        <pt x="789" y="890" on="0"/>
        <pt x="726" y="814" on="0"/>
        <pt x="680" y="768" on="0"/>
        <pt x="622" y="713" on="0"/>
        <pt x="615" y="705" on="1"/>
        <pt x="537" y="793" on="1"/>
        <pt x="572" y="840" on="0"/>
        <pt x="622" y="918" on="0"/>
        <pt x="636" y="948" on="1"/>
        <pt x="572" y="965" on="0"/>
        <pt x="509" y="1051" on="0"/>
        <pt x="509" y="1104" on="1"/>
        <pt x="509" y="1179" on="0"/>
        <pt x="608" y="1273" on="0"/>
      </contour>
      <contour>
        <pt x="248" y="1273" on="1"/>
        <pt x="317" y="1273" on="0"/>
        <pt x="424" y="1166" on="0"/>
        <pt x="424" y="1093" on="1"/>
        <pt x="424" y="1039" on="0"/>
        <pt x="386" y="934" on="0"/>
        <pt x="317" y="843" on="0"/>
        <pt x="261" y="782" on="0"/>
        <pt x="185" y="712" on="0"/>
        <pt x="178" y="705" on="1"/>
        <pt x="100" y="793" on="1"/>
        <pt x="135" y="840" on="0"/>
        <pt x="185" y="918" on="0"/>
        <pt x="199" y="948" on="1"/>
        <pt x="135" y="965" on="0"/>
        <pt x="72" y="1051" on="0"/>
        <pt x="72" y="1104" on="1"/>
        <pt x="72" y="1179" on="0"/>
        <pt x="171" y="1273" on="0"/>
      </contour>
    </TTGlyph>
    <TTGlyph name="quoteleft" xMin="59" yMin="705" xMax="411" yMax="1273">
      <contour>
        <pt x="235" y="705" on="1"/>
        <pt x="166" y="705" on="0"/>
        <pt x="59" y="813" on="0"/>
        <pt x="59" y="885" on="1"/>
        <pt x="59" y="928" on="0"/>
        <pt x="89" y="1018" on="0"/>
        <pt x="131" y="1088" on="0"/>
        <pt x="194" y="1164" on="0"/>
        <pt x="240" y="1210" on="0"/>
        <pt x="298" y="1265" on="0"/>
        <pt x="305" y="1273" on="1"/>
        <pt x="383" y="1185" on="1"/>
        <pt x="366" y="1162" on="1"/>
        <pt x="348" y="1138" on="0"/>
        <pt x="298" y="1060" on="0"/>
        <pt x="284" y="1030" on="1"/>
        <pt x="348" y="1013" on="0"/>
        <pt x="411" y="927" on="0"/>
        <pt x="411" y="874" on="1"/>
        <pt x="411" y="799" on="0"/>
        <pt x="312" y="705" on="0"/>
      </contour>
    </TTGlyph>
    <TTGlyph name="quoteright" xMin="72" yMin="704" xMax="424" yMax="1272">
      <contour>
        <pt x="249" y="1272" on="1"/>
        <pt x="317" y="1272" on="0"/>
        <pt x="424" y="1165" on="0"/>
        <pt x="424" y="1092" on="1"/>
        <pt x="424" y="1041" on="0"/>
        <pt x="387" y="939" on="0"/>
        <pt x="316" y="845" on="0"/>
        <pt x="263" y="785" on="0"/>
        <pt x="182" y="708" on="0"/>
        <pt x="178" y="704" on="1"/>
        <pt x="100" y="792" on="1"/>
        <pt x="135" y="839" on="0"/>
        <pt x="185" y="917" on="0"/>
        <pt x="199" y="947" on="1"/>
        <pt x="135" y="964" on="0"/>
        <pt x="72" y="1050" on="0"/>
        <pt x="72" y="1103" on="1"/>
        <pt x="72" y="1178" on="0"/>
        <pt x="172" y="1272" on="0"/>
      </contour>
    </TTGlyph>
    <TTGlyph name="quotesinglbase" xMin="78" yMin="-315" xMax="450" yMax="273">
      <contour>
        <pt x="261" y="273" on="1"/>
        <pt x="335" y="273" on="0"/>
        <pt x="450" y="161" on="0"/>
        <pt x="450" y="85" on="1"/>
        <pt x="450" y="32" on="0"/>
        <pt x="403" y="-90" on="0"/>
        <pt x="337" y="-188" on="0"/>
        <pt x="270" y="-270" on="0"/>
        <pt x="223" y="-315" on="1"/>
        <pt x="111" y="-191" on="1"/>
        <pt x="138" y="-128" on="0"/>
        <pt x="170" y="-55" on="1"/>
        <pt x="129" y="-35" on="0"/>
        <pt x="78" y="48" on="0"/>
        <pt x="78" y="96" on="1"/>
        <pt x="78" y="175" on="0"/>
        <pt x="181" y="273" on="0"/>
      </contour>
    </TTGlyph>
    <TTGlyph name="quotesingle" xMin="90" yMin="833" xMax="326" yMax="1251">
      <contour>
        <pt x="150" y="833" on="1"/>
        <pt x="90" y="1251" on="1"/>
        <pt x="326" y="1251" on="1"/>
        <pt x="266" y="833" on="1"/>
      </contour>
    </TTGlyph>
    <TTGlyph name="r" xMin="14" yMin="0" xMax="879" yMax="970">
      <contour>
        <pt x="211" y="207" on="1"/>
        <pt x="211" y="676" on="1"/>
        <pt x="14" y="741" on="1"/>
        <pt x="81" y="950" on="1"/>
        <pt x="383" y="848" on="1"/>
        <pt x="386" y="850" on="0"/>
        <pt x="438" y="883" on="0"/>
        <pt x="473" y="902" on="0"/>
        <pt x="541" y="935" on="0"/>
        <pt x="600" y="955" on="0"/>
        <pt x="681" y="970" on="0"/>
        <pt x="720" y="970" on="1"/>
        <pt x="782" y="970" on="0"/>
        <pt x="829" y="957" on="1"/>
        <pt x="879" y="661" on="1"/>
        <pt x="664" y="617" on="1"/>
        <pt x="637" y="724" on="1"/>
        <pt x="595" y="718" on="0"/>
        <pt x="495" y="675" on="0"/>
        <pt x="471" y="651" on="1"/>
        <pt x="471" y="207" on="1"/>
        <pt x="669" y="207" on="1"/>
        <pt x="669" y="0" on="1"/>
        <pt x="37" y="0" on="1"/>
        <pt x="37" y="207" on="1"/>
      </contour>
    </TTGlyph>
    <TTGlyph name="registered" xMin="68" yMin="117" xMax="1223" yMax="1272">
      <contour>
        <pt x="646" y="1272" on="1"/>
        <pt x="728" y="1272" on="0"/>
        <pt x="878" y="1232" on="0"/>
        <pt x="1006" y="1158" on="0"/>
        <pt x="1110" y="1054" on="0"/>
        <pt x="1183" y="925" on="0"/>
        <pt x="1223" y="775" on="0"/>
        <pt x="1223" y="693" on="1"/>
        <pt x="1223" y="574" on="0"/>
        <pt x="1140" y="364" on="0"/>
        <pt x="988" y="208" on="0"/>
        <pt x="775" y="117" on="0"/>
        <pt x="646" y="117" on="1"/>
        <pt x="521" y="117" on="0"/>
        <pt x="309" y="204" on="0"/>
        <pt x="155" y="359" on="0"/>
        <pt x="68" y="574" on="0"/>
        <pt x="68" y="702" on="1"/>
        <pt x="68" y="824" on="0"/>
        <pt x="158" y="1033" on="0"/>
        <pt x="314" y="1186" on="0"/>
        <pt x="525" y="1272" on="0"/>
      </contour>
      <contour>
        <pt x="234" y="684" on="1"/>
        <pt x="234" y="507" on="0"/>
        <pt x="460" y="273" on="0"/>
        <pt x="644" y="273" on="1"/>
        <pt x="827" y="273" on="0"/>
        <pt x="1057" y="508" on="0"/>
        <pt x="1057" y="684" on="1"/>
        <pt x="1057" y="868" on="0"/>
        <pt x="827" y="1113" on="0"/>
        <pt x="644" y="1113" on="1"/>
        <pt x="460" y="1113" on="0"/>
        <pt x="234" y="869" on="0"/>
      </contour>
      <contour>
        <pt x="678" y="606" on="1"/>
        <pt x="610" y="606" on="1"/>
        <pt x="610" y="536" on="1"/>
        <pt x="652" y="536" on="1"/>
        <pt x="652" y="424" on="1"/>
        <pt x="412" y="424" on="1"/>
        <pt x="412" y="536" on="1"/>
        <pt x="483" y="536" on="1"/>
        <pt x="483" y="850" on="1"/>
        <pt x="412" y="850" on="1"/>
        <pt x="412" y="962" on="1"/>
        <pt x="649" y="962" on="1"/>
        <pt x="763" y="962" on="0"/>
        <pt x="871" y="874" on="0"/>
        <pt x="871" y="784" on="1"/>
        <pt x="871" y="724" on="0"/>
        <pt x="832" y="653" on="0"/>
        <pt x="783" y="628" on="1"/>
        <pt x="829" y="536" on="1"/>
        <pt x="923" y="536" on="1"/>
        <pt x="923" y="424" on="1"/>
        <pt x="762" y="424" on="1"/>
      </contour>
      <contour>
        <pt x="612" y="707" on="1"/>
        <pt x="648" y="707" on="1"/>
        <pt x="697" y="707" on="0"/>
        <pt x="741" y="736" on="0"/>
        <pt x="741" y="777" on="1"/>
        <pt x="741" y="821" on="0"/>
        <pt x="698" y="850" on="0"/>
        <pt x="648" y="850" on="1"/>
        <pt x="612" y="850" on="1"/>
      </contour>
    </TTGlyph>
    <TTGlyph name="ring" xMin="55" yMin="1020" xMax="507" yMax="1472">
      <contour>
        <pt x="281" y="1472" on="1"/>
        <pt x="326" y="1472" on="0"/>
        <pt x="408" y="1435" on="0"/>
        <pt x="470" y="1373" on="0"/>
        <pt x="507" y="1291" on="0"/>
        <pt x="507" y="1246" on="1"/>
        <pt x="507" y="1200" on="0"/>
        <pt x="470" y="1118" on="0"/>
        <pt x="408" y="1056" on="0"/>
        <pt x="326" y="1020" on="0"/>
        <pt x="281" y="1020" on="1"/>
        <pt x="234" y="1020" on="0"/>
        <pt x="152" y="1056" on="0"/>
        <pt x="91" y="1117" on="0"/>
        <pt x="55" y="1199" on="0"/>
        <pt x="55" y="1246" on="1"/>
        <pt x="55" y="1292" on="0"/>
        <pt x="91" y="1375" on="0"/>
        <pt x="153" y="1436" on="0"/>
        <pt x="235" y="1472" on="0"/>
      </contour>
      <contour>
        <pt x="204" y="1322" on="1"/>
        <pt x="173" y="1291" on="0"/>
        <pt x="173" y="1246" on="1"/>
        <pt x="173" y="1200" on="0"/>
        <pt x="235" y="1138" on="0"/>
        <pt x="281" y="1138" on="1"/>
        <pt x="303" y="1138" on="0"/>
        <pt x="342" y="1155" on="0"/>
        <pt x="372" y="1184" on="0"/>
        <pt x="389" y="1223" on="0"/>
        <pt x="389" y="1246" on="1"/>
        <pt x="389" y="1268" on="0"/>
        <pt x="372" y="1307" on="0"/>
        <pt x="342" y="1337" on="0"/>
        <pt x="303" y="1354" on="0"/>
        <pt x="281" y="1354" on="1"/>
        <pt x="236" y="1354" on="0"/>
      </contour>
    </TTGlyph>
    <TTGlyph name="s" xMin="59" yMin="-40" xMax="890" yMax="969">
      <contour>
        <pt x="863" y="693" on="1"/>
        <pt x="650" y="660" on="1"/>
        <pt x="634" y="734" on="1"/>
        <pt x="569" y="759" on="0"/>
        <pt x="495" y="759" on="1"/>
        <pt x="389" y="759" on="0"/>
        <pt x="287" y="722" on="0"/>
        <pt x="287" y="640" on="0"/>
        <pt x="335" y="602" on="0"/>
        <pt x="389" y="596" on="1"/>
        <pt x="588" y="576" on="1"/>
        <pt x="741" y="559" on="0"/>
        <pt x="890" y="412" on="0"/>
        <pt x="890" y="275" on="1"/>
        <pt x="890" y="120" on="0"/>
        <pt x="684" y="-40" on="0"/>
        <pt x="496" y="-40" on="1"/>
        <pt x="385" y="-40" on="0"/>
        <pt x="163" y="-2" on="0"/>
        <pt x="88" y="28" on="1"/>
        <pt x="59" y="245" on="1"/>
        <pt x="266" y="278" on="1"/>
        <pt x="283" y="199" on="1"/>
        <pt x="375" y="170" on="0"/>
        <pt x="492" y="170" on="1"/>
        <pt x="638" y="170" on="0"/>
        <pt x="638" y="260" on="1"/>
        <pt x="638" y="293" on="0"/>
        <pt x="589" y="338" on="0"/>
        <pt x="540" y="342" on="1"/>
        <pt x="395" y="355" on="1"/>
        <pt x="67" y="388" on="0"/>
        <pt x="67" y="670" on="1"/>
        <pt x="67" y="810" on="0"/>
        <pt x="284" y="969" on="0"/>
        <pt x="481" y="969" on="1"/>
        <pt x="654" y="969" on="0"/>
        <pt x="831" y="894" on="1"/>
      </contour>
    </TTGlyph>
    <TTGlyph name="section" xMin="80" yMin="-227" xMax="929" yMax="1287">
      <contour>
        <pt x="894" y="974" on="1"/>
        <pt x="674" y="929" on="1"/>
        <pt x="645" y="1075" on="1"/>
        <pt x="595" y="1097" on="0"/>
        <pt x="515" y="1097" on="1"/>
        <pt x="440" y="1097" on="0"/>
        <pt x="329" y="1054" on="0"/>
        <pt x="329" y="1013" on="1"/>
        <pt x="329" y="983" on="0"/>
        <pt x="354" y="942" on="0"/>
        <pt x="440" y="896" on="0"/>
        <pt x="521" y="872" on="1"/>
        <pt x="592" y="851" on="0"/>
        <pt x="670" y="826" on="0"/>
        <pt x="771" y="788" on="0"/>
        <pt x="821" y="757" on="0"/>
        <pt x="879" y="710" on="0"/>
        <pt x="905" y="658" on="0"/>
        <pt x="922" y="588" on="0"/>
        <pt x="922" y="545" on="1"/>
        <pt x="922" y="489" on="0"/>
        <pt x="826" y="371" on="0"/>
        <pt x="731" y="322" on="1"/>
        <pt x="929" y="245" on="0"/>
        <pt x="929" y="94" on="1"/>
        <pt x="929" y="-6" on="0"/>
        <pt x="802" y="-156" on="0"/>
        <pt x="616" y="-227" on="0"/>
        <pt x="511" y="-227" on="1"/>
        <pt x="268" y="-227" on="0"/>
        <pt x="129" y="-109" on="1"/>
        <pt x="92" y="96" on="1"/>
        <pt x="300" y="136" on="1"/>
        <pt x="326" y="6" on="1"/>
        <pt x="409" y="-29" on="0"/>
        <pt x="499" y="-29" on="1"/>
        <pt x="568" y="-29" on="0"/>
        <pt x="687" y="10" on="0"/>
        <pt x="687" y="47" on="1"/>
        <pt x="687" y="80" on="0"/>
        <pt x="654" y="118" on="0"/>
        <pt x="544" y="162" on="0"/>
        <pt x="425" y="194" on="1"/>
        <pt x="365" y="210" on="0"/>
        <pt x="277" y="242" on="0"/>
        <pt x="184" y="296" on="0"/>
        <pt x="127" y="362" on="0"/>
        <pt x="90" y="459" on="0"/>
        <pt x="90" y="520" on="1"/>
        <pt x="90" y="587" on="0"/>
        <pt x="193" y="706" on="0"/>
        <pt x="301" y="735" on="1"/>
        <pt x="212" y="765" on="0"/>
        <pt x="80" y="905" on="0"/>
        <pt x="80" y="983" on="1"/>
        <pt x="80" y="1119" on="0"/>
        <pt x="301" y="1287" on="0"/>
        <pt x="494" y="1287" on="1"/>
        <pt x="709" y="1287" on="0"/>
        <pt x="851" y="1186" on="1"/>
      </contour>
      <contour>
        <pt x="690" y="518" on="1"/>
        <pt x="690" y="561" on="0"/>
        <pt x="544" y="644" on="0"/>
        <pt x="427" y="672" on="1"/>
        <pt x="366" y="651" on="0"/>
        <pt x="311" y="584" on="0"/>
        <pt x="311" y="533" on="1"/>
        <pt x="311" y="481" on="0"/>
        <pt x="445" y="404" on="0"/>
        <pt x="582" y="373" on="1"/>
        <pt x="630" y="405" on="0"/>
        <pt x="690" y="483" on="0"/>
      </contour>
    </TTGlyph>
    <TTGlyph name="semicolon" xMin="94" yMin="-291" xMax="450" yMax="953">
      <contour>
        <pt x="273" y="277" on="1"/>
        <pt x="307" y="277" on="0"/>
        <pt x="370" y="248" on="0"/>
        <pt x="420" y="199" on="0"/>
        <pt x="450" y="134" on="0"/>
        <pt x="450" y="98" on="1"/>
        <pt x="450" y="47" on="0"/>
        <pt x="414" y="-51" on="0"/>
        <pt x="356" y="-140" on="0"/>
        <pt x="285" y="-218" on="0"/>
        <pt x="210" y="-284" on="0"/>
        <pt x="204" y="-291" on="1"/>
        <pt x="126" y="-203" on="1"/>
        <pt x="186" y="-117" on="1"/>
        <pt x="211" y="-78" on="0"/>
        <pt x="225" y="-48" on="1"/>
        <pt x="161" y="-31" on="0"/>
        <pt x="98" y="54" on="0"/>
        <pt x="98" y="108" on="1"/>
        <pt x="98" y="146" on="0"/>
        <pt x="124" y="208" on="0"/>
        <pt x="171" y="253" on="0"/>
        <pt x="235" y="277" on="0"/>
      </contour>
      <contour>
        <pt x="271" y="599" on="1"/>
        <pt x="235" y="599" on="0"/>
        <pt x="170" y="627" on="0"/>
        <pt x="122" y="676" on="0"/>
        <pt x="94" y="740" on="0"/>
        <pt x="94" y="776" on="1"/>
        <pt x="94" y="812" on="0"/>
        <pt x="122" y="876" on="0"/>
        <pt x="171" y="924" on="0"/>
        <pt x="235" y="953" on="0"/>
        <pt x="271" y="953" on="1"/>
        <pt x="306" y="953" on="0"/>
        <pt x="370" y="924" on="0"/>
        <pt x="419" y="874" on="0"/>
        <pt x="448" y="810" on="0"/>
        <pt x="448" y="776" on="1"/>
        <pt x="448" y="741" on="0"/>
        <pt x="419" y="677" on="0"/>
        <pt x="370" y="628" on="0"/>
        <pt x="306" y="599" on="0"/>
      </contour>
    </TTGlyph>
    <TTGlyph name="seven" xMin="18" yMin="0" xMax="919" yMax="1206">
      <contour>
        <pt x="256" y="828" on="1"/>
        <pt x="18" y="880" on="1"/>
        <pt x="80" y="1206" on="1"/>
        <pt x="919" y="1206" on="1"/>
        <pt x="919" y="1051" on="1"/>
        <pt x="744" y="776" on="0"/>
        <pt x="559" y="240" on="0"/>
        <pt x="544" y="0" on="1"/>
        <pt x="278" y="0" on="1"/>
        <pt x="310" y="258" on="0"/>
        <pt x="458" y="704" on="0"/>
        <pt x="614" y="977" on="1"/>
        <pt x="286" y="977" on="1"/>
      </contour>
    </TTGlyph>
    <TTGlyph name="six" xMin="63" yMin="-45" xMax="1079" yMax="1251">
      <contour>
        <pt x="660" y="1022" on="1"/>
        <pt x="520" y="1022" on="0"/>
        <pt x="340" y="827" on="0"/>
        <pt x="340" y="687" on="1"/>
        <pt x="494" y="796" on="0"/>
        <pt x="663" y="796" on="1"/>
        <pt x="729" y="796" on="0"/>
        <pt x="845" y="771" on="0"/>
        <pt x="954" y="712" on="0"/>
        <pt x="1032" y="621" on="0"/>
        <pt x="1079" y="478" on="0"/>
        <pt x="1079" y="388" on="1"/>
        <pt x="1079" y="335" on="0"/>
        <pt x="1054" y="227" on="0"/>
        <pt x="985" y="106" on="0"/>
        <pt x="879" y="15" on="0"/>
        <pt x="699" y="-45" on="0"/>
        <pt x="584" y="-45" on="1"/>
        <pt x="321" y="-45" on="0"/>
        <pt x="63" y="275" on="0"/>
        <pt x="63" y="600" on="1"/>
        <pt x="63" y="888" on="0"/>
        <pt x="387" y="1251" on="0"/>
        <pt x="656" y="1251" on="1"/>
        <pt x="745" y="1251" on="0"/>
        <pt x="936" y="1193" on="0"/>
        <pt x="991" y="1156" on="1"/>
        <pt x="914" y="953" on="1"/>
        <pt x="862" y="987" on="0"/>
        <pt x="723" y="1022" on="0"/>
      </contour>
      <contour>
        <pt x="811" y="388" on="1"/>
        <pt x="811" y="497" on="0"/>
        <pt x="699" y="597" on="0"/>
        <pt x="611" y="597" on="1"/>
        <pt x="539" y="597" on="0"/>
        <pt x="391" y="539" on="0"/>
        <pt x="347" y="496" on="1"/>
        <pt x="376" y="175" on="0"/>
        <pt x="599" y="175" on="1"/>
        <pt x="699" y="175" on="0"/>
        <pt x="811" y="307" on="0"/>
      </contour>
    </TTGlyph>
    <TTGlyph name="slash" xMin="-31" yMin="-268" xMax="895" yMax="1206">
      <contour>
        <pt x="895" y="1206" on="1"/>
        <pt x="231" y="-268" on="1"/>
        <pt x="-31" y="-268" on="1"/>
        <pt x="634" y="1206" on="1"/>
      </contour>
    </TTGlyph>
    <TTGlyph name="sterling" xMin="55" yMin="-55" xMax="1077" yMax="1251">
      <contour>
        <pt x="75" y="511" on="1"/>
        <pt x="75" y="733" on="1"/>
        <pt x="243" y="733" on="1"/>
        <pt x="241" y="777" on="0"/>
        <pt x="238" y="847" on="0"/>
        <pt x="238" y="875" on="1"/>
        <pt x="238" y="974" on="0"/>
        <pt x="305" y="1116" on="0"/>
        <pt x="417" y="1207" on="0"/>
        <pt x="562" y="1251" on="0"/>
        <pt x="640" y="1251" on="1"/>
        <pt x="722" y="1251" on="0"/>
        <pt x="887" y="1205" on="0"/>
        <pt x="957" y="1161" on="1"/>
        <pt x="1004" y="888" on="1"/>
        <pt x="780" y="857" on="1"/>
        <pt x="755" y="1028" on="1"/>
        <pt x="694" y="1054" on="0"/>
        <pt x="634" y="1054" on="1"/>
        <pt x="603" y="1054" on="0"/>
        <pt x="548" y="1037" on="0"/>
        <pt x="506" y="1002" on="0"/>
        <pt x="482" y="947" on="0"/>
        <pt x="482" y="909" on="1"/>
        <pt x="482" y="884" on="0"/>
        <pt x="485" y="796" on="0"/>
        <pt x="489" y="733" on="1"/>
        <pt x="741" y="733" on="1"/>
        <pt x="741" y="511" on="1"/>
        <pt x="505" y="511" on="1"/>
        <pt x="505" y="408" on="1"/>
        <pt x="505" y="315" on="0"/>
        <pt x="403" y="198" on="1"/>
        <pt x="408" y="192" on="1"/>
        <pt x="456" y="209" on="0"/>
        <pt x="499" y="209" on="1"/>
        <pt x="510" y="209" on="0"/>
        <pt x="554" y="202" on="0"/>
        <pt x="607" y="192" on="0"/>
        <pt x="665" y="181" on="0"/>
        <pt x="719" y="171" on="0"/>
        <pt x="763" y="164" on="0"/>
        <pt x="775" y="164" on="1"/>
        <pt x="802" y="164" on="0"/>
        <pt x="847" y="173" on="0"/>
        <pt x="890" y="193" on="0"/>
        <pt x="937" y="227" on="0"/>
        <pt x="966" y="253" on="1"/>
        <pt x="1077" y="79" on="1"/>
        <pt x="1030" y="42" on="0"/>
        <pt x="956" y="-6" on="0"/>
        <pt x="883" y="-34" on="0"/>
        <pt x="800" y="-45" on="0"/>
        <pt x="745" y="-45" on="1"/>
        <pt x="683" y="-45" on="0"/>
        <pt x="574" y="-20" on="0"/>
        <pt x="479" y="10" on="0"/>
        <pt x="396" y="35" on="0"/>
        <pt x="360" y="35" on="1"/>
        <pt x="321" y="35" on="0"/>
        <pt x="233" y="-8" on="0"/>
        <pt x="164" y="-55" on="1"/>
        <pt x="55" y="102" on="1"/>
        <pt x="94" y="128" on="0"/>
        <pt x="174" y="189" on="0"/>
        <pt x="240" y="265" on="0"/>
        <pt x="281" y="359" on="0"/>
        <pt x="281" y="417" on="1"/>
        <pt x="281" y="463" on="0"/>
        <pt x="275" y="511" on="1"/>
      </contour>
    </TTGlyph>
    <TTGlyph name="t" xMin="8" yMin="-40" xMax="732" yMax="1134">
      <contour>
        <pt x="8" y="930" on="1"/>
        <pt x="178" y="930" on="1"/>
        <pt x="178" y="1075" on="1"/>
        <pt x="438" y="1134" on="1"/>
        <pt x="438" y="930" on="1"/>
        <pt x="681" y="930" on="1"/>
        <pt x="681" y="723" on="1"/>
        <pt x="438" y="723" on="1"/>
        <pt x="438" y="400" on="1"/>
        <pt x="438" y="174" on="0"/>
        <pt x="547" y="174" on="1"/>
        <pt x="615" y="174" on="0"/>
        <pt x="681" y="191" on="1"/>
        <pt x="732" y="-2" on="1"/>
        <pt x="618" y="-40" on="0"/>
        <pt x="533" y="-40" on="1"/>
        <pt x="364" y="-40" on="0"/>
        <pt x="178" y="151" on="0"/>
        <pt x="178" y="341" on="1"/>
        <pt x="178" y="723" on="1"/>
        <pt x="8" y="723" on="1"/>
      </contour>
    </TTGlyph>
</ttFont>
